M48
; DRILL file {KiCad (5.1.4)-1} date 1/28/2020 12:58:05 PM
; FORMAT={-:-/ absolute / inch / decimal}
; #@! TF.CreationDate,2020-01-28T12:58:05-05:00
; #@! TF.GenerationSoftware,Kicad,Pcbnew,(5.1.4)-1
; #@! TF.FileFunction,Plated,1,4,PTH
FMAT,2
INCH
T1C0.0157
T2C0.0197
T3C0.0276
T4C0.0394
T5C0.0433
%
G90
G05
T1
X4.5984Y-5.2638
X4.6161Y-5.0965
X4.6476Y-4.8346
X4.6732Y-4.6772
X4.6839Y-5.3343
X4.705Y-5.62
X4.725Y-5.2
X4.7362Y-4.4646
X4.765Y-5.4
X4.7697Y-5.3098
X4.78Y-5.025
X4.8051Y-4.2776
X4.8275Y-4.515
X4.863Y-5.1539
X4.8685Y-5.4067
X4.875Y-5.045
X4.876Y-5.8543
X4.878Y-4.8543
X4.885Y-5.255
X4.8858Y-4.6949
X4.89Y-5.48
X4.92Y-5.61
X4.9225Y-5.6825
X4.9875Y-4.8875
X4.99Y-4.51
X5.0157Y-5.9272
X5.02Y-5.05
X5.0209Y-5.15
X5.0275Y-4.8875
X5.035Y-4.515
X5.04Y-5.3725
X5.05Y-5.255
X5.065Y-4.2303
X5.065Y-4.3622
X5.0689Y-4.1063
X5.0775Y-4.8875
X5.08Y-4.515
X5.0906Y-5.8287
X5.095Y-5.255
X5.095Y-5.66
X5.1067Y-5.0957
X5.125Y-3.935
X5.125Y-5.03
X5.135Y-4.515
X5.1535Y-4.0177
X5.1575Y-5.325
X5.1693Y-5.9173
X5.1732Y-4.3642
X5.1752Y-4.2362
X5.1791Y-5.3841
X5.19Y-3.795
X5.1909Y-4.8701
X5.2035Y-5.8311
X5.255Y-3.8
X5.2933Y-4.1161
X5.295Y-4.66
X5.2953Y-5.9803
X5.2972Y-5.8445
X5.3025Y-4.895
X5.3425Y-5.124
X5.3475Y-4.4925
X5.35Y-4.95
X5.3575Y-5.2154
X5.36Y-3.8
X5.37Y-5.46
X5.395Y-4.72
X5.3975Y-4.4925
X5.4055Y-6.0492
X5.4154Y-5.8642
X5.4173Y-4.2323
X5.4639Y-4.7392
X5.4685Y-5.6476
X5.4744Y-5.4783
X5.475Y-4.495
X5.49Y-4.66
X5.4959Y-4.8291
X5.5Y-5.205
X5.5157Y-5.8287
X5.5225Y-4.4975
X5.5551Y-4.2146
X5.5728Y-6.065
X5.575Y-3.845
X5.575Y-3.91
X5.575Y-3.96
X5.6193Y-4.424
X5.6205Y-4.3783
X5.675Y-4.83
X5.6752Y-5.3996
X5.7118Y-4.0201
X5.7118Y-4.265
X5.7343Y-5.9469
X5.7681Y-4.3709
X5.79Y-4.63
X5.8Y-4.005
X5.8025Y-4.19
X5.815Y-4.4134
X5.8307Y-4.5134
X5.8681Y-5.8484
X5.876Y-5.3524
X5.8799Y-3.939
X5.8858Y-4.5157
X5.8898Y-3.8524
X5.9Y-4.635
X5.9035Y-6.2362
X5.9125Y-4.1575
X5.915Y-4.58
X5.92Y-4.46
X5.9213Y-4.2043
X5.935Y-6.0354
X5.9429Y-4.002
X5.955Y-4.27
X5.9599Y-4.4595
X5.974Y-4.5913
X5.9941Y-5.7067
X6.0Y-4.5062
X6.0118Y-4.2955
X6.0157Y-4.1319
X6.0217Y-4.2087
X6.025Y-4.45
X6.0276Y-3.9488
X6.0295Y-3.8543
X6.04Y-4.59
X6.0425Y-4.3203
X6.045Y-4.695
X6.0625Y-4.4525
X6.0798Y-4.345
X6.0945Y-4.0039
X6.1024Y-6.185
X6.1025Y-4.5309
X6.1063Y-5.8484
X6.1083Y-4.1358
X6.1102Y-4.2008
X6.1339Y-3.8543
X6.1339Y-3.9469
X6.135Y-4.345
X6.1378Y-5.3366
X6.1457Y-6.0295
X6.1732Y-5.5453
X6.22Y-4.78
X6.2375Y-4.5325
X6.245Y-4.585
X6.245Y-4.66
X6.2598Y-4.2421
X6.2676Y-4.6974
X6.2717Y-3.7106
X6.2717Y-4.3425
X6.2835Y-3.6496
X6.2854Y-3.5886
X6.2972Y-5.6673
X6.3031Y-4.2008
X6.313Y-6.126
X6.3228Y-4.3031
X6.3228Y-5.935
X6.34Y-4.73
X6.34Y-4.795
X6.3445Y-4.1614
X6.3602Y-4.2638
X6.37Y-4.1175
X6.4016Y-4.2244
X6.437Y-4.185
X6.445Y-4.66
X6.4685Y-5.4862
X6.4724Y-4.1535
X6.4724Y-6.0354
X6.4862Y-4.0276
X6.4975Y-5.2325
X6.5039Y-4.1201
X6.5118Y-5.8307
X6.5197Y-5.7047
X6.5453Y-4.0276
X6.5575Y-4.8825
X6.5665Y-4.522
X6.5689Y-4.435
X6.5886Y-4.0295
X6.6175Y-5.15
X6.6299Y-6.0217
X6.6417Y-5.5689
X6.6535Y-5.8799
X6.715Y-5.15
X6.75Y-4.7
X6.7539Y-4.1201
X6.7591Y-4.5299
X6.7633Y-5.2383
X6.7736Y-4.4449
X6.775Y-4.925
X6.7759Y-5.371
X6.7795Y-6.0256
X6.8051Y-4.0157
X6.8071Y-5.4154
X6.8134Y-4.6067
X6.8189Y-4.122
X6.8189Y-5.5846
X6.8292Y-5.1025
X6.8335Y-5.0394
X6.8406Y-5.8386
X6.8429Y-4.9902
X6.8606Y-4.7299
X6.8705Y-5.1866
X6.8713Y-4.1457
X6.876Y-4.811
X6.9106Y-4.1783
X6.9193Y-6.0669
X6.9449Y-4.0787
X6.9508Y-4.2224
X6.9921Y-4.124
X6.9941Y-5.6831
X7.002Y-4.2638
X7.015Y-4.17
X7.0354Y-4.2972
X7.0689Y-4.1929
X7.0807Y-5.872
X7.1201Y-4.248
X7.1398Y-5.6575
X7.1437Y-4.311
X7.2579Y-5.6339
T2
X5.525Y-4.973
X5.525Y-5.0293
X5.575Y-4.973
X5.575Y-5.0293
X5.625Y-4.973
X5.625Y-5.0293
X5.675Y-4.973
X5.675Y-5.0293
X5.725Y-4.973
X5.725Y-5.0293
X5.775Y-4.973
X5.775Y-5.0293
X5.825Y-4.973
X5.825Y-5.0293
X5.875Y-4.973
X5.875Y-5.0293
X5.925Y-4.973
X5.925Y-5.0293
X5.975Y-4.973
X5.975Y-5.0293
X6.025Y-4.973
X6.025Y-5.0293
X6.075Y-4.973
X6.075Y-5.0293
X6.125Y-4.973
X6.125Y-5.0293
X6.175Y-4.973
X6.175Y-5.0293
X6.225Y-4.973
X6.225Y-5.0293
X6.275Y-4.973
X6.275Y-5.0293
X6.325Y-4.973
X6.325Y-5.0293
X6.375Y-4.973
X6.375Y-5.0293
X6.425Y-4.973
X6.425Y-5.0293
X6.475Y-4.973
X6.475Y-5.0293
T3
X5.7871Y-5.4865
X5.8646Y-5.4729
X5.9375Y-6.3395
X5.9422Y-5.4592
X6.015Y-6.3258
X6.0197Y-5.4455
X6.0926Y-6.3122
X6.0973Y-5.4318
X6.1701Y-6.2985
X6.1748Y-5.4182
X6.2477Y-6.2848
X6.2524Y-5.4045
X6.3252Y-6.2712
X6.3299Y-5.3908
X6.4028Y-6.2575
X6.4074Y-5.3772
X6.4803Y-6.2438
X6.485Y-5.3635
X6.5578Y-6.2301
X6.6354Y-6.2165
T4
X6.385Y-3.665
X6.385Y-3.765
X5.1Y-6.065
X5.1866Y-6.115
X5.2732Y-6.165
X5.3598Y-6.215
X5.4464Y-6.265
X5.533Y-6.315
X6.385Y-3.9175
X6.385Y-4.0175
X6.702Y-3.7836
X6.7786Y-3.8479
X6.8552Y-3.9122
X6.9318Y-3.9764
X7.0084Y-4.0407
X7.085Y-4.105
X5.79Y-4.745
X5.89Y-4.745
X5.99Y-4.745
T5
X7.0496Y-4.5528
X7.2228Y-4.5528
T0
M30
