G04 #@! TF.GenerationSoftware,KiCad,Pcbnew,(5.1.4)-1*
G04 #@! TF.CreationDate,2020-01-28T12:58:01-05:00*
G04 #@! TF.ProjectId,MASA-Radio Board,4d415341-2d52-4616-9469-6f20426f6172,rev?*
G04 #@! TF.SameCoordinates,Original*
G04 #@! TF.FileFunction,Copper,L3,Inr*
G04 #@! TF.FilePolarity,Positive*
%FSLAX46Y46*%
G04 Gerber Fmt 4.6, Leading zero omitted, Abs format (unit mm)*
G04 Created by KiCad (PCBNEW (5.1.4)-1) date 2020-01-28 12:58:01*
%MOMM*%
%LPD*%
G04 APERTURE LIST*
%ADD10C,2.100000*%
%ADD11C,1.700000*%
%ADD12C,0.100000*%
%ADD13C,1.700000*%
%ADD14O,1.700000X1.700000*%
%ADD15R,1.700000X1.700000*%
%ADD16R,0.740000X2.920000*%
%ADD17C,0.800000*%
%ADD18C,0.203200*%
%ADD19C,0.254000*%
%ADD20C,0.381000*%
G04 APERTURE END LIST*
D10*
X183460000Y-115640000D03*
X179060000Y-115640000D03*
D11*
X179959000Y-104267000D03*
D12*
G36*
X179854232Y-103069493D02*
G01*
X181156507Y-104162232D01*
X180063768Y-105464507D01*
X178761493Y-104371768D01*
X179854232Y-103069493D01*
X179854232Y-103069493D01*
G37*
D11*
X178013247Y-102634319D03*
D13*
X178013247Y-102634319D02*
X178013247Y-102634319D01*
D11*
X176067494Y-101001639D03*
D13*
X176067494Y-101001639D02*
X176067494Y-101001639D01*
D11*
X174121741Y-99368958D03*
D13*
X174121741Y-99368958D02*
X174121741Y-99368958D01*
D11*
X172175988Y-97736278D03*
D13*
X172175988Y-97736278D02*
X172175988Y-97736278D01*
D11*
X170230236Y-96103597D03*
D13*
X170230236Y-96103597D02*
X170230236Y-96103597D01*
D11*
X168538847Y-157898111D03*
X166569231Y-158245407D03*
X164599616Y-158592703D03*
X162630000Y-158940000D03*
X160660385Y-159287296D03*
X158690769Y-159634592D03*
X156721154Y-159981889D03*
X154751538Y-160329185D03*
X152781923Y-160676482D03*
X150812307Y-161023778D03*
X146992047Y-139358007D03*
X148961663Y-139010711D03*
X150931278Y-138663415D03*
X152900894Y-138316118D03*
X154870509Y-137968822D03*
X156840125Y-137621526D03*
X158809740Y-137274229D03*
X160779356Y-136926933D03*
X162748971Y-136579636D03*
X164718587Y-136232340D03*
D14*
X162179000Y-93091000D03*
D15*
X162179000Y-95631000D03*
D11*
X140538523Y-160401000D03*
D13*
X140538523Y-160401000D02*
X140538523Y-160401000D01*
D11*
X138338818Y-159131000D03*
D13*
X138338818Y-159131000D02*
X138338818Y-159131000D01*
D11*
X136139114Y-157861000D03*
D13*
X136139114Y-157861000D02*
X136139114Y-157861000D01*
D11*
X133939409Y-156591000D03*
D13*
X133939409Y-156591000D02*
X133939409Y-156591000D01*
D11*
X131739705Y-155321000D03*
D13*
X131739705Y-155321000D02*
X131739705Y-155321000D01*
D11*
X129540000Y-154051000D03*
D12*
G36*
X129851122Y-155212122D02*
G01*
X128378878Y-154362122D01*
X129228878Y-152889878D01*
X130701122Y-153739878D01*
X129851122Y-155212122D01*
X129851122Y-155212122D01*
G37*
D14*
X152146000Y-120523000D03*
X149606000Y-120523000D03*
D15*
X147066000Y-120523000D03*
D14*
X162179000Y-102044500D03*
D15*
X162179000Y-99504500D03*
D16*
X164465000Y-125314200D03*
X164465000Y-128744200D03*
X163195000Y-125314200D03*
X163195000Y-128744200D03*
X161925000Y-125314200D03*
X161925000Y-128744200D03*
X160655000Y-125314200D03*
X160655000Y-128744200D03*
X159385000Y-125314200D03*
X159385000Y-128744200D03*
X158115000Y-125314200D03*
X158115000Y-128744200D03*
X156845000Y-125314200D03*
X156845000Y-128744200D03*
X155575000Y-125314200D03*
X155575000Y-128744200D03*
X154305000Y-125314200D03*
X154305000Y-128744200D03*
X153035000Y-125314200D03*
X153035000Y-128744200D03*
X151765000Y-125314200D03*
X151765000Y-128744200D03*
X150495000Y-125314200D03*
X150495000Y-128744200D03*
X149225000Y-125314200D03*
X149225000Y-128744200D03*
X147955000Y-125314200D03*
X147955000Y-128744200D03*
X146685000Y-125314200D03*
X146685000Y-128744200D03*
X145415000Y-125314200D03*
X145415000Y-128744200D03*
X144145000Y-125314200D03*
X144145000Y-128744200D03*
X142875000Y-125314200D03*
X142875000Y-128744200D03*
X141605000Y-125314200D03*
X141605000Y-128744200D03*
X140335000Y-125314200D03*
X140335000Y-128744200D03*
D17*
X118970000Y-135490000D03*
X121412000Y-127635000D03*
X157988000Y-121412000D03*
X147066000Y-117602000D03*
X131826000Y-96393000D03*
X133477000Y-96520000D03*
X136144000Y-96520000D03*
X141605000Y-99314000D03*
X141605000Y-100584000D03*
X141605000Y-97663000D03*
X161036000Y-121793000D03*
X161036000Y-120142000D03*
X158623000Y-118364000D03*
X163703000Y-118364000D03*
X172085000Y-125095000D03*
X174260000Y-120140000D03*
X170561000Y-130810000D03*
X139700000Y-132207000D03*
X136080000Y-132470000D03*
X136398000Y-138684000D03*
X129413000Y-133477000D03*
X123660000Y-137330000D03*
X120015000Y-132080000D03*
X121150000Y-134870000D03*
X119507000Y-142748000D03*
X127508000Y-128270000D03*
X123825000Y-128143000D03*
X135700000Y-130150000D03*
X138782653Y-120376046D03*
X173462005Y-129602926D03*
X171450000Y-119380000D03*
X153416000Y-116586000D03*
X134493000Y-118364000D03*
X178181000Y-105918000D03*
X149860000Y-117729000D03*
X144145000Y-122682000D03*
X155829000Y-110363000D03*
X153035000Y-113030000D03*
X147383500Y-106426000D03*
X128016000Y-136461500D03*
X124206000Y-139192000D03*
X131000500Y-135255000D03*
X127530000Y-130810000D03*
X130175000Y-127762000D03*
X125031500Y-144335500D03*
X134683500Y-124333000D03*
X135890000Y-125730000D03*
X165036500Y-132905500D03*
X168084500Y-130810000D03*
X166560500Y-124015500D03*
X153543000Y-119253000D03*
X124968000Y-142494000D03*
X150177500Y-105600500D03*
X122618500Y-114681000D03*
X166790000Y-114860000D03*
X171680000Y-115060000D03*
X149500000Y-114700000D03*
X164750000Y-102300000D03*
X166250000Y-102300000D03*
X172850000Y-102000000D03*
X176400000Y-103600000D03*
X177600000Y-104750000D03*
X179550000Y-106500000D03*
X180850000Y-107900000D03*
X181450000Y-109500000D03*
X171550000Y-104650000D03*
X173200000Y-104700000D03*
X174530000Y-105300000D03*
X175530000Y-106130000D03*
X176550000Y-107250000D03*
X177850000Y-108300000D03*
X178700000Y-109150000D03*
X161150000Y-105700000D03*
X160100000Y-106700000D03*
X159000000Y-107750000D03*
X160600000Y-109300000D03*
X159300000Y-110300000D03*
X161550000Y-108300000D03*
X162600000Y-107300000D03*
X163500000Y-106300000D03*
X164400000Y-105500000D03*
X165200000Y-104650000D03*
X167350000Y-102350000D03*
X177650000Y-144350000D03*
X181350000Y-143700000D03*
X184350000Y-143100000D03*
X179850000Y-149150000D03*
X175750000Y-154100000D03*
X172200000Y-153050000D03*
X173750000Y-148300000D03*
X169000000Y-149350000D03*
X168400000Y-152950000D03*
X164400000Y-153300000D03*
X160350000Y-155600000D03*
X155000000Y-157100000D03*
X149950000Y-158400000D03*
X156100000Y-153150000D03*
X160600000Y-150750000D03*
X165400000Y-148100000D03*
X165600000Y-144900000D03*
X168700000Y-141450000D03*
X173200000Y-141850000D03*
X172900000Y-137550000D03*
X164300000Y-139350000D03*
X159950000Y-143950000D03*
X155100000Y-148550000D03*
X150750000Y-153300000D03*
X156800000Y-140850000D03*
X152250000Y-144950000D03*
X149050000Y-148550000D03*
X145650000Y-151050000D03*
X141550000Y-154050000D03*
X137300000Y-153650000D03*
X134500000Y-151900000D03*
X131300000Y-150300000D03*
X127400000Y-150550000D03*
X123850000Y-148700000D03*
X129300000Y-148050000D03*
X134550000Y-148450000D03*
X137550000Y-148950000D03*
X140100000Y-148050000D03*
X138900000Y-143450000D03*
X139050000Y-139150000D03*
X144150000Y-137150000D03*
X149250000Y-135950000D03*
X155900000Y-135550000D03*
X116800000Y-133700000D03*
X117250000Y-129450000D03*
X118050000Y-122800000D03*
X118700000Y-118800000D03*
X120300000Y-113400000D03*
X122050000Y-108650000D03*
X124100000Y-119250000D03*
X123900000Y-123300000D03*
X131850000Y-123700000D03*
X128750000Y-104300000D03*
X134450000Y-104550000D03*
X130900000Y-102050000D03*
X149600000Y-97850000D03*
X153150000Y-97900000D03*
X155800000Y-97900000D03*
X155800000Y-100250000D03*
X153100000Y-100300000D03*
X149350000Y-100050000D03*
X150950000Y-101650000D03*
X154800000Y-101700000D03*
X152800000Y-104950000D03*
X155150000Y-105050000D03*
X155200000Y-106700000D03*
X152950000Y-106900000D03*
X166850000Y-112650000D03*
X172050000Y-112900000D03*
X174650000Y-122200000D03*
X128650000Y-107450000D03*
X128650000Y-110800000D03*
X131400000Y-110850000D03*
X131450000Y-107600000D03*
X137600000Y-107500000D03*
X141100000Y-107050000D03*
X159650000Y-91150000D03*
X159600000Y-92700000D03*
X159300000Y-94250000D03*
X145080000Y-102110000D03*
X147700000Y-112100000D03*
X146510000Y-111020000D03*
X137033000Y-119888000D03*
X139446000Y-118364000D03*
X139594900Y-122660100D03*
X121031000Y-137160000D03*
X124079000Y-133477000D03*
X128270000Y-133477000D03*
X130175000Y-99949000D03*
X171788177Y-133053177D03*
X132170000Y-148110000D03*
X150241000Y-116332000D03*
X129710000Y-129430000D03*
X153987500Y-113093500D03*
X161798000Y-104584500D03*
X158623000Y-116459000D03*
X123520000Y-130910000D03*
X172107500Y-136422500D03*
X148100000Y-114640000D03*
X151740000Y-116620000D03*
X142760000Y-111210000D03*
X126746000Y-114554000D03*
X152700889Y-109106225D03*
X127889000Y-114681000D03*
X153479500Y-109734825D03*
X154426471Y-110363425D03*
X129032000Y-114681000D03*
X155003500Y-115085801D03*
X152400000Y-114457201D03*
X151380654Y-113271349D03*
X150368000Y-113284000D03*
X130429000Y-114681000D03*
X135826500Y-114109500D03*
X150400000Y-106790000D03*
X145080000Y-108330000D03*
X140271500Y-114236500D03*
X128968500Y-124142500D03*
X139065000Y-114173000D03*
X127698500Y-124142500D03*
X137096500Y-114109500D03*
X126682500Y-124142500D03*
X131549500Y-136756500D03*
X129413000Y-143764000D03*
X159197000Y-119314000D03*
X158432500Y-115125500D03*
X147320000Y-101727000D03*
X151257000Y-108458000D03*
X174510000Y-131740000D03*
X173570000Y-128000000D03*
X173060000Y-117010000D03*
X173810000Y-126750000D03*
X142730000Y-112370000D03*
D18*
X137033000Y-119888000D02*
X137033000Y-120142000D01*
X139315071Y-123310601D02*
X160407399Y-123310601D01*
X137033000Y-119888000D02*
X137033000Y-121028530D01*
X137033000Y-121028530D02*
X139315071Y-123310601D01*
X160655000Y-123558202D02*
X160655000Y-126314200D01*
X160407399Y-123310601D02*
X160655000Y-123558202D01*
X160655000Y-126474200D02*
X161925000Y-127744200D01*
X160655000Y-126314200D02*
X160655000Y-126474200D01*
X161925000Y-127584200D02*
X163195000Y-126314200D01*
X161925000Y-127744200D02*
X161925000Y-127584200D01*
X163195000Y-126474200D02*
X164465000Y-127744200D01*
X163195000Y-126314200D02*
X163195000Y-126474200D01*
D19*
X139594900Y-122660100D02*
X139594900Y-118512900D01*
D18*
X140335000Y-126474200D02*
X141605000Y-127744200D01*
X140335000Y-126314200D02*
X140335000Y-126474200D01*
X141605000Y-127584200D02*
X142875000Y-126314200D01*
X141605000Y-127744200D02*
X141605000Y-127584200D01*
X142875000Y-126474200D02*
X144145000Y-127744200D01*
X142875000Y-126314200D02*
X142875000Y-126474200D01*
D19*
X139594900Y-118512900D02*
X139446000Y-118364000D01*
D18*
X121031000Y-137160000D02*
X123348750Y-134842250D01*
X124079000Y-134112000D02*
X124079000Y-133477000D01*
X124079000Y-133477000D02*
X128270000Y-133477000D01*
X170735753Y-134105601D02*
X171788177Y-133053177D01*
X128270000Y-133477000D02*
X128898601Y-134105601D01*
X128898601Y-134105601D02*
X170735753Y-134105601D01*
X123348750Y-134842250D02*
X124079000Y-134112000D01*
X128270000Y-133477000D02*
X125920500Y-131127500D01*
X125920500Y-104140000D02*
X126428500Y-103632000D01*
X125920500Y-131127500D02*
X125920500Y-104140000D01*
X126428500Y-103632000D02*
X130175000Y-99949000D01*
X151340001Y-115609671D02*
X149760330Y-114030000D01*
X151740000Y-116620000D02*
X151340001Y-116220001D01*
X151340001Y-116220001D02*
X151340001Y-115609671D01*
X149760330Y-114030000D02*
X148400000Y-114030000D01*
X143170685Y-111205000D02*
X145575000Y-111205000D01*
X143165685Y-111210000D02*
X143170685Y-111205000D01*
X142760000Y-111210000D02*
X143165685Y-111210000D01*
X148244315Y-113930000D02*
X148300000Y-113930000D01*
X148100000Y-114074315D02*
X148244315Y-113930000D01*
X148100000Y-114640000D02*
X148100000Y-114074315D01*
X148400000Y-114030000D02*
X148300000Y-113930000D01*
X148300000Y-113930000D02*
X145575000Y-111205000D01*
X128600210Y-112699790D02*
X128575000Y-112725000D01*
X137440210Y-112699790D02*
X128600210Y-112699790D01*
X141033775Y-109106225D02*
X137440210Y-112699790D01*
X152700889Y-109106225D02*
X141033775Y-109106225D01*
X126746000Y-114554000D02*
X128575000Y-112725000D01*
X141015175Y-109734825D02*
X153479500Y-109734825D01*
X137720000Y-113030000D02*
X141015175Y-109734825D01*
X127889000Y-114681000D02*
X129540000Y-113030000D01*
X129540000Y-113030000D02*
X137720000Y-113030000D01*
X130232101Y-113480899D02*
X129032000Y-114681000D01*
X137905951Y-113480899D02*
X130232101Y-113480899D01*
X154426471Y-110363425D02*
X141023425Y-110363425D01*
X141023425Y-110363425D02*
X137905951Y-113480899D01*
X156630699Y-115085801D02*
X155003500Y-115085801D01*
X173271742Y-100218957D02*
X172831043Y-100218957D01*
X174121741Y-99368958D02*
X173271742Y-100218957D01*
X172831043Y-100218957D02*
X158553101Y-114496899D01*
X158553101Y-114496899D02*
X158103101Y-114496899D01*
X158103101Y-114496899D02*
X157514199Y-115085801D01*
X157514199Y-115085801D02*
X156630699Y-115085801D01*
X172175988Y-97736278D02*
X172175988Y-98778512D01*
X152965685Y-114457201D02*
X152400000Y-114457201D01*
X157592800Y-114457200D02*
X152965685Y-114457201D01*
X171325989Y-100724011D02*
X157592800Y-114457200D01*
X172175988Y-97736278D02*
X171325989Y-98586277D01*
X171325989Y-98586277D02*
X171325989Y-100724011D01*
D19*
X151380654Y-113271349D02*
X151380654Y-113280654D01*
D18*
X170230236Y-99898764D02*
X170230236Y-96103597D01*
X170230236Y-100600094D02*
X170230236Y-99898764D01*
X157001729Y-113828601D02*
X170230236Y-100600094D01*
X151937906Y-113828601D02*
X157001729Y-113828601D01*
X151380654Y-113271349D02*
X151937906Y-113828601D01*
X150368000Y-113849685D02*
X152232717Y-115714402D01*
X150368000Y-113284000D02*
X150368000Y-113849685D01*
X152232717Y-115714402D02*
X158732598Y-115714402D01*
X171812681Y-102634319D02*
X178013247Y-102634319D01*
X158732598Y-115714402D02*
X171812681Y-102634319D01*
X130429000Y-114681000D02*
X130828999Y-114281001D01*
X130828999Y-114281001D02*
X131000500Y-114109500D01*
X131000500Y-114109500D02*
X135826500Y-114109500D01*
X140271500Y-114236500D02*
X139871501Y-114636499D01*
X139871501Y-114636499D02*
X136842500Y-117665500D01*
X134261170Y-117665500D02*
X128968500Y-122958170D01*
X136842500Y-117665500D02*
X134261170Y-117665500D01*
X128968500Y-122958170D02*
X128968500Y-124142500D01*
X128968500Y-124142500D02*
X128968500Y-124206000D01*
X145080000Y-108330000D02*
X148880000Y-108330000D01*
X148880000Y-108330000D02*
X150430000Y-106780000D01*
X139065000Y-114173000D02*
X136144000Y-117094000D01*
X136144000Y-117094000D02*
X133794500Y-117094000D01*
X133794500Y-117094000D02*
X127698500Y-123190000D01*
X127698500Y-123190000D02*
X127698500Y-124142500D01*
X127698500Y-124142500D02*
X127698500Y-124142500D01*
X137096500Y-114109500D02*
X134937500Y-116268500D01*
X133477000Y-116268500D02*
X126682500Y-123063000D01*
X134937500Y-116268500D02*
X133477000Y-116268500D01*
X126682500Y-123063000D02*
X126682500Y-124142500D01*
X126682500Y-124142500D02*
X126682500Y-124142500D01*
D20*
X131549500Y-141627500D02*
X131549500Y-136756500D01*
X129413000Y-143764000D02*
X131549500Y-141627500D01*
D18*
X172840601Y-132889729D02*
X172840601Y-129911852D01*
X172840601Y-129911852D02*
X172713601Y-129784852D01*
X133939409Y-156591000D02*
X149139330Y-156591000D01*
X149139330Y-156591000D02*
X172840601Y-132889729D01*
X170313399Y-117100399D02*
X172720000Y-119507000D01*
X161138330Y-119314000D02*
X163351931Y-117100399D01*
X172713601Y-129784852D02*
X172720000Y-119507000D01*
X159197000Y-119314000D02*
X161138330Y-119314000D01*
X163351931Y-117100399D02*
X170313399Y-117100399D01*
X174865413Y-101001639D02*
X176067494Y-101001639D01*
X172614046Y-101001639D02*
X174865413Y-101001639D01*
X158553685Y-115062000D02*
X172614046Y-101001639D01*
X151257000Y-105664000D02*
X147320000Y-101727000D01*
X151257000Y-108458000D02*
X151257000Y-105664000D01*
X174498000Y-128928000D02*
X173570000Y-128000000D01*
X174498000Y-131445000D02*
X174498000Y-128928000D01*
X170229986Y-116550000D02*
X173050208Y-119370222D01*
X159506670Y-116550000D02*
X170229986Y-116550000D01*
X158236670Y-117820000D02*
X159506670Y-116550000D01*
X151450000Y-117820000D02*
X158236670Y-117820000D01*
X142730000Y-112370000D02*
X145890000Y-112370000D01*
X146720000Y-113200000D02*
X146720000Y-116325670D01*
X146720000Y-116325670D02*
X149104330Y-118710000D01*
X173050208Y-119370222D02*
X173050208Y-125990208D01*
X145890000Y-112370000D02*
X146720000Y-113200000D01*
X149104330Y-118710000D02*
X150560000Y-118710000D01*
X173050208Y-125990208D02*
X173810000Y-126750000D01*
X150560000Y-118710000D02*
X151450000Y-117820000D01*
X173050208Y-117515477D02*
X173050208Y-119370222D01*
X173060000Y-117505685D02*
X173050208Y-117515477D01*
X173060000Y-117010000D02*
X173060000Y-117505685D01*
D19*
G36*
X157938218Y-89987673D02*
G01*
X160315174Y-90422218D01*
X162659105Y-91009239D01*
X164960305Y-91746307D01*
X167209129Y-92630336D01*
X169396213Y-93657641D01*
X171512443Y-94823943D01*
X173549010Y-96124386D01*
X175497384Y-97553524D01*
X177349500Y-99105437D01*
X179097588Y-100773621D01*
X180734391Y-102551147D01*
X182253070Y-104430589D01*
X183647308Y-106404128D01*
X184911274Y-108463517D01*
X186039711Y-110600183D01*
X187027909Y-112805209D01*
X187871753Y-115069414D01*
X188567725Y-117383362D01*
X189113035Y-119737880D01*
X189365774Y-121260000D01*
X175800419Y-121260000D01*
X175768000Y-121256807D01*
X175735581Y-121260000D01*
X175638617Y-121269550D01*
X175514207Y-121307290D01*
X175399550Y-121368575D01*
X175299052Y-121451052D01*
X175216575Y-121551550D01*
X175155290Y-121666207D01*
X175117550Y-121790617D01*
X175104807Y-121920000D01*
X175108000Y-121952419D01*
X175108000Y-128510178D01*
X175021375Y-128404625D01*
X174993269Y-128381559D01*
X174605000Y-127993290D01*
X174605000Y-127898061D01*
X174565226Y-127698102D01*
X174495043Y-127528668D01*
X174613937Y-127409774D01*
X174727205Y-127240256D01*
X174805226Y-127051898D01*
X174845000Y-126851939D01*
X174845000Y-126648061D01*
X174805226Y-126448102D01*
X174727205Y-126259744D01*
X174613937Y-126090226D01*
X174469774Y-125946063D01*
X174300256Y-125832795D01*
X174111898Y-125754774D01*
X173911939Y-125715000D01*
X173816709Y-125715000D01*
X173786808Y-125685099D01*
X173786808Y-119406397D01*
X173790371Y-119370221D01*
X173786808Y-119334045D01*
X173786808Y-117746903D01*
X173863937Y-117669774D01*
X173977205Y-117500256D01*
X174055226Y-117311898D01*
X174095000Y-117111939D01*
X174095000Y-116908061D01*
X174075707Y-116811066D01*
X178068539Y-116811066D01*
X178170339Y-117080579D01*
X178468477Y-117226463D01*
X178789346Y-117311380D01*
X179120617Y-117332066D01*
X179449557Y-117287728D01*
X179763527Y-117180069D01*
X179949661Y-117080579D01*
X180051461Y-116811066D01*
X182468539Y-116811066D01*
X182570339Y-117080579D01*
X182868477Y-117226463D01*
X183189346Y-117311380D01*
X183520617Y-117332066D01*
X183849557Y-117287728D01*
X184163527Y-117180069D01*
X184349661Y-117080579D01*
X184451461Y-116811066D01*
X183460000Y-115819605D01*
X182468539Y-116811066D01*
X180051461Y-116811066D01*
X179060000Y-115819605D01*
X178068539Y-116811066D01*
X174075707Y-116811066D01*
X174055226Y-116708102D01*
X173977205Y-116519744D01*
X173863937Y-116350226D01*
X173719774Y-116206063D01*
X173550256Y-116092795D01*
X173361898Y-116014774D01*
X173161939Y-115975000D01*
X172958061Y-115975000D01*
X172758102Y-116014774D01*
X172569744Y-116092795D01*
X172400226Y-116206063D01*
X172256063Y-116350226D01*
X172142795Y-116519744D01*
X172064774Y-116708102D01*
X172025000Y-116908061D01*
X172025000Y-117111939D01*
X172064774Y-117311898D01*
X172086822Y-117365127D01*
X170776432Y-116054737D01*
X170753361Y-116026625D01*
X170641199Y-115934576D01*
X170513235Y-115866178D01*
X170374385Y-115824058D01*
X170266172Y-115813400D01*
X170266169Y-115813400D01*
X170229986Y-115809836D01*
X170193803Y-115813400D01*
X159675309Y-115813400D01*
X159788092Y-115700617D01*
X177367934Y-115700617D01*
X177412272Y-116029557D01*
X177519931Y-116343527D01*
X177619421Y-116529661D01*
X177888934Y-116631461D01*
X178880395Y-115640000D01*
X179239605Y-115640000D01*
X180231066Y-116631461D01*
X180500579Y-116529661D01*
X180646463Y-116231523D01*
X180731380Y-115910654D01*
X180744495Y-115700617D01*
X181767934Y-115700617D01*
X181812272Y-116029557D01*
X181919931Y-116343527D01*
X182019421Y-116529661D01*
X182288934Y-116631461D01*
X183280395Y-115640000D01*
X183639605Y-115640000D01*
X184631066Y-116631461D01*
X184900579Y-116529661D01*
X185046463Y-116231523D01*
X185131380Y-115910654D01*
X185152066Y-115579383D01*
X185107728Y-115250443D01*
X185000069Y-114936473D01*
X184900579Y-114750339D01*
X184631066Y-114648539D01*
X183639605Y-115640000D01*
X183280395Y-115640000D01*
X182288934Y-114648539D01*
X182019421Y-114750339D01*
X181873537Y-115048477D01*
X181788620Y-115369346D01*
X181767934Y-115700617D01*
X180744495Y-115700617D01*
X180752066Y-115579383D01*
X180707728Y-115250443D01*
X180600069Y-114936473D01*
X180500579Y-114750339D01*
X180231066Y-114648539D01*
X179239605Y-115640000D01*
X178880395Y-115640000D01*
X177888934Y-114648539D01*
X177619421Y-114750339D01*
X177473537Y-115048477D01*
X177388620Y-115369346D01*
X177367934Y-115700617D01*
X159788092Y-115700617D01*
X161019775Y-114468934D01*
X178068539Y-114468934D01*
X179060000Y-115460395D01*
X180051461Y-114468934D01*
X182468539Y-114468934D01*
X183460000Y-115460395D01*
X184451461Y-114468934D01*
X184349661Y-114199421D01*
X184051523Y-114053537D01*
X183730654Y-113968620D01*
X183399383Y-113947934D01*
X183070443Y-113992272D01*
X182756473Y-114099931D01*
X182570339Y-114199421D01*
X182468539Y-114468934D01*
X180051461Y-114468934D01*
X179949661Y-114199421D01*
X179651523Y-114053537D01*
X179330654Y-113968620D01*
X178999383Y-113947934D01*
X178670443Y-113992272D01*
X178356473Y-114099931D01*
X178170339Y-114199421D01*
X178068539Y-114468934D01*
X161019775Y-114468934D01*
X166484739Y-109003970D01*
X167986613Y-109003970D01*
X167986613Y-109436030D01*
X168070904Y-109859787D01*
X168236246Y-110258958D01*
X168476285Y-110618203D01*
X168781797Y-110923715D01*
X169141042Y-111163754D01*
X169540213Y-111329096D01*
X169963970Y-111413387D01*
X170396030Y-111413387D01*
X170819787Y-111329096D01*
X171218958Y-111163754D01*
X171578203Y-110923715D01*
X171883715Y-110618203D01*
X172123754Y-110258958D01*
X172289096Y-109859787D01*
X172373387Y-109436030D01*
X172373387Y-109003970D01*
X172289096Y-108580213D01*
X172123754Y-108181042D01*
X171883715Y-107821797D01*
X171578203Y-107516285D01*
X171218958Y-107276246D01*
X170819787Y-107110904D01*
X170396030Y-107026613D01*
X169963970Y-107026613D01*
X169540213Y-107110904D01*
X169141042Y-107276246D01*
X168781797Y-107516285D01*
X168476285Y-107821797D01*
X168236246Y-108181042D01*
X168070904Y-108580213D01*
X167986613Y-109003970D01*
X166484739Y-109003970D01*
X170124109Y-105364600D01*
X179203791Y-105364600D01*
X179223358Y-105588253D01*
X179653624Y-105953299D01*
X179756863Y-106023923D01*
X179871896Y-106073048D01*
X179994304Y-106098787D01*
X180119380Y-106100151D01*
X180242319Y-106077088D01*
X180358397Y-106030485D01*
X180463153Y-105962130D01*
X180552560Y-105874652D01*
X180912899Y-105440437D01*
X180893332Y-105216785D01*
X179974654Y-104445922D01*
X179203791Y-105364600D01*
X170124109Y-105364600D01*
X172117791Y-103370919D01*
X176723145Y-103370919D01*
X176772541Y-103463333D01*
X176958113Y-103689453D01*
X177184233Y-103875025D01*
X177442213Y-104012918D01*
X177722136Y-104097832D01*
X177940297Y-104119319D01*
X178086197Y-104119319D01*
X178182888Y-104109796D01*
X178152952Y-104179896D01*
X178127213Y-104302304D01*
X178125849Y-104427380D01*
X178148912Y-104550319D01*
X178195515Y-104666397D01*
X178263870Y-104771153D01*
X178351348Y-104860560D01*
X178785563Y-105220899D01*
X179009215Y-105201332D01*
X179780078Y-104282654D01*
X179764757Y-104269798D01*
X179780240Y-104251346D01*
X180137922Y-104251346D01*
X181056600Y-105022209D01*
X181280253Y-105002642D01*
X181645299Y-104572376D01*
X181715923Y-104469137D01*
X181765048Y-104354104D01*
X181790787Y-104231696D01*
X181792151Y-104106620D01*
X181769088Y-103983681D01*
X181722485Y-103867603D01*
X181654130Y-103762847D01*
X181566652Y-103673440D01*
X181132437Y-103313101D01*
X180908785Y-103332668D01*
X180137922Y-104251346D01*
X179780240Y-104251346D01*
X179928026Y-104075223D01*
X179943346Y-104088078D01*
X180714209Y-103169400D01*
X180694642Y-102945747D01*
X180264376Y-102580701D01*
X180161137Y-102510077D01*
X180046104Y-102460952D01*
X179923696Y-102435213D01*
X179798620Y-102433849D01*
X179675681Y-102456912D01*
X179559603Y-102503515D01*
X179496598Y-102544627D01*
X179476760Y-102343208D01*
X179391846Y-102063285D01*
X179253953Y-101805305D01*
X179068381Y-101579185D01*
X178842261Y-101393613D01*
X178584281Y-101255720D01*
X178304358Y-101170806D01*
X178086197Y-101149319D01*
X177940297Y-101149319D01*
X177722136Y-101170806D01*
X177537501Y-101226815D01*
X177559679Y-101001639D01*
X177531007Y-100710528D01*
X177446093Y-100430605D01*
X177308200Y-100172625D01*
X177122628Y-99946505D01*
X176896508Y-99760933D01*
X176638528Y-99623040D01*
X176358605Y-99538126D01*
X176140444Y-99516639D01*
X175994544Y-99516639D01*
X175776383Y-99538126D01*
X175591748Y-99594135D01*
X175613926Y-99368958D01*
X175585254Y-99077847D01*
X175500340Y-98797924D01*
X175362447Y-98539944D01*
X175176875Y-98313824D01*
X174950755Y-98128252D01*
X174692775Y-97990359D01*
X174412852Y-97905445D01*
X174194691Y-97883958D01*
X174048791Y-97883958D01*
X173830630Y-97905445D01*
X173645995Y-97961454D01*
X173668173Y-97736278D01*
X173639501Y-97445167D01*
X173554587Y-97165244D01*
X173416694Y-96907264D01*
X173231122Y-96681144D01*
X173005002Y-96495572D01*
X172747022Y-96357679D01*
X172467099Y-96272765D01*
X172248938Y-96251278D01*
X172103038Y-96251278D01*
X171884877Y-96272765D01*
X171700243Y-96328773D01*
X171722421Y-96103597D01*
X171693749Y-95812486D01*
X171608835Y-95532563D01*
X171470942Y-95274583D01*
X171285370Y-95048463D01*
X171059250Y-94862891D01*
X170801270Y-94724998D01*
X170521347Y-94640084D01*
X170303186Y-94618597D01*
X170157286Y-94618597D01*
X169939125Y-94640084D01*
X169659202Y-94724998D01*
X169401222Y-94862891D01*
X169175102Y-95048463D01*
X168989530Y-95274583D01*
X168851637Y-95532563D01*
X168766723Y-95812486D01*
X168738051Y-96103597D01*
X168766723Y-96394708D01*
X168851637Y-96674631D01*
X168989530Y-96932611D01*
X169175102Y-97158731D01*
X169401222Y-97344303D01*
X169493637Y-97393700D01*
X169493636Y-99862578D01*
X169493636Y-100294984D01*
X156696620Y-113092001D01*
X155022500Y-113092001D01*
X155022500Y-112991561D01*
X154982726Y-112791602D01*
X154904705Y-112603244D01*
X154791437Y-112433726D01*
X154647274Y-112289563D01*
X154477756Y-112176295D01*
X154289398Y-112098274D01*
X154089439Y-112058500D01*
X153885561Y-112058500D01*
X153685602Y-112098274D01*
X153497244Y-112176295D01*
X153327726Y-112289563D01*
X153183563Y-112433726D01*
X153070295Y-112603244D01*
X152992274Y-112791602D01*
X152952500Y-112991561D01*
X152952500Y-113092001D01*
X152400257Y-113092001D01*
X152375880Y-112969451D01*
X152297859Y-112781093D01*
X152184591Y-112611575D01*
X152040428Y-112467412D01*
X151870910Y-112354144D01*
X151682552Y-112276123D01*
X151482593Y-112236349D01*
X151278715Y-112236349D01*
X151078756Y-112276123D01*
X150890398Y-112354144D01*
X150864860Y-112371208D01*
X150858256Y-112366795D01*
X150669898Y-112288774D01*
X150469939Y-112249000D01*
X150266061Y-112249000D01*
X150066102Y-112288774D01*
X149877744Y-112366795D01*
X149708226Y-112480063D01*
X149564063Y-112624226D01*
X149450795Y-112793744D01*
X149372774Y-112982102D01*
X149333000Y-113182061D01*
X149333000Y-113293400D01*
X148705110Y-113293400D01*
X146511734Y-111100025D01*
X153699360Y-111100025D01*
X153766697Y-111167362D01*
X153936215Y-111280630D01*
X154124573Y-111358651D01*
X154324532Y-111398425D01*
X154528410Y-111398425D01*
X154728369Y-111358651D01*
X154916727Y-111280630D01*
X155086245Y-111167362D01*
X155230408Y-111023199D01*
X155343676Y-110853681D01*
X155421697Y-110665323D01*
X155461471Y-110465364D01*
X155461471Y-110261486D01*
X155421697Y-110061527D01*
X155343676Y-109873169D01*
X155230408Y-109703651D01*
X155086245Y-109559488D01*
X154916727Y-109446220D01*
X154728369Y-109368199D01*
X154528410Y-109328425D01*
X154431440Y-109328425D01*
X154396705Y-109244569D01*
X154283437Y-109075051D01*
X154139274Y-108930888D01*
X153969756Y-108817620D01*
X153781398Y-108739599D01*
X153659239Y-108715300D01*
X153618094Y-108615969D01*
X153504826Y-108446451D01*
X153360663Y-108302288D01*
X153191145Y-108189020D01*
X153002787Y-108110999D01*
X152802828Y-108071225D01*
X152598950Y-108071225D01*
X152398991Y-108110999D01*
X152255109Y-108170597D01*
X152252226Y-108156102D01*
X152174205Y-107967744D01*
X152060937Y-107798226D01*
X151993600Y-107730889D01*
X151993600Y-105700186D01*
X151997164Y-105664000D01*
X151982942Y-105519601D01*
X151968231Y-105471106D01*
X151940822Y-105380751D01*
X151872424Y-105252787D01*
X151821968Y-105191306D01*
X151803442Y-105168732D01*
X151803441Y-105168731D01*
X151780375Y-105140625D01*
X151752269Y-105117559D01*
X151117271Y-104482561D01*
X160763000Y-104482561D01*
X160763000Y-104686439D01*
X160802774Y-104886398D01*
X160880795Y-105074756D01*
X160994063Y-105244274D01*
X161138226Y-105388437D01*
X161307744Y-105501705D01*
X161496102Y-105579726D01*
X161696061Y-105619500D01*
X161899939Y-105619500D01*
X162099898Y-105579726D01*
X162288256Y-105501705D01*
X162457774Y-105388437D01*
X162601937Y-105244274D01*
X162715205Y-105074756D01*
X162793226Y-104886398D01*
X162833000Y-104686439D01*
X162833000Y-104482561D01*
X162793226Y-104282602D01*
X162715205Y-104094244D01*
X162601937Y-103924726D01*
X162457774Y-103780563D01*
X162288256Y-103667295D01*
X162099898Y-103589274D01*
X161899939Y-103549500D01*
X161696061Y-103549500D01*
X161496102Y-103589274D01*
X161307744Y-103667295D01*
X161138226Y-103780563D01*
X160994063Y-103924726D01*
X160880795Y-104094244D01*
X160802774Y-104282602D01*
X160763000Y-104482561D01*
X151117271Y-104482561D01*
X148679210Y-102044500D01*
X160686815Y-102044500D01*
X160715487Y-102335611D01*
X160800401Y-102615534D01*
X160938294Y-102873514D01*
X161123866Y-103099634D01*
X161349986Y-103285206D01*
X161607966Y-103423099D01*
X161887889Y-103508013D01*
X162106050Y-103529500D01*
X162251950Y-103529500D01*
X162470111Y-103508013D01*
X162750034Y-103423099D01*
X163008014Y-103285206D01*
X163234134Y-103099634D01*
X163419706Y-102873514D01*
X163557599Y-102615534D01*
X163642513Y-102335611D01*
X163671185Y-102044500D01*
X163642513Y-101753389D01*
X163557599Y-101473466D01*
X163419706Y-101215486D01*
X163234134Y-100989366D01*
X163204313Y-100964893D01*
X163273180Y-100944002D01*
X163383494Y-100885037D01*
X163480185Y-100805685D01*
X163559537Y-100708994D01*
X163618502Y-100598680D01*
X163654812Y-100478982D01*
X163667072Y-100354500D01*
X163667072Y-98654500D01*
X163654812Y-98530018D01*
X163618502Y-98410320D01*
X163559537Y-98300006D01*
X163480185Y-98203315D01*
X163383494Y-98123963D01*
X163273180Y-98064998D01*
X163153482Y-98028688D01*
X163029000Y-98016428D01*
X161329000Y-98016428D01*
X161204518Y-98028688D01*
X161084820Y-98064998D01*
X160974506Y-98123963D01*
X160877815Y-98203315D01*
X160798463Y-98300006D01*
X160739498Y-98410320D01*
X160703188Y-98530018D01*
X160690928Y-98654500D01*
X160690928Y-100354500D01*
X160703188Y-100478982D01*
X160739498Y-100598680D01*
X160798463Y-100708994D01*
X160877815Y-100805685D01*
X160974506Y-100885037D01*
X161084820Y-100944002D01*
X161153687Y-100964893D01*
X161123866Y-100989366D01*
X160938294Y-101215486D01*
X160800401Y-101473466D01*
X160715487Y-101753389D01*
X160686815Y-102044500D01*
X148679210Y-102044500D01*
X148355000Y-101720291D01*
X148355000Y-101625061D01*
X148315226Y-101425102D01*
X148237205Y-101236744D01*
X148123937Y-101067226D01*
X147979774Y-100923063D01*
X147810256Y-100809795D01*
X147621898Y-100731774D01*
X147421939Y-100692000D01*
X147218061Y-100692000D01*
X147018102Y-100731774D01*
X146829744Y-100809795D01*
X146660226Y-100923063D01*
X146516063Y-101067226D01*
X146402795Y-101236744D01*
X146324774Y-101425102D01*
X146285000Y-101625061D01*
X146285000Y-101828939D01*
X146324774Y-102028898D01*
X146402795Y-102217256D01*
X146516063Y-102386774D01*
X146660226Y-102530937D01*
X146829744Y-102644205D01*
X147018102Y-102722226D01*
X147218061Y-102762000D01*
X147313291Y-102762000D01*
X150306290Y-105755000D01*
X150298061Y-105755000D01*
X150098102Y-105794774D01*
X149909744Y-105872795D01*
X149740226Y-105986063D01*
X149596063Y-106130226D01*
X149482795Y-106299744D01*
X149404774Y-106488102D01*
X149365000Y-106688061D01*
X149365000Y-106803290D01*
X148574891Y-107593400D01*
X145807111Y-107593400D01*
X145739774Y-107526063D01*
X145570256Y-107412795D01*
X145381898Y-107334774D01*
X145181939Y-107295000D01*
X144978061Y-107295000D01*
X144778102Y-107334774D01*
X144589744Y-107412795D01*
X144420226Y-107526063D01*
X144276063Y-107670226D01*
X144162795Y-107839744D01*
X144084774Y-108028102D01*
X144045000Y-108228061D01*
X144045000Y-108369625D01*
X141069950Y-108369625D01*
X141033774Y-108366062D01*
X140997598Y-108369625D01*
X140997589Y-108369625D01*
X140889376Y-108380283D01*
X140750526Y-108422403D01*
X140622562Y-108490801D01*
X140510400Y-108582850D01*
X140487329Y-108610962D01*
X137135101Y-111963190D01*
X128636385Y-111963190D01*
X128600209Y-111959627D01*
X128564033Y-111963190D01*
X128564024Y-111963190D01*
X128455811Y-111973848D01*
X128316961Y-112015968D01*
X128188997Y-112084366D01*
X128076835Y-112176415D01*
X128053769Y-112204521D01*
X126739291Y-113519000D01*
X126657100Y-113519000D01*
X126657100Y-108995890D01*
X132344573Y-108995890D01*
X132344573Y-109444110D01*
X132432016Y-109883718D01*
X132603543Y-110297819D01*
X132852560Y-110670500D01*
X133169500Y-110987440D01*
X133542181Y-111236457D01*
X133956282Y-111407984D01*
X134395890Y-111495427D01*
X134844110Y-111495427D01*
X135283718Y-111407984D01*
X135697819Y-111236457D01*
X136070500Y-110987440D01*
X136387440Y-110670500D01*
X136636457Y-110297819D01*
X136807984Y-109883718D01*
X136895427Y-109444110D01*
X136895427Y-108995890D01*
X136807984Y-108556282D01*
X136636457Y-108142181D01*
X136387440Y-107769500D01*
X136070500Y-107452560D01*
X135697819Y-107203543D01*
X135283718Y-107032016D01*
X134844110Y-106944573D01*
X134395890Y-106944573D01*
X133956282Y-107032016D01*
X133542181Y-107203543D01*
X133169500Y-107452560D01*
X132852560Y-107769500D01*
X132603543Y-108142181D01*
X132432016Y-108556282D01*
X132344573Y-108995890D01*
X126657100Y-108995890D01*
X126657100Y-104445109D01*
X126947104Y-104155105D01*
X130172883Y-100984000D01*
X130276939Y-100984000D01*
X130476898Y-100944226D01*
X130665256Y-100866205D01*
X130834774Y-100752937D01*
X130978937Y-100608774D01*
X131092205Y-100439256D01*
X131170226Y-100250898D01*
X131210000Y-100050939D01*
X131210000Y-99847061D01*
X131170226Y-99647102D01*
X131092205Y-99458744D01*
X130978937Y-99289226D01*
X130834774Y-99145063D01*
X130665256Y-99031795D01*
X130476898Y-98953774D01*
X130276939Y-98914000D01*
X130073061Y-98914000D01*
X129873102Y-98953774D01*
X129684744Y-99031795D01*
X129515226Y-99145063D01*
X129371063Y-99289226D01*
X129257795Y-99458744D01*
X129179774Y-99647102D01*
X129140000Y-99847061D01*
X129140000Y-99933539D01*
X125935673Y-103083556D01*
X125933232Y-103085559D01*
X125909852Y-103108939D01*
X125886311Y-103132081D01*
X125884291Y-103134500D01*
X125425232Y-103593559D01*
X125397126Y-103616625D01*
X125374060Y-103644731D01*
X125374058Y-103644733D01*
X125305076Y-103728788D01*
X125236678Y-103856753D01*
X125223529Y-103900101D01*
X125207599Y-103952616D01*
X125194559Y-103995602D01*
X125180336Y-104140000D01*
X125183901Y-104176193D01*
X125183900Y-131091317D01*
X125180336Y-131127500D01*
X125183900Y-131163683D01*
X125183900Y-131163685D01*
X125194558Y-131271898D01*
X125236678Y-131410748D01*
X125305076Y-131538712D01*
X125397125Y-131650874D01*
X125425232Y-131673941D01*
X126491691Y-132740400D01*
X124806111Y-132740400D01*
X124738774Y-132673063D01*
X124569256Y-132559795D01*
X124380898Y-132481774D01*
X124180939Y-132442000D01*
X123977061Y-132442000D01*
X123777102Y-132481774D01*
X123588744Y-132559795D01*
X123419226Y-132673063D01*
X123275063Y-132817226D01*
X123161795Y-132986744D01*
X123083774Y-133175102D01*
X123044000Y-133375061D01*
X123044000Y-133578939D01*
X123083774Y-133778898D01*
X123161795Y-133967256D01*
X123169902Y-133979389D01*
X121024291Y-136125000D01*
X120929061Y-136125000D01*
X120729102Y-136164774D01*
X120540744Y-136242795D01*
X120371226Y-136356063D01*
X120227063Y-136500226D01*
X120113795Y-136669744D01*
X120035774Y-136858102D01*
X119996000Y-137058061D01*
X119996000Y-137261939D01*
X120035774Y-137461898D01*
X120113795Y-137650256D01*
X120227063Y-137819774D01*
X120371226Y-137963937D01*
X120540744Y-138077205D01*
X120729102Y-138155226D01*
X120929061Y-138195000D01*
X121132939Y-138195000D01*
X121332898Y-138155226D01*
X121521256Y-138077205D01*
X121690774Y-137963937D01*
X121834937Y-137819774D01*
X121948205Y-137650256D01*
X122026226Y-137461898D01*
X122066000Y-137261939D01*
X122066000Y-137166709D01*
X124574268Y-134658441D01*
X124602374Y-134635375D01*
X124694424Y-134523213D01*
X124762822Y-134395249D01*
X124804942Y-134256399D01*
X124809157Y-134213600D01*
X127542889Y-134213600D01*
X127610226Y-134280937D01*
X127779744Y-134394205D01*
X127968102Y-134472226D01*
X128168061Y-134512000D01*
X128263290Y-134512000D01*
X128352160Y-134600870D01*
X128375226Y-134628976D01*
X128403332Y-134652042D01*
X128403333Y-134652043D01*
X128428001Y-134672287D01*
X128487388Y-134721025D01*
X128615352Y-134789423D01*
X128754202Y-134831543D01*
X128862415Y-134842201D01*
X128862424Y-134842201D01*
X128898600Y-134845764D01*
X128934776Y-134842201D01*
X164194188Y-134842201D01*
X164015176Y-134916350D01*
X163771955Y-135078865D01*
X163565112Y-135285708D01*
X163540508Y-135322530D01*
X163452382Y-135263646D01*
X163182129Y-135151704D01*
X162895231Y-135094636D01*
X162602711Y-135094636D01*
X162315813Y-135151704D01*
X162045560Y-135263646D01*
X161802339Y-135426161D01*
X161595496Y-135633004D01*
X161570892Y-135669826D01*
X161482767Y-135610943D01*
X161212514Y-135499001D01*
X160925616Y-135441933D01*
X160633096Y-135441933D01*
X160346198Y-135499001D01*
X160075945Y-135610943D01*
X159832724Y-135773458D01*
X159625881Y-135980301D01*
X159601277Y-136017123D01*
X159513151Y-135958239D01*
X159242898Y-135846297D01*
X158956000Y-135789229D01*
X158663480Y-135789229D01*
X158376582Y-135846297D01*
X158106329Y-135958239D01*
X157863108Y-136120754D01*
X157656265Y-136327597D01*
X157631661Y-136364419D01*
X157543536Y-136305536D01*
X157273283Y-136193594D01*
X156986385Y-136136526D01*
X156693865Y-136136526D01*
X156406967Y-136193594D01*
X156136714Y-136305536D01*
X155893493Y-136468051D01*
X155686650Y-136674894D01*
X155662046Y-136711716D01*
X155573920Y-136652832D01*
X155303667Y-136540890D01*
X155016769Y-136483822D01*
X154724249Y-136483822D01*
X154437351Y-136540890D01*
X154167098Y-136652832D01*
X153923877Y-136815347D01*
X153717034Y-137022190D01*
X153692431Y-137059012D01*
X153604305Y-137000128D01*
X153334052Y-136888186D01*
X153047154Y-136831118D01*
X152754634Y-136831118D01*
X152467736Y-136888186D01*
X152197483Y-137000128D01*
X151954262Y-137162643D01*
X151747419Y-137369486D01*
X151722815Y-137406309D01*
X151634689Y-137347425D01*
X151364436Y-137235483D01*
X151077538Y-137178415D01*
X150785018Y-137178415D01*
X150498120Y-137235483D01*
X150227867Y-137347425D01*
X149984646Y-137509940D01*
X149777803Y-137716783D01*
X149753200Y-137753605D01*
X149665074Y-137694721D01*
X149394821Y-137582779D01*
X149107923Y-137525711D01*
X148815403Y-137525711D01*
X148528505Y-137582779D01*
X148258252Y-137694721D01*
X148015031Y-137857236D01*
X147808188Y-138064079D01*
X147645673Y-138307300D01*
X147533731Y-138577553D01*
X147519041Y-138651405D01*
X147006188Y-139164258D01*
X147185796Y-139343866D01*
X147188874Y-139340788D01*
X147614472Y-139638795D01*
X147645673Y-139714122D01*
X147808188Y-139957343D01*
X148015031Y-140164186D01*
X148258252Y-140326701D01*
X148528505Y-140438643D01*
X148815403Y-140495711D01*
X149107923Y-140495711D01*
X149394821Y-140438643D01*
X149665074Y-140326701D01*
X149908295Y-140164186D01*
X150115138Y-139957343D01*
X150139741Y-139920521D01*
X150227867Y-139979405D01*
X150498120Y-140091347D01*
X150785018Y-140148415D01*
X151077538Y-140148415D01*
X151364436Y-140091347D01*
X151634689Y-139979405D01*
X151877910Y-139816890D01*
X152084753Y-139610047D01*
X152109357Y-139573224D01*
X152197483Y-139632108D01*
X152467736Y-139744050D01*
X152754634Y-139801118D01*
X153047154Y-139801118D01*
X153334052Y-139744050D01*
X153604305Y-139632108D01*
X153847526Y-139469593D01*
X154054369Y-139262750D01*
X154078972Y-139225928D01*
X154167098Y-139284812D01*
X154437351Y-139396754D01*
X154724249Y-139453822D01*
X155016769Y-139453822D01*
X155303667Y-139396754D01*
X155573920Y-139284812D01*
X155817141Y-139122297D01*
X156023984Y-138915454D01*
X156048588Y-138878632D01*
X156136714Y-138937516D01*
X156406967Y-139049458D01*
X156693865Y-139106526D01*
X156986385Y-139106526D01*
X157273283Y-139049458D01*
X157543536Y-138937516D01*
X157786757Y-138775001D01*
X157993600Y-138568158D01*
X158018204Y-138531336D01*
X158106329Y-138590219D01*
X158376582Y-138702161D01*
X158663480Y-138759229D01*
X158956000Y-138759229D01*
X159242898Y-138702161D01*
X159513151Y-138590219D01*
X159756372Y-138427704D01*
X159963215Y-138220861D01*
X159987819Y-138184039D01*
X160075945Y-138242923D01*
X160346198Y-138354865D01*
X160633096Y-138411933D01*
X160925616Y-138411933D01*
X161212514Y-138354865D01*
X161482767Y-138242923D01*
X161725988Y-138080408D01*
X161932831Y-137873565D01*
X161957435Y-137836743D01*
X162045560Y-137895626D01*
X162315813Y-138007568D01*
X162602711Y-138064636D01*
X162895231Y-138064636D01*
X163182129Y-138007568D01*
X163452382Y-137895626D01*
X163695603Y-137733111D01*
X163902446Y-137526268D01*
X163927050Y-137489446D01*
X164015176Y-137548330D01*
X164285429Y-137660272D01*
X164572327Y-137717340D01*
X164864847Y-137717340D01*
X165151745Y-137660272D01*
X165421998Y-137548330D01*
X165665219Y-137385815D01*
X165872062Y-137178972D01*
X166034577Y-136935751D01*
X166146519Y-136665498D01*
X166203587Y-136378600D01*
X166203587Y-136086080D01*
X166146519Y-135799182D01*
X166034577Y-135528929D01*
X165872062Y-135285708D01*
X165665219Y-135078865D01*
X165421998Y-134916350D01*
X165242986Y-134842201D01*
X169846419Y-134842201D01*
X148834221Y-155854400D01*
X135229511Y-155854400D01*
X135180115Y-155761986D01*
X134994543Y-155535866D01*
X134768423Y-155350294D01*
X134510443Y-155212401D01*
X134230520Y-155127487D01*
X134012359Y-155106000D01*
X133866459Y-155106000D01*
X133648298Y-155127487D01*
X133368375Y-155212401D01*
X133228555Y-155287136D01*
X133203218Y-155029889D01*
X133118304Y-154749966D01*
X132980411Y-154491986D01*
X132794839Y-154265866D01*
X132568719Y-154080294D01*
X132310739Y-153942401D01*
X132030816Y-153857487D01*
X131812655Y-153836000D01*
X131666755Y-153836000D01*
X131448594Y-153857487D01*
X131316381Y-153897594D01*
X131333735Y-153823163D01*
X131337827Y-153698146D01*
X131317452Y-153574733D01*
X131273391Y-153457667D01*
X131207339Y-153351445D01*
X131121832Y-153260150D01*
X131020158Y-153187292D01*
X130529967Y-152907827D01*
X130313110Y-152965934D01*
X129713485Y-154004515D01*
X129730806Y-154014515D01*
X129603806Y-154234485D01*
X129586485Y-154224485D01*
X128986860Y-155263066D01*
X129044967Y-155479923D01*
X129532086Y-155764708D01*
X129646020Y-155816332D01*
X129767837Y-155844735D01*
X129892854Y-155848827D01*
X130016267Y-155828452D01*
X130133333Y-155784391D01*
X130239555Y-155718339D01*
X130293180Y-155668114D01*
X130361106Y-155892034D01*
X130498999Y-156150014D01*
X130684571Y-156376134D01*
X130910691Y-156561706D01*
X131168671Y-156699599D01*
X131448594Y-156784513D01*
X131666755Y-156806000D01*
X131812655Y-156806000D01*
X132030816Y-156784513D01*
X132310739Y-156699599D01*
X132450559Y-156624864D01*
X132475896Y-156882111D01*
X132560810Y-157162034D01*
X132698703Y-157420014D01*
X132884275Y-157646134D01*
X133110395Y-157831706D01*
X133368375Y-157969599D01*
X133648298Y-158054513D01*
X133866459Y-158076000D01*
X134012359Y-158076000D01*
X134230520Y-158054513D01*
X134510443Y-157969599D01*
X134650264Y-157894863D01*
X134675601Y-158152111D01*
X134760515Y-158432034D01*
X134898408Y-158690014D01*
X135083980Y-158916134D01*
X135310100Y-159101706D01*
X135568080Y-159239599D01*
X135848003Y-159324513D01*
X136066164Y-159346000D01*
X136212064Y-159346000D01*
X136430225Y-159324513D01*
X136710148Y-159239599D01*
X136849968Y-159164864D01*
X136875305Y-159422111D01*
X136960219Y-159702034D01*
X137098112Y-159960014D01*
X137283684Y-160186134D01*
X137509804Y-160371706D01*
X137767784Y-160509599D01*
X138047707Y-160594513D01*
X138265868Y-160616000D01*
X138411768Y-160616000D01*
X138629929Y-160594513D01*
X138909852Y-160509599D01*
X139049673Y-160434863D01*
X139075010Y-160692111D01*
X139159924Y-160972034D01*
X139297817Y-161230014D01*
X139483389Y-161456134D01*
X139709509Y-161641706D01*
X139967489Y-161779599D01*
X140247412Y-161864513D01*
X140465573Y-161886000D01*
X140611473Y-161886000D01*
X140829634Y-161864513D01*
X141109557Y-161779599D01*
X141367537Y-161641706D01*
X141593657Y-161456134D01*
X141779229Y-161230014D01*
X141917122Y-160972034D01*
X141945793Y-160877518D01*
X149327307Y-160877518D01*
X149327307Y-161170038D01*
X149384375Y-161456936D01*
X149496317Y-161727189D01*
X149658832Y-161970410D01*
X149865675Y-162177253D01*
X150108896Y-162339768D01*
X150379149Y-162451710D01*
X150666047Y-162508778D01*
X150958567Y-162508778D01*
X151245465Y-162451710D01*
X151515718Y-162339768D01*
X151758939Y-162177253D01*
X151965782Y-161970410D01*
X151990386Y-161933588D01*
X152078512Y-161992472D01*
X152348765Y-162104414D01*
X152635663Y-162161482D01*
X152928183Y-162161482D01*
X153215081Y-162104414D01*
X153485334Y-161992472D01*
X153728555Y-161829957D01*
X153935398Y-161623114D01*
X153960002Y-161586292D01*
X154048127Y-161645175D01*
X154318380Y-161757117D01*
X154605278Y-161814185D01*
X154897798Y-161814185D01*
X155184696Y-161757117D01*
X155454949Y-161645175D01*
X155698170Y-161482660D01*
X155905013Y-161275817D01*
X155994390Y-161142054D01*
X156063836Y-161142054D01*
X156183544Y-161373863D01*
X156465434Y-161451999D01*
X156757152Y-161473641D01*
X157047486Y-161437954D01*
X157325280Y-161346312D01*
X157579858Y-161202235D01*
X157702426Y-161106043D01*
X157735630Y-160847271D01*
X156752342Y-160158766D01*
X156063836Y-161142054D01*
X155994390Y-161142054D01*
X156067528Y-161032596D01*
X156179470Y-160762343D01*
X156194160Y-160688491D01*
X156707013Y-160175638D01*
X156527405Y-159996030D01*
X156524327Y-159999108D01*
X156098729Y-159701101D01*
X156067528Y-159625774D01*
X155905013Y-159382553D01*
X155698170Y-159175710D01*
X155609567Y-159116507D01*
X155706678Y-159116507D01*
X156689966Y-159805012D01*
X156701779Y-159788140D01*
X156735295Y-159788140D01*
X156914903Y-159967748D01*
X156917981Y-159964670D01*
X157343578Y-160262676D01*
X157374779Y-160338003D01*
X157537294Y-160581224D01*
X157744137Y-160788067D01*
X157987358Y-160950582D01*
X158257611Y-161062524D01*
X158544509Y-161119592D01*
X158837029Y-161119592D01*
X159123927Y-161062524D01*
X159394180Y-160950582D01*
X159637401Y-160788067D01*
X159844244Y-160581224D01*
X159868848Y-160544402D01*
X159956974Y-160603286D01*
X160227227Y-160715228D01*
X160514125Y-160772296D01*
X160806645Y-160772296D01*
X161093543Y-160715228D01*
X161363796Y-160603286D01*
X161607017Y-160440771D01*
X161813860Y-160233928D01*
X161838463Y-160197106D01*
X161926589Y-160255990D01*
X162196842Y-160367932D01*
X162483740Y-160425000D01*
X162776260Y-160425000D01*
X163063158Y-160367932D01*
X163333411Y-160255990D01*
X163576632Y-160093475D01*
X163783475Y-159886632D01*
X163808079Y-159849809D01*
X163896205Y-159908693D01*
X164166458Y-160020635D01*
X164453356Y-160077703D01*
X164745876Y-160077703D01*
X165032774Y-160020635D01*
X165303027Y-159908693D01*
X165546248Y-159746178D01*
X165753091Y-159539335D01*
X165777694Y-159502513D01*
X165865820Y-159561397D01*
X166136073Y-159673339D01*
X166422971Y-159730407D01*
X166715491Y-159730407D01*
X167002389Y-159673339D01*
X167272642Y-159561397D01*
X167515863Y-159398882D01*
X167722706Y-159192039D01*
X167747310Y-159155217D01*
X167835436Y-159214101D01*
X168105689Y-159326043D01*
X168392587Y-159383111D01*
X168685107Y-159383111D01*
X168972005Y-159326043D01*
X169242258Y-159214101D01*
X169485479Y-159051586D01*
X169692322Y-158844743D01*
X169854837Y-158601522D01*
X169966779Y-158331269D01*
X170023847Y-158044371D01*
X170023847Y-157751851D01*
X169966779Y-157464953D01*
X169854837Y-157194700D01*
X169692322Y-156951479D01*
X169485479Y-156744636D01*
X169242258Y-156582121D01*
X168972005Y-156470179D01*
X168685107Y-156413111D01*
X168392587Y-156413111D01*
X168105689Y-156470179D01*
X167835436Y-156582121D01*
X167592215Y-156744636D01*
X167385372Y-156951479D01*
X167360768Y-156988301D01*
X167272642Y-156929417D01*
X167002389Y-156817475D01*
X166715491Y-156760407D01*
X166422971Y-156760407D01*
X166136073Y-156817475D01*
X165865820Y-156929417D01*
X165622599Y-157091932D01*
X165415756Y-157298775D01*
X165391153Y-157335597D01*
X165303027Y-157276713D01*
X165032774Y-157164771D01*
X164745876Y-157107703D01*
X164453356Y-157107703D01*
X164166458Y-157164771D01*
X163896205Y-157276713D01*
X163652984Y-157439228D01*
X163446141Y-157646071D01*
X163421537Y-157682894D01*
X163333411Y-157624010D01*
X163063158Y-157512068D01*
X162776260Y-157455000D01*
X162483740Y-157455000D01*
X162196842Y-157512068D01*
X161926589Y-157624010D01*
X161683368Y-157786525D01*
X161476525Y-157993368D01*
X161451922Y-158030190D01*
X161363796Y-157971306D01*
X161093543Y-157859364D01*
X160806645Y-157802296D01*
X160514125Y-157802296D01*
X160227227Y-157859364D01*
X159956974Y-157971306D01*
X159713753Y-158133821D01*
X159506910Y-158340664D01*
X159482306Y-158377486D01*
X159394180Y-158318602D01*
X159123927Y-158206660D01*
X158837029Y-158149592D01*
X158544509Y-158149592D01*
X158257611Y-158206660D01*
X157987358Y-158318602D01*
X157744137Y-158481117D01*
X157537294Y-158687960D01*
X157374779Y-158931181D01*
X157262837Y-159201434D01*
X157248146Y-159275289D01*
X156735295Y-159788140D01*
X156701779Y-159788140D01*
X157378472Y-158821724D01*
X157258764Y-158589915D01*
X156976874Y-158511779D01*
X156685156Y-158490137D01*
X156394822Y-158525824D01*
X156117028Y-158617466D01*
X155862450Y-158761543D01*
X155739882Y-158857735D01*
X155706678Y-159116507D01*
X155609567Y-159116507D01*
X155454949Y-159013195D01*
X155184696Y-158901253D01*
X154897798Y-158844185D01*
X154605278Y-158844185D01*
X154318380Y-158901253D01*
X154048127Y-159013195D01*
X153804906Y-159175710D01*
X153598063Y-159382553D01*
X153573459Y-159419375D01*
X153485334Y-159360492D01*
X153215081Y-159248550D01*
X152928183Y-159191482D01*
X152635663Y-159191482D01*
X152348765Y-159248550D01*
X152078512Y-159360492D01*
X151835291Y-159523007D01*
X151628448Y-159729850D01*
X151603844Y-159766672D01*
X151515718Y-159707788D01*
X151245465Y-159595846D01*
X150958567Y-159538778D01*
X150666047Y-159538778D01*
X150379149Y-159595846D01*
X150108896Y-159707788D01*
X149865675Y-159870303D01*
X149658832Y-160077146D01*
X149496317Y-160320367D01*
X149384375Y-160590620D01*
X149327307Y-160877518D01*
X141945793Y-160877518D01*
X142002036Y-160692111D01*
X142030708Y-160401000D01*
X142002036Y-160109889D01*
X141917122Y-159829966D01*
X141779229Y-159571986D01*
X141593657Y-159345866D01*
X141367537Y-159160294D01*
X141109557Y-159022401D01*
X140829634Y-158937487D01*
X140611473Y-158916000D01*
X140465573Y-158916000D01*
X140247412Y-158937487D01*
X139967489Y-159022401D01*
X139827668Y-159097137D01*
X139802331Y-158839889D01*
X139717417Y-158559966D01*
X139579524Y-158301986D01*
X139393952Y-158075866D01*
X139167832Y-157890294D01*
X138909852Y-157752401D01*
X138629929Y-157667487D01*
X138411768Y-157646000D01*
X138265868Y-157646000D01*
X138047707Y-157667487D01*
X137767784Y-157752401D01*
X137627964Y-157827136D01*
X137602627Y-157569889D01*
X137529129Y-157327600D01*
X149103147Y-157327600D01*
X149139330Y-157331164D01*
X149175513Y-157327600D01*
X149175516Y-157327600D01*
X149283729Y-157316942D01*
X149422579Y-157274822D01*
X149550543Y-157206424D01*
X149662705Y-157114375D01*
X149685776Y-157086263D01*
X162208069Y-144563970D01*
X167986613Y-144563970D01*
X167986613Y-144996030D01*
X168070904Y-145419787D01*
X168236246Y-145818958D01*
X168476285Y-146178203D01*
X168781797Y-146483715D01*
X169141042Y-146723754D01*
X169540213Y-146889096D01*
X169963970Y-146973387D01*
X170396030Y-146973387D01*
X170819787Y-146889096D01*
X171218958Y-146723754D01*
X171578203Y-146483715D01*
X171883715Y-146178203D01*
X172123754Y-145818958D01*
X172289096Y-145419787D01*
X172373387Y-144996030D01*
X172373387Y-144563970D01*
X172289096Y-144140213D01*
X172123754Y-143741042D01*
X171883715Y-143381797D01*
X171578203Y-143076285D01*
X171218958Y-142836246D01*
X170819787Y-142670904D01*
X170396030Y-142586613D01*
X169963970Y-142586613D01*
X169540213Y-142670904D01*
X169141042Y-142836246D01*
X168781797Y-143076285D01*
X168476285Y-143381797D01*
X168236246Y-143741042D01*
X168070904Y-144140213D01*
X167986613Y-144563970D01*
X162208069Y-144563970D01*
X170451478Y-136320561D01*
X171072500Y-136320561D01*
X171072500Y-136524439D01*
X171112274Y-136724398D01*
X171190295Y-136912756D01*
X171303563Y-137082274D01*
X171447726Y-137226437D01*
X171617244Y-137339705D01*
X171805602Y-137417726D01*
X172005561Y-137457500D01*
X172209439Y-137457500D01*
X172409398Y-137417726D01*
X172597756Y-137339705D01*
X172767274Y-137226437D01*
X172911437Y-137082274D01*
X173024705Y-136912756D01*
X173102726Y-136724398D01*
X173142500Y-136524439D01*
X173142500Y-136320561D01*
X173102726Y-136120602D01*
X173024705Y-135932244D01*
X172911437Y-135762726D01*
X172767274Y-135618563D01*
X172597756Y-135505295D01*
X172409398Y-135427274D01*
X172209439Y-135387500D01*
X172005561Y-135387500D01*
X171805602Y-135427274D01*
X171617244Y-135505295D01*
X171447726Y-135618563D01*
X171303563Y-135762726D01*
X171190295Y-135932244D01*
X171112274Y-136120602D01*
X171072500Y-136320561D01*
X170451478Y-136320561D01*
X173335875Y-133436165D01*
X173363975Y-133413104D01*
X173387038Y-133385002D01*
X173387043Y-133384997D01*
X173456025Y-133300942D01*
X173503179Y-133212722D01*
X173524423Y-133172978D01*
X173566543Y-133034128D01*
X173577201Y-132925915D01*
X173577201Y-132925914D01*
X173580765Y-132889729D01*
X173577201Y-132853543D01*
X173577201Y-132192609D01*
X173592795Y-132230256D01*
X173706063Y-132399774D01*
X173850226Y-132543937D01*
X174019744Y-132657205D01*
X174208102Y-132735226D01*
X174408061Y-132775000D01*
X174611939Y-132775000D01*
X174811898Y-132735226D01*
X175000256Y-132657205D01*
X175108001Y-132585213D01*
X175108001Y-139667064D01*
X175104808Y-139698980D01*
X175108001Y-139731918D01*
X175108001Y-139732419D01*
X175111083Y-139763713D01*
X175117352Y-139828381D01*
X175117501Y-139828875D01*
X175117551Y-139829383D01*
X175136246Y-139891010D01*
X175154901Y-139952849D01*
X175155142Y-139953301D01*
X175155291Y-139953793D01*
X175185711Y-140010706D01*
X175216009Y-140067600D01*
X175216334Y-140067997D01*
X175216576Y-140068450D01*
X175257477Y-140118288D01*
X175298331Y-140168225D01*
X175298728Y-140168552D01*
X175299053Y-140168948D01*
X175348847Y-140209813D01*
X175398702Y-140250857D01*
X175399155Y-140251100D01*
X175399551Y-140251425D01*
X175456531Y-140281881D01*
X175513265Y-140312318D01*
X175513753Y-140312467D01*
X175514208Y-140312710D01*
X175576027Y-140331463D01*
X175637616Y-140350250D01*
X175638127Y-140350301D01*
X175638618Y-140350450D01*
X175702980Y-140356789D01*
X175734566Y-140359949D01*
X175735071Y-140359950D01*
X175768000Y-140363193D01*
X175799916Y-140360050D01*
X187331773Y-140377802D01*
X186795464Y-141749108D01*
X185771977Y-143937983D01*
X184609362Y-146056262D01*
X183312488Y-148095076D01*
X181886740Y-150045961D01*
X180338072Y-151900769D01*
X178672933Y-153651775D01*
X176898269Y-155291676D01*
X175021478Y-156813636D01*
X173050384Y-158211309D01*
X170993203Y-159478869D01*
X168858515Y-160611031D01*
X166655207Y-161603080D01*
X164392472Y-162450878D01*
X162079754Y-163150885D01*
X159726680Y-163700189D01*
X157343064Y-164096499D01*
X154938830Y-164338164D01*
X152524015Y-164424173D01*
X150108693Y-164354171D01*
X147702923Y-164128447D01*
X145316713Y-163747941D01*
X142960057Y-163214246D01*
X140642752Y-162529583D01*
X138374439Y-161696797D01*
X136164611Y-160719375D01*
X134022465Y-159601386D01*
X131956937Y-158347493D01*
X129976608Y-156962905D01*
X128089774Y-155453419D01*
X126938747Y-154403854D01*
X127742173Y-154403854D01*
X127762548Y-154527267D01*
X127806609Y-154644333D01*
X127872661Y-154750555D01*
X127958168Y-154841850D01*
X128059842Y-154914708D01*
X128550033Y-155194173D01*
X128766890Y-155136066D01*
X129366515Y-154097485D01*
X128327934Y-153497860D01*
X128111077Y-153555967D01*
X127826292Y-154043086D01*
X127774668Y-154157020D01*
X127746265Y-154278837D01*
X127742173Y-154403854D01*
X126938747Y-154403854D01*
X126304287Y-153825322D01*
X125567771Y-153061033D01*
X128396827Y-153061033D01*
X128454934Y-153277890D01*
X129493515Y-153877515D01*
X130093140Y-152838934D01*
X130035033Y-152622077D01*
X129547914Y-152337292D01*
X129433980Y-152285668D01*
X129312163Y-152257265D01*
X129187146Y-152253173D01*
X129063733Y-152273548D01*
X128946667Y-152317609D01*
X128840445Y-152383661D01*
X128749150Y-152469168D01*
X128676292Y-152570842D01*
X128396827Y-153061033D01*
X125567771Y-153061033D01*
X124627584Y-152085395D01*
X123066645Y-150240878D01*
X121628008Y-148299500D01*
X121439902Y-148008061D01*
X131135000Y-148008061D01*
X131135000Y-148211939D01*
X131174774Y-148411898D01*
X131252795Y-148600256D01*
X131366063Y-148769774D01*
X131510226Y-148913937D01*
X131679744Y-149027205D01*
X131868102Y-149105226D01*
X132068061Y-149145000D01*
X132271939Y-149145000D01*
X132471898Y-149105226D01*
X132660256Y-149027205D01*
X132829774Y-148913937D01*
X132973937Y-148769774D01*
X133087205Y-148600256D01*
X133165226Y-148411898D01*
X133205000Y-148211939D01*
X133205000Y-148008061D01*
X133165226Y-147808102D01*
X133087205Y-147619744D01*
X132973937Y-147450226D01*
X132829774Y-147306063D01*
X132660256Y-147192795D01*
X132471898Y-147114774D01*
X132271939Y-147075000D01*
X132068061Y-147075000D01*
X131868102Y-147114774D01*
X131679744Y-147192795D01*
X131510226Y-147306063D01*
X131366063Y-147450226D01*
X131252795Y-147619744D01*
X131174774Y-147808102D01*
X131135000Y-148008061D01*
X121439902Y-148008061D01*
X120317637Y-146269305D01*
X119141016Y-144158792D01*
X118904728Y-143662061D01*
X128378000Y-143662061D01*
X128378000Y-143865939D01*
X128417774Y-144065898D01*
X128495795Y-144254256D01*
X128609063Y-144423774D01*
X128753226Y-144567937D01*
X128922744Y-144681205D01*
X129111102Y-144759226D01*
X129311061Y-144799000D01*
X129514939Y-144799000D01*
X129714898Y-144759226D01*
X129903256Y-144681205D01*
X130072774Y-144567937D01*
X130076741Y-144563970D01*
X132426613Y-144563970D01*
X132426613Y-144996030D01*
X132510904Y-145419787D01*
X132676246Y-145818958D01*
X132916285Y-146178203D01*
X133221797Y-146483715D01*
X133581042Y-146723754D01*
X133980213Y-146889096D01*
X134403970Y-146973387D01*
X134836030Y-146973387D01*
X135259787Y-146889096D01*
X135658958Y-146723754D01*
X136018203Y-146483715D01*
X136323715Y-146178203D01*
X136563754Y-145818958D01*
X136729096Y-145419787D01*
X136813387Y-144996030D01*
X136813387Y-144563970D01*
X136729096Y-144140213D01*
X136563754Y-143741042D01*
X136323715Y-143381797D01*
X136018203Y-143076285D01*
X135658958Y-142836246D01*
X135259787Y-142670904D01*
X134836030Y-142586613D01*
X134403970Y-142586613D01*
X133980213Y-142670904D01*
X133581042Y-142836246D01*
X133221797Y-143076285D01*
X132916285Y-143381797D01*
X132676246Y-143741042D01*
X132510904Y-144140213D01*
X132426613Y-144563970D01*
X130076741Y-144563970D01*
X130216937Y-144423774D01*
X130330205Y-144254256D01*
X130408226Y-144065898D01*
X130440429Y-143904004D01*
X132104541Y-142239892D01*
X132136041Y-142214041D01*
X132207543Y-142126915D01*
X132239199Y-142088343D01*
X132276247Y-142019031D01*
X132315853Y-141944934D01*
X132363056Y-141789326D01*
X132375000Y-141668053D01*
X132375000Y-141668051D01*
X132378994Y-141627501D01*
X132375000Y-141586950D01*
X132375000Y-140518172D01*
X146334729Y-140518172D01*
X146454437Y-140749981D01*
X146736327Y-140828117D01*
X147028045Y-140849759D01*
X147318379Y-140814072D01*
X147596173Y-140722430D01*
X147850751Y-140578353D01*
X147973319Y-140482161D01*
X148006523Y-140223389D01*
X147023235Y-139534884D01*
X146334729Y-140518172D01*
X132375000Y-140518172D01*
X132375000Y-139394005D01*
X145500295Y-139394005D01*
X145535982Y-139684339D01*
X145627624Y-139962133D01*
X145771701Y-140216711D01*
X145867893Y-140339279D01*
X146126665Y-140372483D01*
X146815170Y-139389195D01*
X145831882Y-138700689D01*
X145600073Y-138820397D01*
X145521937Y-139102287D01*
X145500295Y-139394005D01*
X132375000Y-139394005D01*
X132375000Y-138492625D01*
X145977571Y-138492625D01*
X146960859Y-139181130D01*
X147649365Y-138197842D01*
X147529657Y-137966033D01*
X147247767Y-137887897D01*
X146956049Y-137866255D01*
X146665715Y-137901942D01*
X146387921Y-137993584D01*
X146133343Y-138137661D01*
X146010775Y-138233853D01*
X145977571Y-138492625D01*
X132375000Y-138492625D01*
X132375000Y-137384003D01*
X132466705Y-137246756D01*
X132544726Y-137058398D01*
X132584500Y-136858439D01*
X132584500Y-136654561D01*
X132544726Y-136454602D01*
X132466705Y-136266244D01*
X132353437Y-136096726D01*
X132209274Y-135952563D01*
X132039756Y-135839295D01*
X131851398Y-135761274D01*
X131651439Y-135721500D01*
X131447561Y-135721500D01*
X131247602Y-135761274D01*
X131059244Y-135839295D01*
X130889726Y-135952563D01*
X130745563Y-136096726D01*
X130632295Y-136266244D01*
X130554274Y-136454602D01*
X130514500Y-136654561D01*
X130514500Y-136858439D01*
X130554274Y-137058398D01*
X130632295Y-137246756D01*
X130724001Y-137384004D01*
X130724000Y-141285567D01*
X129272996Y-142736571D01*
X129111102Y-142768774D01*
X128922744Y-142846795D01*
X128753226Y-142960063D01*
X128609063Y-143104226D01*
X128495795Y-143273744D01*
X128417774Y-143462102D01*
X128378000Y-143662061D01*
X118904728Y-143662061D01*
X118103044Y-141976747D01*
X117208047Y-139732265D01*
X116459761Y-137434720D01*
X115861297Y-135093660D01*
X115415156Y-132718864D01*
X115182575Y-130808061D01*
X122485000Y-130808061D01*
X122485000Y-131011939D01*
X122524774Y-131211898D01*
X122602795Y-131400256D01*
X122716063Y-131569774D01*
X122860226Y-131713937D01*
X123029744Y-131827205D01*
X123218102Y-131905226D01*
X123418061Y-131945000D01*
X123621939Y-131945000D01*
X123821898Y-131905226D01*
X124010256Y-131827205D01*
X124179774Y-131713937D01*
X124323937Y-131569774D01*
X124437205Y-131400256D01*
X124515226Y-131211898D01*
X124555000Y-131011939D01*
X124555000Y-130808061D01*
X124515226Y-130608102D01*
X124437205Y-130419744D01*
X124323937Y-130250226D01*
X124179774Y-130106063D01*
X124010256Y-129992795D01*
X123821898Y-129914774D01*
X123621939Y-129875000D01*
X123418061Y-129875000D01*
X123218102Y-129914774D01*
X123029744Y-129992795D01*
X122860226Y-130106063D01*
X122716063Y-130250226D01*
X122602795Y-130419744D01*
X122524774Y-130608102D01*
X122485000Y-130808061D01*
X115182575Y-130808061D01*
X115123194Y-130320215D01*
X114986632Y-127907750D01*
X115006037Y-125491476D01*
X115181328Y-123081503D01*
X115511774Y-120687873D01*
X115996001Y-118320542D01*
X116631984Y-115989406D01*
X117417084Y-113704146D01*
X118348006Y-111474350D01*
X119420891Y-109309253D01*
X120631262Y-107217902D01*
X121974057Y-105209036D01*
X123443708Y-103290986D01*
X125034058Y-101471792D01*
X126738502Y-99759007D01*
X128549892Y-98159811D01*
X130460731Y-96680821D01*
X131826818Y-95758000D01*
X157099000Y-95758000D01*
X157123776Y-95755560D01*
X157147601Y-95748333D01*
X157169557Y-95736597D01*
X157188803Y-95720803D01*
X157204597Y-95701557D01*
X157216333Y-95679601D01*
X157223560Y-95655776D01*
X157226000Y-95631000D01*
X157226000Y-93091000D01*
X160686815Y-93091000D01*
X160715487Y-93382111D01*
X160800401Y-93662034D01*
X160938294Y-93920014D01*
X161123866Y-94146134D01*
X161153687Y-94170607D01*
X161084820Y-94191498D01*
X160974506Y-94250463D01*
X160877815Y-94329815D01*
X160798463Y-94426506D01*
X160739498Y-94536820D01*
X160703188Y-94656518D01*
X160690928Y-94781000D01*
X160690928Y-96481000D01*
X160703188Y-96605482D01*
X160739498Y-96725180D01*
X160798463Y-96835494D01*
X160877815Y-96932185D01*
X160974506Y-97011537D01*
X161084820Y-97070502D01*
X161204518Y-97106812D01*
X161329000Y-97119072D01*
X163029000Y-97119072D01*
X163153482Y-97106812D01*
X163273180Y-97070502D01*
X163383494Y-97011537D01*
X163480185Y-96932185D01*
X163559537Y-96835494D01*
X163618502Y-96725180D01*
X163654812Y-96605482D01*
X163667072Y-96481000D01*
X163667072Y-94781000D01*
X163654812Y-94656518D01*
X163618502Y-94536820D01*
X163559537Y-94426506D01*
X163480185Y-94329815D01*
X163383494Y-94250463D01*
X163273180Y-94191498D01*
X163204313Y-94170607D01*
X163234134Y-94146134D01*
X163419706Y-93920014D01*
X163557599Y-93662034D01*
X163642513Y-93382111D01*
X163671185Y-93091000D01*
X163642513Y-92799889D01*
X163557599Y-92519966D01*
X163419706Y-92261986D01*
X163234134Y-92035866D01*
X163008014Y-91850294D01*
X162750034Y-91712401D01*
X162470111Y-91627487D01*
X162251950Y-91606000D01*
X162106050Y-91606000D01*
X161887889Y-91627487D01*
X161607966Y-91712401D01*
X161349986Y-91850294D01*
X161123866Y-92035866D01*
X160938294Y-92261986D01*
X160800401Y-92519966D01*
X160715487Y-92799889D01*
X160686815Y-93091000D01*
X157226000Y-93091000D01*
X157226000Y-89904509D01*
X157938218Y-89987673D01*
X157938218Y-89987673D01*
G37*
X157938218Y-89987673D02*
X160315174Y-90422218D01*
X162659105Y-91009239D01*
X164960305Y-91746307D01*
X167209129Y-92630336D01*
X169396213Y-93657641D01*
X171512443Y-94823943D01*
X173549010Y-96124386D01*
X175497384Y-97553524D01*
X177349500Y-99105437D01*
X179097588Y-100773621D01*
X180734391Y-102551147D01*
X182253070Y-104430589D01*
X183647308Y-106404128D01*
X184911274Y-108463517D01*
X186039711Y-110600183D01*
X187027909Y-112805209D01*
X187871753Y-115069414D01*
X188567725Y-117383362D01*
X189113035Y-119737880D01*
X189365774Y-121260000D01*
X175800419Y-121260000D01*
X175768000Y-121256807D01*
X175735581Y-121260000D01*
X175638617Y-121269550D01*
X175514207Y-121307290D01*
X175399550Y-121368575D01*
X175299052Y-121451052D01*
X175216575Y-121551550D01*
X175155290Y-121666207D01*
X175117550Y-121790617D01*
X175104807Y-121920000D01*
X175108000Y-121952419D01*
X175108000Y-128510178D01*
X175021375Y-128404625D01*
X174993269Y-128381559D01*
X174605000Y-127993290D01*
X174605000Y-127898061D01*
X174565226Y-127698102D01*
X174495043Y-127528668D01*
X174613937Y-127409774D01*
X174727205Y-127240256D01*
X174805226Y-127051898D01*
X174845000Y-126851939D01*
X174845000Y-126648061D01*
X174805226Y-126448102D01*
X174727205Y-126259744D01*
X174613937Y-126090226D01*
X174469774Y-125946063D01*
X174300256Y-125832795D01*
X174111898Y-125754774D01*
X173911939Y-125715000D01*
X173816709Y-125715000D01*
X173786808Y-125685099D01*
X173786808Y-119406397D01*
X173790371Y-119370221D01*
X173786808Y-119334045D01*
X173786808Y-117746903D01*
X173863937Y-117669774D01*
X173977205Y-117500256D01*
X174055226Y-117311898D01*
X174095000Y-117111939D01*
X174095000Y-116908061D01*
X174075707Y-116811066D01*
X178068539Y-116811066D01*
X178170339Y-117080579D01*
X178468477Y-117226463D01*
X178789346Y-117311380D01*
X179120617Y-117332066D01*
X179449557Y-117287728D01*
X179763527Y-117180069D01*
X179949661Y-117080579D01*
X180051461Y-116811066D01*
X182468539Y-116811066D01*
X182570339Y-117080579D01*
X182868477Y-117226463D01*
X183189346Y-117311380D01*
X183520617Y-117332066D01*
X183849557Y-117287728D01*
X184163527Y-117180069D01*
X184349661Y-117080579D01*
X184451461Y-116811066D01*
X183460000Y-115819605D01*
X182468539Y-116811066D01*
X180051461Y-116811066D01*
X179060000Y-115819605D01*
X178068539Y-116811066D01*
X174075707Y-116811066D01*
X174055226Y-116708102D01*
X173977205Y-116519744D01*
X173863937Y-116350226D01*
X173719774Y-116206063D01*
X173550256Y-116092795D01*
X173361898Y-116014774D01*
X173161939Y-115975000D01*
X172958061Y-115975000D01*
X172758102Y-116014774D01*
X172569744Y-116092795D01*
X172400226Y-116206063D01*
X172256063Y-116350226D01*
X172142795Y-116519744D01*
X172064774Y-116708102D01*
X172025000Y-116908061D01*
X172025000Y-117111939D01*
X172064774Y-117311898D01*
X172086822Y-117365127D01*
X170776432Y-116054737D01*
X170753361Y-116026625D01*
X170641199Y-115934576D01*
X170513235Y-115866178D01*
X170374385Y-115824058D01*
X170266172Y-115813400D01*
X170266169Y-115813400D01*
X170229986Y-115809836D01*
X170193803Y-115813400D01*
X159675309Y-115813400D01*
X159788092Y-115700617D01*
X177367934Y-115700617D01*
X177412272Y-116029557D01*
X177519931Y-116343527D01*
X177619421Y-116529661D01*
X177888934Y-116631461D01*
X178880395Y-115640000D01*
X179239605Y-115640000D01*
X180231066Y-116631461D01*
X180500579Y-116529661D01*
X180646463Y-116231523D01*
X180731380Y-115910654D01*
X180744495Y-115700617D01*
X181767934Y-115700617D01*
X181812272Y-116029557D01*
X181919931Y-116343527D01*
X182019421Y-116529661D01*
X182288934Y-116631461D01*
X183280395Y-115640000D01*
X183639605Y-115640000D01*
X184631066Y-116631461D01*
X184900579Y-116529661D01*
X185046463Y-116231523D01*
X185131380Y-115910654D01*
X185152066Y-115579383D01*
X185107728Y-115250443D01*
X185000069Y-114936473D01*
X184900579Y-114750339D01*
X184631066Y-114648539D01*
X183639605Y-115640000D01*
X183280395Y-115640000D01*
X182288934Y-114648539D01*
X182019421Y-114750339D01*
X181873537Y-115048477D01*
X181788620Y-115369346D01*
X181767934Y-115700617D01*
X180744495Y-115700617D01*
X180752066Y-115579383D01*
X180707728Y-115250443D01*
X180600069Y-114936473D01*
X180500579Y-114750339D01*
X180231066Y-114648539D01*
X179239605Y-115640000D01*
X178880395Y-115640000D01*
X177888934Y-114648539D01*
X177619421Y-114750339D01*
X177473537Y-115048477D01*
X177388620Y-115369346D01*
X177367934Y-115700617D01*
X159788092Y-115700617D01*
X161019775Y-114468934D01*
X178068539Y-114468934D01*
X179060000Y-115460395D01*
X180051461Y-114468934D01*
X182468539Y-114468934D01*
X183460000Y-115460395D01*
X184451461Y-114468934D01*
X184349661Y-114199421D01*
X184051523Y-114053537D01*
X183730654Y-113968620D01*
X183399383Y-113947934D01*
X183070443Y-113992272D01*
X182756473Y-114099931D01*
X182570339Y-114199421D01*
X182468539Y-114468934D01*
X180051461Y-114468934D01*
X179949661Y-114199421D01*
X179651523Y-114053537D01*
X179330654Y-113968620D01*
X178999383Y-113947934D01*
X178670443Y-113992272D01*
X178356473Y-114099931D01*
X178170339Y-114199421D01*
X178068539Y-114468934D01*
X161019775Y-114468934D01*
X166484739Y-109003970D01*
X167986613Y-109003970D01*
X167986613Y-109436030D01*
X168070904Y-109859787D01*
X168236246Y-110258958D01*
X168476285Y-110618203D01*
X168781797Y-110923715D01*
X169141042Y-111163754D01*
X169540213Y-111329096D01*
X169963970Y-111413387D01*
X170396030Y-111413387D01*
X170819787Y-111329096D01*
X171218958Y-111163754D01*
X171578203Y-110923715D01*
X171883715Y-110618203D01*
X172123754Y-110258958D01*
X172289096Y-109859787D01*
X172373387Y-109436030D01*
X172373387Y-109003970D01*
X172289096Y-108580213D01*
X172123754Y-108181042D01*
X171883715Y-107821797D01*
X171578203Y-107516285D01*
X171218958Y-107276246D01*
X170819787Y-107110904D01*
X170396030Y-107026613D01*
X169963970Y-107026613D01*
X169540213Y-107110904D01*
X169141042Y-107276246D01*
X168781797Y-107516285D01*
X168476285Y-107821797D01*
X168236246Y-108181042D01*
X168070904Y-108580213D01*
X167986613Y-109003970D01*
X166484739Y-109003970D01*
X170124109Y-105364600D01*
X179203791Y-105364600D01*
X179223358Y-105588253D01*
X179653624Y-105953299D01*
X179756863Y-106023923D01*
X179871896Y-106073048D01*
X179994304Y-106098787D01*
X180119380Y-106100151D01*
X180242319Y-106077088D01*
X180358397Y-106030485D01*
X180463153Y-105962130D01*
X180552560Y-105874652D01*
X180912899Y-105440437D01*
X180893332Y-105216785D01*
X179974654Y-104445922D01*
X179203791Y-105364600D01*
X170124109Y-105364600D01*
X172117791Y-103370919D01*
X176723145Y-103370919D01*
X176772541Y-103463333D01*
X176958113Y-103689453D01*
X177184233Y-103875025D01*
X177442213Y-104012918D01*
X177722136Y-104097832D01*
X177940297Y-104119319D01*
X178086197Y-104119319D01*
X178182888Y-104109796D01*
X178152952Y-104179896D01*
X178127213Y-104302304D01*
X178125849Y-104427380D01*
X178148912Y-104550319D01*
X178195515Y-104666397D01*
X178263870Y-104771153D01*
X178351348Y-104860560D01*
X178785563Y-105220899D01*
X179009215Y-105201332D01*
X179780078Y-104282654D01*
X179764757Y-104269798D01*
X179780240Y-104251346D01*
X180137922Y-104251346D01*
X181056600Y-105022209D01*
X181280253Y-105002642D01*
X181645299Y-104572376D01*
X181715923Y-104469137D01*
X181765048Y-104354104D01*
X181790787Y-104231696D01*
X181792151Y-104106620D01*
X181769088Y-103983681D01*
X181722485Y-103867603D01*
X181654130Y-103762847D01*
X181566652Y-103673440D01*
X181132437Y-103313101D01*
X180908785Y-103332668D01*
X180137922Y-104251346D01*
X179780240Y-104251346D01*
X179928026Y-104075223D01*
X179943346Y-104088078D01*
X180714209Y-103169400D01*
X180694642Y-102945747D01*
X180264376Y-102580701D01*
X180161137Y-102510077D01*
X180046104Y-102460952D01*
X179923696Y-102435213D01*
X179798620Y-102433849D01*
X179675681Y-102456912D01*
X179559603Y-102503515D01*
X179496598Y-102544627D01*
X179476760Y-102343208D01*
X179391846Y-102063285D01*
X179253953Y-101805305D01*
X179068381Y-101579185D01*
X178842261Y-101393613D01*
X178584281Y-101255720D01*
X178304358Y-101170806D01*
X178086197Y-101149319D01*
X177940297Y-101149319D01*
X177722136Y-101170806D01*
X177537501Y-101226815D01*
X177559679Y-101001639D01*
X177531007Y-100710528D01*
X177446093Y-100430605D01*
X177308200Y-100172625D01*
X177122628Y-99946505D01*
X176896508Y-99760933D01*
X176638528Y-99623040D01*
X176358605Y-99538126D01*
X176140444Y-99516639D01*
X175994544Y-99516639D01*
X175776383Y-99538126D01*
X175591748Y-99594135D01*
X175613926Y-99368958D01*
X175585254Y-99077847D01*
X175500340Y-98797924D01*
X175362447Y-98539944D01*
X175176875Y-98313824D01*
X174950755Y-98128252D01*
X174692775Y-97990359D01*
X174412852Y-97905445D01*
X174194691Y-97883958D01*
X174048791Y-97883958D01*
X173830630Y-97905445D01*
X173645995Y-97961454D01*
X173668173Y-97736278D01*
X173639501Y-97445167D01*
X173554587Y-97165244D01*
X173416694Y-96907264D01*
X173231122Y-96681144D01*
X173005002Y-96495572D01*
X172747022Y-96357679D01*
X172467099Y-96272765D01*
X172248938Y-96251278D01*
X172103038Y-96251278D01*
X171884877Y-96272765D01*
X171700243Y-96328773D01*
X171722421Y-96103597D01*
X171693749Y-95812486D01*
X171608835Y-95532563D01*
X171470942Y-95274583D01*
X171285370Y-95048463D01*
X171059250Y-94862891D01*
X170801270Y-94724998D01*
X170521347Y-94640084D01*
X170303186Y-94618597D01*
X170157286Y-94618597D01*
X169939125Y-94640084D01*
X169659202Y-94724998D01*
X169401222Y-94862891D01*
X169175102Y-95048463D01*
X168989530Y-95274583D01*
X168851637Y-95532563D01*
X168766723Y-95812486D01*
X168738051Y-96103597D01*
X168766723Y-96394708D01*
X168851637Y-96674631D01*
X168989530Y-96932611D01*
X169175102Y-97158731D01*
X169401222Y-97344303D01*
X169493637Y-97393700D01*
X169493636Y-99862578D01*
X169493636Y-100294984D01*
X156696620Y-113092001D01*
X155022500Y-113092001D01*
X155022500Y-112991561D01*
X154982726Y-112791602D01*
X154904705Y-112603244D01*
X154791437Y-112433726D01*
X154647274Y-112289563D01*
X154477756Y-112176295D01*
X154289398Y-112098274D01*
X154089439Y-112058500D01*
X153885561Y-112058500D01*
X153685602Y-112098274D01*
X153497244Y-112176295D01*
X153327726Y-112289563D01*
X153183563Y-112433726D01*
X153070295Y-112603244D01*
X152992274Y-112791602D01*
X152952500Y-112991561D01*
X152952500Y-113092001D01*
X152400257Y-113092001D01*
X152375880Y-112969451D01*
X152297859Y-112781093D01*
X152184591Y-112611575D01*
X152040428Y-112467412D01*
X151870910Y-112354144D01*
X151682552Y-112276123D01*
X151482593Y-112236349D01*
X151278715Y-112236349D01*
X151078756Y-112276123D01*
X150890398Y-112354144D01*
X150864860Y-112371208D01*
X150858256Y-112366795D01*
X150669898Y-112288774D01*
X150469939Y-112249000D01*
X150266061Y-112249000D01*
X150066102Y-112288774D01*
X149877744Y-112366795D01*
X149708226Y-112480063D01*
X149564063Y-112624226D01*
X149450795Y-112793744D01*
X149372774Y-112982102D01*
X149333000Y-113182061D01*
X149333000Y-113293400D01*
X148705110Y-113293400D01*
X146511734Y-111100025D01*
X153699360Y-111100025D01*
X153766697Y-111167362D01*
X153936215Y-111280630D01*
X154124573Y-111358651D01*
X154324532Y-111398425D01*
X154528410Y-111398425D01*
X154728369Y-111358651D01*
X154916727Y-111280630D01*
X155086245Y-111167362D01*
X155230408Y-111023199D01*
X155343676Y-110853681D01*
X155421697Y-110665323D01*
X155461471Y-110465364D01*
X155461471Y-110261486D01*
X155421697Y-110061527D01*
X155343676Y-109873169D01*
X155230408Y-109703651D01*
X155086245Y-109559488D01*
X154916727Y-109446220D01*
X154728369Y-109368199D01*
X154528410Y-109328425D01*
X154431440Y-109328425D01*
X154396705Y-109244569D01*
X154283437Y-109075051D01*
X154139274Y-108930888D01*
X153969756Y-108817620D01*
X153781398Y-108739599D01*
X153659239Y-108715300D01*
X153618094Y-108615969D01*
X153504826Y-108446451D01*
X153360663Y-108302288D01*
X153191145Y-108189020D01*
X153002787Y-108110999D01*
X152802828Y-108071225D01*
X152598950Y-108071225D01*
X152398991Y-108110999D01*
X152255109Y-108170597D01*
X152252226Y-108156102D01*
X152174205Y-107967744D01*
X152060937Y-107798226D01*
X151993600Y-107730889D01*
X151993600Y-105700186D01*
X151997164Y-105664000D01*
X151982942Y-105519601D01*
X151968231Y-105471106D01*
X151940822Y-105380751D01*
X151872424Y-105252787D01*
X151821968Y-105191306D01*
X151803442Y-105168732D01*
X151803441Y-105168731D01*
X151780375Y-105140625D01*
X151752269Y-105117559D01*
X151117271Y-104482561D01*
X160763000Y-104482561D01*
X160763000Y-104686439D01*
X160802774Y-104886398D01*
X160880795Y-105074756D01*
X160994063Y-105244274D01*
X161138226Y-105388437D01*
X161307744Y-105501705D01*
X161496102Y-105579726D01*
X161696061Y-105619500D01*
X161899939Y-105619500D01*
X162099898Y-105579726D01*
X162288256Y-105501705D01*
X162457774Y-105388437D01*
X162601937Y-105244274D01*
X162715205Y-105074756D01*
X162793226Y-104886398D01*
X162833000Y-104686439D01*
X162833000Y-104482561D01*
X162793226Y-104282602D01*
X162715205Y-104094244D01*
X162601937Y-103924726D01*
X162457774Y-103780563D01*
X162288256Y-103667295D01*
X162099898Y-103589274D01*
X161899939Y-103549500D01*
X161696061Y-103549500D01*
X161496102Y-103589274D01*
X161307744Y-103667295D01*
X161138226Y-103780563D01*
X160994063Y-103924726D01*
X160880795Y-104094244D01*
X160802774Y-104282602D01*
X160763000Y-104482561D01*
X151117271Y-104482561D01*
X148679210Y-102044500D01*
X160686815Y-102044500D01*
X160715487Y-102335611D01*
X160800401Y-102615534D01*
X160938294Y-102873514D01*
X161123866Y-103099634D01*
X161349986Y-103285206D01*
X161607966Y-103423099D01*
X161887889Y-103508013D01*
X162106050Y-103529500D01*
X162251950Y-103529500D01*
X162470111Y-103508013D01*
X162750034Y-103423099D01*
X163008014Y-103285206D01*
X163234134Y-103099634D01*
X163419706Y-102873514D01*
X163557599Y-102615534D01*
X163642513Y-102335611D01*
X163671185Y-102044500D01*
X163642513Y-101753389D01*
X163557599Y-101473466D01*
X163419706Y-101215486D01*
X163234134Y-100989366D01*
X163204313Y-100964893D01*
X163273180Y-100944002D01*
X163383494Y-100885037D01*
X163480185Y-100805685D01*
X163559537Y-100708994D01*
X163618502Y-100598680D01*
X163654812Y-100478982D01*
X163667072Y-100354500D01*
X163667072Y-98654500D01*
X163654812Y-98530018D01*
X163618502Y-98410320D01*
X163559537Y-98300006D01*
X163480185Y-98203315D01*
X163383494Y-98123963D01*
X163273180Y-98064998D01*
X163153482Y-98028688D01*
X163029000Y-98016428D01*
X161329000Y-98016428D01*
X161204518Y-98028688D01*
X161084820Y-98064998D01*
X160974506Y-98123963D01*
X160877815Y-98203315D01*
X160798463Y-98300006D01*
X160739498Y-98410320D01*
X160703188Y-98530018D01*
X160690928Y-98654500D01*
X160690928Y-100354500D01*
X160703188Y-100478982D01*
X160739498Y-100598680D01*
X160798463Y-100708994D01*
X160877815Y-100805685D01*
X160974506Y-100885037D01*
X161084820Y-100944002D01*
X161153687Y-100964893D01*
X161123866Y-100989366D01*
X160938294Y-101215486D01*
X160800401Y-101473466D01*
X160715487Y-101753389D01*
X160686815Y-102044500D01*
X148679210Y-102044500D01*
X148355000Y-101720291D01*
X148355000Y-101625061D01*
X148315226Y-101425102D01*
X148237205Y-101236744D01*
X148123937Y-101067226D01*
X147979774Y-100923063D01*
X147810256Y-100809795D01*
X147621898Y-100731774D01*
X147421939Y-100692000D01*
X147218061Y-100692000D01*
X147018102Y-100731774D01*
X146829744Y-100809795D01*
X146660226Y-100923063D01*
X146516063Y-101067226D01*
X146402795Y-101236744D01*
X146324774Y-101425102D01*
X146285000Y-101625061D01*
X146285000Y-101828939D01*
X146324774Y-102028898D01*
X146402795Y-102217256D01*
X146516063Y-102386774D01*
X146660226Y-102530937D01*
X146829744Y-102644205D01*
X147018102Y-102722226D01*
X147218061Y-102762000D01*
X147313291Y-102762000D01*
X150306290Y-105755000D01*
X150298061Y-105755000D01*
X150098102Y-105794774D01*
X149909744Y-105872795D01*
X149740226Y-105986063D01*
X149596063Y-106130226D01*
X149482795Y-106299744D01*
X149404774Y-106488102D01*
X149365000Y-106688061D01*
X149365000Y-106803290D01*
X148574891Y-107593400D01*
X145807111Y-107593400D01*
X145739774Y-107526063D01*
X145570256Y-107412795D01*
X145381898Y-107334774D01*
X145181939Y-107295000D01*
X144978061Y-107295000D01*
X144778102Y-107334774D01*
X144589744Y-107412795D01*
X144420226Y-107526063D01*
X144276063Y-107670226D01*
X144162795Y-107839744D01*
X144084774Y-108028102D01*
X144045000Y-108228061D01*
X144045000Y-108369625D01*
X141069950Y-108369625D01*
X141033774Y-108366062D01*
X140997598Y-108369625D01*
X140997589Y-108369625D01*
X140889376Y-108380283D01*
X140750526Y-108422403D01*
X140622562Y-108490801D01*
X140510400Y-108582850D01*
X140487329Y-108610962D01*
X137135101Y-111963190D01*
X128636385Y-111963190D01*
X128600209Y-111959627D01*
X128564033Y-111963190D01*
X128564024Y-111963190D01*
X128455811Y-111973848D01*
X128316961Y-112015968D01*
X128188997Y-112084366D01*
X128076835Y-112176415D01*
X128053769Y-112204521D01*
X126739291Y-113519000D01*
X126657100Y-113519000D01*
X126657100Y-108995890D01*
X132344573Y-108995890D01*
X132344573Y-109444110D01*
X132432016Y-109883718D01*
X132603543Y-110297819D01*
X132852560Y-110670500D01*
X133169500Y-110987440D01*
X133542181Y-111236457D01*
X133956282Y-111407984D01*
X134395890Y-111495427D01*
X134844110Y-111495427D01*
X135283718Y-111407984D01*
X135697819Y-111236457D01*
X136070500Y-110987440D01*
X136387440Y-110670500D01*
X136636457Y-110297819D01*
X136807984Y-109883718D01*
X136895427Y-109444110D01*
X136895427Y-108995890D01*
X136807984Y-108556282D01*
X136636457Y-108142181D01*
X136387440Y-107769500D01*
X136070500Y-107452560D01*
X135697819Y-107203543D01*
X135283718Y-107032016D01*
X134844110Y-106944573D01*
X134395890Y-106944573D01*
X133956282Y-107032016D01*
X133542181Y-107203543D01*
X133169500Y-107452560D01*
X132852560Y-107769500D01*
X132603543Y-108142181D01*
X132432016Y-108556282D01*
X132344573Y-108995890D01*
X126657100Y-108995890D01*
X126657100Y-104445109D01*
X126947104Y-104155105D01*
X130172883Y-100984000D01*
X130276939Y-100984000D01*
X130476898Y-100944226D01*
X130665256Y-100866205D01*
X130834774Y-100752937D01*
X130978937Y-100608774D01*
X131092205Y-100439256D01*
X131170226Y-100250898D01*
X131210000Y-100050939D01*
X131210000Y-99847061D01*
X131170226Y-99647102D01*
X131092205Y-99458744D01*
X130978937Y-99289226D01*
X130834774Y-99145063D01*
X130665256Y-99031795D01*
X130476898Y-98953774D01*
X130276939Y-98914000D01*
X130073061Y-98914000D01*
X129873102Y-98953774D01*
X129684744Y-99031795D01*
X129515226Y-99145063D01*
X129371063Y-99289226D01*
X129257795Y-99458744D01*
X129179774Y-99647102D01*
X129140000Y-99847061D01*
X129140000Y-99933539D01*
X125935673Y-103083556D01*
X125933232Y-103085559D01*
X125909852Y-103108939D01*
X125886311Y-103132081D01*
X125884291Y-103134500D01*
X125425232Y-103593559D01*
X125397126Y-103616625D01*
X125374060Y-103644731D01*
X125374058Y-103644733D01*
X125305076Y-103728788D01*
X125236678Y-103856753D01*
X125223529Y-103900101D01*
X125207599Y-103952616D01*
X125194559Y-103995602D01*
X125180336Y-104140000D01*
X125183901Y-104176193D01*
X125183900Y-131091317D01*
X125180336Y-131127500D01*
X125183900Y-131163683D01*
X125183900Y-131163685D01*
X125194558Y-131271898D01*
X125236678Y-131410748D01*
X125305076Y-131538712D01*
X125397125Y-131650874D01*
X125425232Y-131673941D01*
X126491691Y-132740400D01*
X124806111Y-132740400D01*
X124738774Y-132673063D01*
X124569256Y-132559795D01*
X124380898Y-132481774D01*
X124180939Y-132442000D01*
X123977061Y-132442000D01*
X123777102Y-132481774D01*
X123588744Y-132559795D01*
X123419226Y-132673063D01*
X123275063Y-132817226D01*
X123161795Y-132986744D01*
X123083774Y-133175102D01*
X123044000Y-133375061D01*
X123044000Y-133578939D01*
X123083774Y-133778898D01*
X123161795Y-133967256D01*
X123169902Y-133979389D01*
X121024291Y-136125000D01*
X120929061Y-136125000D01*
X120729102Y-136164774D01*
X120540744Y-136242795D01*
X120371226Y-136356063D01*
X120227063Y-136500226D01*
X120113795Y-136669744D01*
X120035774Y-136858102D01*
X119996000Y-137058061D01*
X119996000Y-137261939D01*
X120035774Y-137461898D01*
X120113795Y-137650256D01*
X120227063Y-137819774D01*
X120371226Y-137963937D01*
X120540744Y-138077205D01*
X120729102Y-138155226D01*
X120929061Y-138195000D01*
X121132939Y-138195000D01*
X121332898Y-138155226D01*
X121521256Y-138077205D01*
X121690774Y-137963937D01*
X121834937Y-137819774D01*
X121948205Y-137650256D01*
X122026226Y-137461898D01*
X122066000Y-137261939D01*
X122066000Y-137166709D01*
X124574268Y-134658441D01*
X124602374Y-134635375D01*
X124694424Y-134523213D01*
X124762822Y-134395249D01*
X124804942Y-134256399D01*
X124809157Y-134213600D01*
X127542889Y-134213600D01*
X127610226Y-134280937D01*
X127779744Y-134394205D01*
X127968102Y-134472226D01*
X128168061Y-134512000D01*
X128263290Y-134512000D01*
X128352160Y-134600870D01*
X128375226Y-134628976D01*
X128403332Y-134652042D01*
X128403333Y-134652043D01*
X128428001Y-134672287D01*
X128487388Y-134721025D01*
X128615352Y-134789423D01*
X128754202Y-134831543D01*
X128862415Y-134842201D01*
X128862424Y-134842201D01*
X128898600Y-134845764D01*
X128934776Y-134842201D01*
X164194188Y-134842201D01*
X164015176Y-134916350D01*
X163771955Y-135078865D01*
X163565112Y-135285708D01*
X163540508Y-135322530D01*
X163452382Y-135263646D01*
X163182129Y-135151704D01*
X162895231Y-135094636D01*
X162602711Y-135094636D01*
X162315813Y-135151704D01*
X162045560Y-135263646D01*
X161802339Y-135426161D01*
X161595496Y-135633004D01*
X161570892Y-135669826D01*
X161482767Y-135610943D01*
X161212514Y-135499001D01*
X160925616Y-135441933D01*
X160633096Y-135441933D01*
X160346198Y-135499001D01*
X160075945Y-135610943D01*
X159832724Y-135773458D01*
X159625881Y-135980301D01*
X159601277Y-136017123D01*
X159513151Y-135958239D01*
X159242898Y-135846297D01*
X158956000Y-135789229D01*
X158663480Y-135789229D01*
X158376582Y-135846297D01*
X158106329Y-135958239D01*
X157863108Y-136120754D01*
X157656265Y-136327597D01*
X157631661Y-136364419D01*
X157543536Y-136305536D01*
X157273283Y-136193594D01*
X156986385Y-136136526D01*
X156693865Y-136136526D01*
X156406967Y-136193594D01*
X156136714Y-136305536D01*
X155893493Y-136468051D01*
X155686650Y-136674894D01*
X155662046Y-136711716D01*
X155573920Y-136652832D01*
X155303667Y-136540890D01*
X155016769Y-136483822D01*
X154724249Y-136483822D01*
X154437351Y-136540890D01*
X154167098Y-136652832D01*
X153923877Y-136815347D01*
X153717034Y-137022190D01*
X153692431Y-137059012D01*
X153604305Y-137000128D01*
X153334052Y-136888186D01*
X153047154Y-136831118D01*
X152754634Y-136831118D01*
X152467736Y-136888186D01*
X152197483Y-137000128D01*
X151954262Y-137162643D01*
X151747419Y-137369486D01*
X151722815Y-137406309D01*
X151634689Y-137347425D01*
X151364436Y-137235483D01*
X151077538Y-137178415D01*
X150785018Y-137178415D01*
X150498120Y-137235483D01*
X150227867Y-137347425D01*
X149984646Y-137509940D01*
X149777803Y-137716783D01*
X149753200Y-137753605D01*
X149665074Y-137694721D01*
X149394821Y-137582779D01*
X149107923Y-137525711D01*
X148815403Y-137525711D01*
X148528505Y-137582779D01*
X148258252Y-137694721D01*
X148015031Y-137857236D01*
X147808188Y-138064079D01*
X147645673Y-138307300D01*
X147533731Y-138577553D01*
X147519041Y-138651405D01*
X147006188Y-139164258D01*
X147185796Y-139343866D01*
X147188874Y-139340788D01*
X147614472Y-139638795D01*
X147645673Y-139714122D01*
X147808188Y-139957343D01*
X148015031Y-140164186D01*
X148258252Y-140326701D01*
X148528505Y-140438643D01*
X148815403Y-140495711D01*
X149107923Y-140495711D01*
X149394821Y-140438643D01*
X149665074Y-140326701D01*
X149908295Y-140164186D01*
X150115138Y-139957343D01*
X150139741Y-139920521D01*
X150227867Y-139979405D01*
X150498120Y-140091347D01*
X150785018Y-140148415D01*
X151077538Y-140148415D01*
X151364436Y-140091347D01*
X151634689Y-139979405D01*
X151877910Y-139816890D01*
X152084753Y-139610047D01*
X152109357Y-139573224D01*
X152197483Y-139632108D01*
X152467736Y-139744050D01*
X152754634Y-139801118D01*
X153047154Y-139801118D01*
X153334052Y-139744050D01*
X153604305Y-139632108D01*
X153847526Y-139469593D01*
X154054369Y-139262750D01*
X154078972Y-139225928D01*
X154167098Y-139284812D01*
X154437351Y-139396754D01*
X154724249Y-139453822D01*
X155016769Y-139453822D01*
X155303667Y-139396754D01*
X155573920Y-139284812D01*
X155817141Y-139122297D01*
X156023984Y-138915454D01*
X156048588Y-138878632D01*
X156136714Y-138937516D01*
X156406967Y-139049458D01*
X156693865Y-139106526D01*
X156986385Y-139106526D01*
X157273283Y-139049458D01*
X157543536Y-138937516D01*
X157786757Y-138775001D01*
X157993600Y-138568158D01*
X158018204Y-138531336D01*
X158106329Y-138590219D01*
X158376582Y-138702161D01*
X158663480Y-138759229D01*
X158956000Y-138759229D01*
X159242898Y-138702161D01*
X159513151Y-138590219D01*
X159756372Y-138427704D01*
X159963215Y-138220861D01*
X159987819Y-138184039D01*
X160075945Y-138242923D01*
X160346198Y-138354865D01*
X160633096Y-138411933D01*
X160925616Y-138411933D01*
X161212514Y-138354865D01*
X161482767Y-138242923D01*
X161725988Y-138080408D01*
X161932831Y-137873565D01*
X161957435Y-137836743D01*
X162045560Y-137895626D01*
X162315813Y-138007568D01*
X162602711Y-138064636D01*
X162895231Y-138064636D01*
X163182129Y-138007568D01*
X163452382Y-137895626D01*
X163695603Y-137733111D01*
X163902446Y-137526268D01*
X163927050Y-137489446D01*
X164015176Y-137548330D01*
X164285429Y-137660272D01*
X164572327Y-137717340D01*
X164864847Y-137717340D01*
X165151745Y-137660272D01*
X165421998Y-137548330D01*
X165665219Y-137385815D01*
X165872062Y-137178972D01*
X166034577Y-136935751D01*
X166146519Y-136665498D01*
X166203587Y-136378600D01*
X166203587Y-136086080D01*
X166146519Y-135799182D01*
X166034577Y-135528929D01*
X165872062Y-135285708D01*
X165665219Y-135078865D01*
X165421998Y-134916350D01*
X165242986Y-134842201D01*
X169846419Y-134842201D01*
X148834221Y-155854400D01*
X135229511Y-155854400D01*
X135180115Y-155761986D01*
X134994543Y-155535866D01*
X134768423Y-155350294D01*
X134510443Y-155212401D01*
X134230520Y-155127487D01*
X134012359Y-155106000D01*
X133866459Y-155106000D01*
X133648298Y-155127487D01*
X133368375Y-155212401D01*
X133228555Y-155287136D01*
X133203218Y-155029889D01*
X133118304Y-154749966D01*
X132980411Y-154491986D01*
X132794839Y-154265866D01*
X132568719Y-154080294D01*
X132310739Y-153942401D01*
X132030816Y-153857487D01*
X131812655Y-153836000D01*
X131666755Y-153836000D01*
X131448594Y-153857487D01*
X131316381Y-153897594D01*
X131333735Y-153823163D01*
X131337827Y-153698146D01*
X131317452Y-153574733D01*
X131273391Y-153457667D01*
X131207339Y-153351445D01*
X131121832Y-153260150D01*
X131020158Y-153187292D01*
X130529967Y-152907827D01*
X130313110Y-152965934D01*
X129713485Y-154004515D01*
X129730806Y-154014515D01*
X129603806Y-154234485D01*
X129586485Y-154224485D01*
X128986860Y-155263066D01*
X129044967Y-155479923D01*
X129532086Y-155764708D01*
X129646020Y-155816332D01*
X129767837Y-155844735D01*
X129892854Y-155848827D01*
X130016267Y-155828452D01*
X130133333Y-155784391D01*
X130239555Y-155718339D01*
X130293180Y-155668114D01*
X130361106Y-155892034D01*
X130498999Y-156150014D01*
X130684571Y-156376134D01*
X130910691Y-156561706D01*
X131168671Y-156699599D01*
X131448594Y-156784513D01*
X131666755Y-156806000D01*
X131812655Y-156806000D01*
X132030816Y-156784513D01*
X132310739Y-156699599D01*
X132450559Y-156624864D01*
X132475896Y-156882111D01*
X132560810Y-157162034D01*
X132698703Y-157420014D01*
X132884275Y-157646134D01*
X133110395Y-157831706D01*
X133368375Y-157969599D01*
X133648298Y-158054513D01*
X133866459Y-158076000D01*
X134012359Y-158076000D01*
X134230520Y-158054513D01*
X134510443Y-157969599D01*
X134650264Y-157894863D01*
X134675601Y-158152111D01*
X134760515Y-158432034D01*
X134898408Y-158690014D01*
X135083980Y-158916134D01*
X135310100Y-159101706D01*
X135568080Y-159239599D01*
X135848003Y-159324513D01*
X136066164Y-159346000D01*
X136212064Y-159346000D01*
X136430225Y-159324513D01*
X136710148Y-159239599D01*
X136849968Y-159164864D01*
X136875305Y-159422111D01*
X136960219Y-159702034D01*
X137098112Y-159960014D01*
X137283684Y-160186134D01*
X137509804Y-160371706D01*
X137767784Y-160509599D01*
X138047707Y-160594513D01*
X138265868Y-160616000D01*
X138411768Y-160616000D01*
X138629929Y-160594513D01*
X138909852Y-160509599D01*
X139049673Y-160434863D01*
X139075010Y-160692111D01*
X139159924Y-160972034D01*
X139297817Y-161230014D01*
X139483389Y-161456134D01*
X139709509Y-161641706D01*
X139967489Y-161779599D01*
X140247412Y-161864513D01*
X140465573Y-161886000D01*
X140611473Y-161886000D01*
X140829634Y-161864513D01*
X141109557Y-161779599D01*
X141367537Y-161641706D01*
X141593657Y-161456134D01*
X141779229Y-161230014D01*
X141917122Y-160972034D01*
X141945793Y-160877518D01*
X149327307Y-160877518D01*
X149327307Y-161170038D01*
X149384375Y-161456936D01*
X149496317Y-161727189D01*
X149658832Y-161970410D01*
X149865675Y-162177253D01*
X150108896Y-162339768D01*
X150379149Y-162451710D01*
X150666047Y-162508778D01*
X150958567Y-162508778D01*
X151245465Y-162451710D01*
X151515718Y-162339768D01*
X151758939Y-162177253D01*
X151965782Y-161970410D01*
X151990386Y-161933588D01*
X152078512Y-161992472D01*
X152348765Y-162104414D01*
X152635663Y-162161482D01*
X152928183Y-162161482D01*
X153215081Y-162104414D01*
X153485334Y-161992472D01*
X153728555Y-161829957D01*
X153935398Y-161623114D01*
X153960002Y-161586292D01*
X154048127Y-161645175D01*
X154318380Y-161757117D01*
X154605278Y-161814185D01*
X154897798Y-161814185D01*
X155184696Y-161757117D01*
X155454949Y-161645175D01*
X155698170Y-161482660D01*
X155905013Y-161275817D01*
X155994390Y-161142054D01*
X156063836Y-161142054D01*
X156183544Y-161373863D01*
X156465434Y-161451999D01*
X156757152Y-161473641D01*
X157047486Y-161437954D01*
X157325280Y-161346312D01*
X157579858Y-161202235D01*
X157702426Y-161106043D01*
X157735630Y-160847271D01*
X156752342Y-160158766D01*
X156063836Y-161142054D01*
X155994390Y-161142054D01*
X156067528Y-161032596D01*
X156179470Y-160762343D01*
X156194160Y-160688491D01*
X156707013Y-160175638D01*
X156527405Y-159996030D01*
X156524327Y-159999108D01*
X156098729Y-159701101D01*
X156067528Y-159625774D01*
X155905013Y-159382553D01*
X155698170Y-159175710D01*
X155609567Y-159116507D01*
X155706678Y-159116507D01*
X156689966Y-159805012D01*
X156701779Y-159788140D01*
X156735295Y-159788140D01*
X156914903Y-159967748D01*
X156917981Y-159964670D01*
X157343578Y-160262676D01*
X157374779Y-160338003D01*
X157537294Y-160581224D01*
X157744137Y-160788067D01*
X157987358Y-160950582D01*
X158257611Y-161062524D01*
X158544509Y-161119592D01*
X158837029Y-161119592D01*
X159123927Y-161062524D01*
X159394180Y-160950582D01*
X159637401Y-160788067D01*
X159844244Y-160581224D01*
X159868848Y-160544402D01*
X159956974Y-160603286D01*
X160227227Y-160715228D01*
X160514125Y-160772296D01*
X160806645Y-160772296D01*
X161093543Y-160715228D01*
X161363796Y-160603286D01*
X161607017Y-160440771D01*
X161813860Y-160233928D01*
X161838463Y-160197106D01*
X161926589Y-160255990D01*
X162196842Y-160367932D01*
X162483740Y-160425000D01*
X162776260Y-160425000D01*
X163063158Y-160367932D01*
X163333411Y-160255990D01*
X163576632Y-160093475D01*
X163783475Y-159886632D01*
X163808079Y-159849809D01*
X163896205Y-159908693D01*
X164166458Y-160020635D01*
X164453356Y-160077703D01*
X164745876Y-160077703D01*
X165032774Y-160020635D01*
X165303027Y-159908693D01*
X165546248Y-159746178D01*
X165753091Y-159539335D01*
X165777694Y-159502513D01*
X165865820Y-159561397D01*
X166136073Y-159673339D01*
X166422971Y-159730407D01*
X166715491Y-159730407D01*
X167002389Y-159673339D01*
X167272642Y-159561397D01*
X167515863Y-159398882D01*
X167722706Y-159192039D01*
X167747310Y-159155217D01*
X167835436Y-159214101D01*
X168105689Y-159326043D01*
X168392587Y-159383111D01*
X168685107Y-159383111D01*
X168972005Y-159326043D01*
X169242258Y-159214101D01*
X169485479Y-159051586D01*
X169692322Y-158844743D01*
X169854837Y-158601522D01*
X169966779Y-158331269D01*
X170023847Y-158044371D01*
X170023847Y-157751851D01*
X169966779Y-157464953D01*
X169854837Y-157194700D01*
X169692322Y-156951479D01*
X169485479Y-156744636D01*
X169242258Y-156582121D01*
X168972005Y-156470179D01*
X168685107Y-156413111D01*
X168392587Y-156413111D01*
X168105689Y-156470179D01*
X167835436Y-156582121D01*
X167592215Y-156744636D01*
X167385372Y-156951479D01*
X167360768Y-156988301D01*
X167272642Y-156929417D01*
X167002389Y-156817475D01*
X166715491Y-156760407D01*
X166422971Y-156760407D01*
X166136073Y-156817475D01*
X165865820Y-156929417D01*
X165622599Y-157091932D01*
X165415756Y-157298775D01*
X165391153Y-157335597D01*
X165303027Y-157276713D01*
X165032774Y-157164771D01*
X164745876Y-157107703D01*
X164453356Y-157107703D01*
X164166458Y-157164771D01*
X163896205Y-157276713D01*
X163652984Y-157439228D01*
X163446141Y-157646071D01*
X163421537Y-157682894D01*
X163333411Y-157624010D01*
X163063158Y-157512068D01*
X162776260Y-157455000D01*
X162483740Y-157455000D01*
X162196842Y-157512068D01*
X161926589Y-157624010D01*
X161683368Y-157786525D01*
X161476525Y-157993368D01*
X161451922Y-158030190D01*
X161363796Y-157971306D01*
X161093543Y-157859364D01*
X160806645Y-157802296D01*
X160514125Y-157802296D01*
X160227227Y-157859364D01*
X159956974Y-157971306D01*
X159713753Y-158133821D01*
X159506910Y-158340664D01*
X159482306Y-158377486D01*
X159394180Y-158318602D01*
X159123927Y-158206660D01*
X158837029Y-158149592D01*
X158544509Y-158149592D01*
X158257611Y-158206660D01*
X157987358Y-158318602D01*
X157744137Y-158481117D01*
X157537294Y-158687960D01*
X157374779Y-158931181D01*
X157262837Y-159201434D01*
X157248146Y-159275289D01*
X156735295Y-159788140D01*
X156701779Y-159788140D01*
X157378472Y-158821724D01*
X157258764Y-158589915D01*
X156976874Y-158511779D01*
X156685156Y-158490137D01*
X156394822Y-158525824D01*
X156117028Y-158617466D01*
X155862450Y-158761543D01*
X155739882Y-158857735D01*
X155706678Y-159116507D01*
X155609567Y-159116507D01*
X155454949Y-159013195D01*
X155184696Y-158901253D01*
X154897798Y-158844185D01*
X154605278Y-158844185D01*
X154318380Y-158901253D01*
X154048127Y-159013195D01*
X153804906Y-159175710D01*
X153598063Y-159382553D01*
X153573459Y-159419375D01*
X153485334Y-159360492D01*
X153215081Y-159248550D01*
X152928183Y-159191482D01*
X152635663Y-159191482D01*
X152348765Y-159248550D01*
X152078512Y-159360492D01*
X151835291Y-159523007D01*
X151628448Y-159729850D01*
X151603844Y-159766672D01*
X151515718Y-159707788D01*
X151245465Y-159595846D01*
X150958567Y-159538778D01*
X150666047Y-159538778D01*
X150379149Y-159595846D01*
X150108896Y-159707788D01*
X149865675Y-159870303D01*
X149658832Y-160077146D01*
X149496317Y-160320367D01*
X149384375Y-160590620D01*
X149327307Y-160877518D01*
X141945793Y-160877518D01*
X142002036Y-160692111D01*
X142030708Y-160401000D01*
X142002036Y-160109889D01*
X141917122Y-159829966D01*
X141779229Y-159571986D01*
X141593657Y-159345866D01*
X141367537Y-159160294D01*
X141109557Y-159022401D01*
X140829634Y-158937487D01*
X140611473Y-158916000D01*
X140465573Y-158916000D01*
X140247412Y-158937487D01*
X139967489Y-159022401D01*
X139827668Y-159097137D01*
X139802331Y-158839889D01*
X139717417Y-158559966D01*
X139579524Y-158301986D01*
X139393952Y-158075866D01*
X139167832Y-157890294D01*
X138909852Y-157752401D01*
X138629929Y-157667487D01*
X138411768Y-157646000D01*
X138265868Y-157646000D01*
X138047707Y-157667487D01*
X137767784Y-157752401D01*
X137627964Y-157827136D01*
X137602627Y-157569889D01*
X137529129Y-157327600D01*
X149103147Y-157327600D01*
X149139330Y-157331164D01*
X149175513Y-157327600D01*
X149175516Y-157327600D01*
X149283729Y-157316942D01*
X149422579Y-157274822D01*
X149550543Y-157206424D01*
X149662705Y-157114375D01*
X149685776Y-157086263D01*
X162208069Y-144563970D01*
X167986613Y-144563970D01*
X167986613Y-144996030D01*
X168070904Y-145419787D01*
X168236246Y-145818958D01*
X168476285Y-146178203D01*
X168781797Y-146483715D01*
X169141042Y-146723754D01*
X169540213Y-146889096D01*
X169963970Y-146973387D01*
X170396030Y-146973387D01*
X170819787Y-146889096D01*
X171218958Y-146723754D01*
X171578203Y-146483715D01*
X171883715Y-146178203D01*
X172123754Y-145818958D01*
X172289096Y-145419787D01*
X172373387Y-144996030D01*
X172373387Y-144563970D01*
X172289096Y-144140213D01*
X172123754Y-143741042D01*
X171883715Y-143381797D01*
X171578203Y-143076285D01*
X171218958Y-142836246D01*
X170819787Y-142670904D01*
X170396030Y-142586613D01*
X169963970Y-142586613D01*
X169540213Y-142670904D01*
X169141042Y-142836246D01*
X168781797Y-143076285D01*
X168476285Y-143381797D01*
X168236246Y-143741042D01*
X168070904Y-144140213D01*
X167986613Y-144563970D01*
X162208069Y-144563970D01*
X170451478Y-136320561D01*
X171072500Y-136320561D01*
X171072500Y-136524439D01*
X171112274Y-136724398D01*
X171190295Y-136912756D01*
X171303563Y-137082274D01*
X171447726Y-137226437D01*
X171617244Y-137339705D01*
X171805602Y-137417726D01*
X172005561Y-137457500D01*
X172209439Y-137457500D01*
X172409398Y-137417726D01*
X172597756Y-137339705D01*
X172767274Y-137226437D01*
X172911437Y-137082274D01*
X173024705Y-136912756D01*
X173102726Y-136724398D01*
X173142500Y-136524439D01*
X173142500Y-136320561D01*
X173102726Y-136120602D01*
X173024705Y-135932244D01*
X172911437Y-135762726D01*
X172767274Y-135618563D01*
X172597756Y-135505295D01*
X172409398Y-135427274D01*
X172209439Y-135387500D01*
X172005561Y-135387500D01*
X171805602Y-135427274D01*
X171617244Y-135505295D01*
X171447726Y-135618563D01*
X171303563Y-135762726D01*
X171190295Y-135932244D01*
X171112274Y-136120602D01*
X171072500Y-136320561D01*
X170451478Y-136320561D01*
X173335875Y-133436165D01*
X173363975Y-133413104D01*
X173387038Y-133385002D01*
X173387043Y-133384997D01*
X173456025Y-133300942D01*
X173503179Y-133212722D01*
X173524423Y-133172978D01*
X173566543Y-133034128D01*
X173577201Y-132925915D01*
X173577201Y-132925914D01*
X173580765Y-132889729D01*
X173577201Y-132853543D01*
X173577201Y-132192609D01*
X173592795Y-132230256D01*
X173706063Y-132399774D01*
X173850226Y-132543937D01*
X174019744Y-132657205D01*
X174208102Y-132735226D01*
X174408061Y-132775000D01*
X174611939Y-132775000D01*
X174811898Y-132735226D01*
X175000256Y-132657205D01*
X175108001Y-132585213D01*
X175108001Y-139667064D01*
X175104808Y-139698980D01*
X175108001Y-139731918D01*
X175108001Y-139732419D01*
X175111083Y-139763713D01*
X175117352Y-139828381D01*
X175117501Y-139828875D01*
X175117551Y-139829383D01*
X175136246Y-139891010D01*
X175154901Y-139952849D01*
X175155142Y-139953301D01*
X175155291Y-139953793D01*
X175185711Y-140010706D01*
X175216009Y-140067600D01*
X175216334Y-140067997D01*
X175216576Y-140068450D01*
X175257477Y-140118288D01*
X175298331Y-140168225D01*
X175298728Y-140168552D01*
X175299053Y-140168948D01*
X175348847Y-140209813D01*
X175398702Y-140250857D01*
X175399155Y-140251100D01*
X175399551Y-140251425D01*
X175456531Y-140281881D01*
X175513265Y-140312318D01*
X175513753Y-140312467D01*
X175514208Y-140312710D01*
X175576027Y-140331463D01*
X175637616Y-140350250D01*
X175638127Y-140350301D01*
X175638618Y-140350450D01*
X175702980Y-140356789D01*
X175734566Y-140359949D01*
X175735071Y-140359950D01*
X175768000Y-140363193D01*
X175799916Y-140360050D01*
X187331773Y-140377802D01*
X186795464Y-141749108D01*
X185771977Y-143937983D01*
X184609362Y-146056262D01*
X183312488Y-148095076D01*
X181886740Y-150045961D01*
X180338072Y-151900769D01*
X178672933Y-153651775D01*
X176898269Y-155291676D01*
X175021478Y-156813636D01*
X173050384Y-158211309D01*
X170993203Y-159478869D01*
X168858515Y-160611031D01*
X166655207Y-161603080D01*
X164392472Y-162450878D01*
X162079754Y-163150885D01*
X159726680Y-163700189D01*
X157343064Y-164096499D01*
X154938830Y-164338164D01*
X152524015Y-164424173D01*
X150108693Y-164354171D01*
X147702923Y-164128447D01*
X145316713Y-163747941D01*
X142960057Y-163214246D01*
X140642752Y-162529583D01*
X138374439Y-161696797D01*
X136164611Y-160719375D01*
X134022465Y-159601386D01*
X131956937Y-158347493D01*
X129976608Y-156962905D01*
X128089774Y-155453419D01*
X126938747Y-154403854D01*
X127742173Y-154403854D01*
X127762548Y-154527267D01*
X127806609Y-154644333D01*
X127872661Y-154750555D01*
X127958168Y-154841850D01*
X128059842Y-154914708D01*
X128550033Y-155194173D01*
X128766890Y-155136066D01*
X129366515Y-154097485D01*
X128327934Y-153497860D01*
X128111077Y-153555967D01*
X127826292Y-154043086D01*
X127774668Y-154157020D01*
X127746265Y-154278837D01*
X127742173Y-154403854D01*
X126938747Y-154403854D01*
X126304287Y-153825322D01*
X125567771Y-153061033D01*
X128396827Y-153061033D01*
X128454934Y-153277890D01*
X129493515Y-153877515D01*
X130093140Y-152838934D01*
X130035033Y-152622077D01*
X129547914Y-152337292D01*
X129433980Y-152285668D01*
X129312163Y-152257265D01*
X129187146Y-152253173D01*
X129063733Y-152273548D01*
X128946667Y-152317609D01*
X128840445Y-152383661D01*
X128749150Y-152469168D01*
X128676292Y-152570842D01*
X128396827Y-153061033D01*
X125567771Y-153061033D01*
X124627584Y-152085395D01*
X123066645Y-150240878D01*
X121628008Y-148299500D01*
X121439902Y-148008061D01*
X131135000Y-148008061D01*
X131135000Y-148211939D01*
X131174774Y-148411898D01*
X131252795Y-148600256D01*
X131366063Y-148769774D01*
X131510226Y-148913937D01*
X131679744Y-149027205D01*
X131868102Y-149105226D01*
X132068061Y-149145000D01*
X132271939Y-149145000D01*
X132471898Y-149105226D01*
X132660256Y-149027205D01*
X132829774Y-148913937D01*
X132973937Y-148769774D01*
X133087205Y-148600256D01*
X133165226Y-148411898D01*
X133205000Y-148211939D01*
X133205000Y-148008061D01*
X133165226Y-147808102D01*
X133087205Y-147619744D01*
X132973937Y-147450226D01*
X132829774Y-147306063D01*
X132660256Y-147192795D01*
X132471898Y-147114774D01*
X132271939Y-147075000D01*
X132068061Y-147075000D01*
X131868102Y-147114774D01*
X131679744Y-147192795D01*
X131510226Y-147306063D01*
X131366063Y-147450226D01*
X131252795Y-147619744D01*
X131174774Y-147808102D01*
X131135000Y-148008061D01*
X121439902Y-148008061D01*
X120317637Y-146269305D01*
X119141016Y-144158792D01*
X118904728Y-143662061D01*
X128378000Y-143662061D01*
X128378000Y-143865939D01*
X128417774Y-144065898D01*
X128495795Y-144254256D01*
X128609063Y-144423774D01*
X128753226Y-144567937D01*
X128922744Y-144681205D01*
X129111102Y-144759226D01*
X129311061Y-144799000D01*
X129514939Y-144799000D01*
X129714898Y-144759226D01*
X129903256Y-144681205D01*
X130072774Y-144567937D01*
X130076741Y-144563970D01*
X132426613Y-144563970D01*
X132426613Y-144996030D01*
X132510904Y-145419787D01*
X132676246Y-145818958D01*
X132916285Y-146178203D01*
X133221797Y-146483715D01*
X133581042Y-146723754D01*
X133980213Y-146889096D01*
X134403970Y-146973387D01*
X134836030Y-146973387D01*
X135259787Y-146889096D01*
X135658958Y-146723754D01*
X136018203Y-146483715D01*
X136323715Y-146178203D01*
X136563754Y-145818958D01*
X136729096Y-145419787D01*
X136813387Y-144996030D01*
X136813387Y-144563970D01*
X136729096Y-144140213D01*
X136563754Y-143741042D01*
X136323715Y-143381797D01*
X136018203Y-143076285D01*
X135658958Y-142836246D01*
X135259787Y-142670904D01*
X134836030Y-142586613D01*
X134403970Y-142586613D01*
X133980213Y-142670904D01*
X133581042Y-142836246D01*
X133221797Y-143076285D01*
X132916285Y-143381797D01*
X132676246Y-143741042D01*
X132510904Y-144140213D01*
X132426613Y-144563970D01*
X130076741Y-144563970D01*
X130216937Y-144423774D01*
X130330205Y-144254256D01*
X130408226Y-144065898D01*
X130440429Y-143904004D01*
X132104541Y-142239892D01*
X132136041Y-142214041D01*
X132207543Y-142126915D01*
X132239199Y-142088343D01*
X132276247Y-142019031D01*
X132315853Y-141944934D01*
X132363056Y-141789326D01*
X132375000Y-141668053D01*
X132375000Y-141668051D01*
X132378994Y-141627501D01*
X132375000Y-141586950D01*
X132375000Y-140518172D01*
X146334729Y-140518172D01*
X146454437Y-140749981D01*
X146736327Y-140828117D01*
X147028045Y-140849759D01*
X147318379Y-140814072D01*
X147596173Y-140722430D01*
X147850751Y-140578353D01*
X147973319Y-140482161D01*
X148006523Y-140223389D01*
X147023235Y-139534884D01*
X146334729Y-140518172D01*
X132375000Y-140518172D01*
X132375000Y-139394005D01*
X145500295Y-139394005D01*
X145535982Y-139684339D01*
X145627624Y-139962133D01*
X145771701Y-140216711D01*
X145867893Y-140339279D01*
X146126665Y-140372483D01*
X146815170Y-139389195D01*
X145831882Y-138700689D01*
X145600073Y-138820397D01*
X145521937Y-139102287D01*
X145500295Y-139394005D01*
X132375000Y-139394005D01*
X132375000Y-138492625D01*
X145977571Y-138492625D01*
X146960859Y-139181130D01*
X147649365Y-138197842D01*
X147529657Y-137966033D01*
X147247767Y-137887897D01*
X146956049Y-137866255D01*
X146665715Y-137901942D01*
X146387921Y-137993584D01*
X146133343Y-138137661D01*
X146010775Y-138233853D01*
X145977571Y-138492625D01*
X132375000Y-138492625D01*
X132375000Y-137384003D01*
X132466705Y-137246756D01*
X132544726Y-137058398D01*
X132584500Y-136858439D01*
X132584500Y-136654561D01*
X132544726Y-136454602D01*
X132466705Y-136266244D01*
X132353437Y-136096726D01*
X132209274Y-135952563D01*
X132039756Y-135839295D01*
X131851398Y-135761274D01*
X131651439Y-135721500D01*
X131447561Y-135721500D01*
X131247602Y-135761274D01*
X131059244Y-135839295D01*
X130889726Y-135952563D01*
X130745563Y-136096726D01*
X130632295Y-136266244D01*
X130554274Y-136454602D01*
X130514500Y-136654561D01*
X130514500Y-136858439D01*
X130554274Y-137058398D01*
X130632295Y-137246756D01*
X130724001Y-137384004D01*
X130724000Y-141285567D01*
X129272996Y-142736571D01*
X129111102Y-142768774D01*
X128922744Y-142846795D01*
X128753226Y-142960063D01*
X128609063Y-143104226D01*
X128495795Y-143273744D01*
X128417774Y-143462102D01*
X128378000Y-143662061D01*
X118904728Y-143662061D01*
X118103044Y-141976747D01*
X117208047Y-139732265D01*
X116459761Y-137434720D01*
X115861297Y-135093660D01*
X115415156Y-132718864D01*
X115182575Y-130808061D01*
X122485000Y-130808061D01*
X122485000Y-131011939D01*
X122524774Y-131211898D01*
X122602795Y-131400256D01*
X122716063Y-131569774D01*
X122860226Y-131713937D01*
X123029744Y-131827205D01*
X123218102Y-131905226D01*
X123418061Y-131945000D01*
X123621939Y-131945000D01*
X123821898Y-131905226D01*
X124010256Y-131827205D01*
X124179774Y-131713937D01*
X124323937Y-131569774D01*
X124437205Y-131400256D01*
X124515226Y-131211898D01*
X124555000Y-131011939D01*
X124555000Y-130808061D01*
X124515226Y-130608102D01*
X124437205Y-130419744D01*
X124323937Y-130250226D01*
X124179774Y-130106063D01*
X124010256Y-129992795D01*
X123821898Y-129914774D01*
X123621939Y-129875000D01*
X123418061Y-129875000D01*
X123218102Y-129914774D01*
X123029744Y-129992795D01*
X122860226Y-130106063D01*
X122716063Y-130250226D01*
X122602795Y-130419744D01*
X122524774Y-130608102D01*
X122485000Y-130808061D01*
X115182575Y-130808061D01*
X115123194Y-130320215D01*
X114986632Y-127907750D01*
X115006037Y-125491476D01*
X115181328Y-123081503D01*
X115511774Y-120687873D01*
X115996001Y-118320542D01*
X116631984Y-115989406D01*
X117417084Y-113704146D01*
X118348006Y-111474350D01*
X119420891Y-109309253D01*
X120631262Y-107217902D01*
X121974057Y-105209036D01*
X123443708Y-103290986D01*
X125034058Y-101471792D01*
X126738502Y-99759007D01*
X128549892Y-98159811D01*
X130460731Y-96680821D01*
X131826818Y-95758000D01*
X157099000Y-95758000D01*
X157123776Y-95755560D01*
X157147601Y-95748333D01*
X157169557Y-95736597D01*
X157188803Y-95720803D01*
X157204597Y-95701557D01*
X157216333Y-95679601D01*
X157223560Y-95655776D01*
X157226000Y-95631000D01*
X157226000Y-93091000D01*
X160686815Y-93091000D01*
X160715487Y-93382111D01*
X160800401Y-93662034D01*
X160938294Y-93920014D01*
X161123866Y-94146134D01*
X161153687Y-94170607D01*
X161084820Y-94191498D01*
X160974506Y-94250463D01*
X160877815Y-94329815D01*
X160798463Y-94426506D01*
X160739498Y-94536820D01*
X160703188Y-94656518D01*
X160690928Y-94781000D01*
X160690928Y-96481000D01*
X160703188Y-96605482D01*
X160739498Y-96725180D01*
X160798463Y-96835494D01*
X160877815Y-96932185D01*
X160974506Y-97011537D01*
X161084820Y-97070502D01*
X161204518Y-97106812D01*
X161329000Y-97119072D01*
X163029000Y-97119072D01*
X163153482Y-97106812D01*
X163273180Y-97070502D01*
X163383494Y-97011537D01*
X163480185Y-96932185D01*
X163559537Y-96835494D01*
X163618502Y-96725180D01*
X163654812Y-96605482D01*
X163667072Y-96481000D01*
X163667072Y-94781000D01*
X163654812Y-94656518D01*
X163618502Y-94536820D01*
X163559537Y-94426506D01*
X163480185Y-94329815D01*
X163383494Y-94250463D01*
X163273180Y-94191498D01*
X163204313Y-94170607D01*
X163234134Y-94146134D01*
X163419706Y-93920014D01*
X163557599Y-93662034D01*
X163642513Y-93382111D01*
X163671185Y-93091000D01*
X163642513Y-92799889D01*
X163557599Y-92519966D01*
X163419706Y-92261986D01*
X163234134Y-92035866D01*
X163008014Y-91850294D01*
X162750034Y-91712401D01*
X162470111Y-91627487D01*
X162251950Y-91606000D01*
X162106050Y-91606000D01*
X161887889Y-91627487D01*
X161607966Y-91712401D01*
X161349986Y-91850294D01*
X161123866Y-92035866D01*
X160938294Y-92261986D01*
X160800401Y-92519966D01*
X160715487Y-92799889D01*
X160686815Y-93091000D01*
X157226000Y-93091000D01*
X157226000Y-89904509D01*
X157938218Y-89987673D01*
G36*
X141725000Y-111108061D02*
G01*
X141725000Y-111311939D01*
X141764774Y-111511898D01*
X141842795Y-111700256D01*
X141887760Y-111767551D01*
X141812795Y-111879744D01*
X141734774Y-112068102D01*
X141695000Y-112268061D01*
X141695000Y-112471939D01*
X141734774Y-112671898D01*
X141812795Y-112860256D01*
X141926063Y-113029774D01*
X142070226Y-113173937D01*
X142239744Y-113287205D01*
X142428102Y-113365226D01*
X142628061Y-113405000D01*
X142831939Y-113405000D01*
X143031898Y-113365226D01*
X143220256Y-113287205D01*
X143389774Y-113173937D01*
X143457111Y-113106600D01*
X145584891Y-113106600D01*
X145983400Y-113505110D01*
X145983401Y-116289477D01*
X145979836Y-116325670D01*
X145990981Y-116438821D01*
X145994059Y-116470069D01*
X146008617Y-116518061D01*
X146036178Y-116608917D01*
X146104576Y-116736882D01*
X146166436Y-116812258D01*
X146196626Y-116849045D01*
X146224732Y-116872111D01*
X148557889Y-119205269D01*
X148580955Y-119233375D01*
X148609061Y-119256441D01*
X148609062Y-119256442D01*
X148636045Y-119278586D01*
X148693117Y-119325424D01*
X148712081Y-119335560D01*
X148550866Y-119467866D01*
X148526393Y-119497687D01*
X148505502Y-119428820D01*
X148446537Y-119318506D01*
X148367185Y-119221815D01*
X148270494Y-119142463D01*
X148160180Y-119083498D01*
X148040482Y-119047188D01*
X147916000Y-119034928D01*
X146216000Y-119034928D01*
X146091518Y-119047188D01*
X145971820Y-119083498D01*
X145861506Y-119142463D01*
X145764815Y-119221815D01*
X145685463Y-119318506D01*
X145626498Y-119428820D01*
X145590188Y-119548518D01*
X145577928Y-119673000D01*
X145577928Y-121373000D01*
X145590188Y-121497482D01*
X145626498Y-121617180D01*
X145685463Y-121727494D01*
X145764815Y-121824185D01*
X145861506Y-121903537D01*
X145971820Y-121962502D01*
X146091518Y-121998812D01*
X146216000Y-122011072D01*
X147916000Y-122011072D01*
X148040482Y-121998812D01*
X148160180Y-121962502D01*
X148270494Y-121903537D01*
X148367185Y-121824185D01*
X148446537Y-121727494D01*
X148505502Y-121617180D01*
X148526393Y-121548313D01*
X148550866Y-121578134D01*
X148776986Y-121763706D01*
X149034966Y-121901599D01*
X149314889Y-121986513D01*
X149533050Y-122008000D01*
X149678950Y-122008000D01*
X149897111Y-121986513D01*
X150177034Y-121901599D01*
X150435014Y-121763706D01*
X150661134Y-121578134D01*
X150846706Y-121352014D01*
X150876000Y-121297209D01*
X150905294Y-121352014D01*
X151090866Y-121578134D01*
X151316986Y-121763706D01*
X151574966Y-121901599D01*
X151854889Y-121986513D01*
X152073050Y-122008000D01*
X152218950Y-122008000D01*
X152437111Y-121986513D01*
X152717034Y-121901599D01*
X152975014Y-121763706D01*
X153201134Y-121578134D01*
X153386706Y-121352014D01*
X153524599Y-121094034D01*
X153609513Y-120814111D01*
X153638185Y-120523000D01*
X153609513Y-120231889D01*
X153524599Y-119951966D01*
X153386706Y-119693986D01*
X153201134Y-119467866D01*
X152975014Y-119282294D01*
X152717034Y-119144401D01*
X152437111Y-119059487D01*
X152218950Y-119038000D01*
X152073050Y-119038000D01*
X151854889Y-119059487D01*
X151574966Y-119144401D01*
X151316986Y-119282294D01*
X151090866Y-119467866D01*
X150905294Y-119693986D01*
X150876000Y-119748791D01*
X150846706Y-119693986D01*
X150661134Y-119467866D01*
X150631039Y-119443167D01*
X150704399Y-119435942D01*
X150843249Y-119393822D01*
X150971213Y-119325424D01*
X151083375Y-119233375D01*
X151106445Y-119205264D01*
X151755110Y-118556600D01*
X158200487Y-118556600D01*
X158236670Y-118560164D01*
X158272853Y-118556600D01*
X158272856Y-118556600D01*
X158381069Y-118545942D01*
X158519919Y-118503822D01*
X158647883Y-118435424D01*
X158760045Y-118343375D01*
X158783115Y-118315264D01*
X159811780Y-117286600D01*
X162124020Y-117286600D01*
X160833221Y-118577400D01*
X159924111Y-118577400D01*
X159856774Y-118510063D01*
X159687256Y-118396795D01*
X159498898Y-118318774D01*
X159298939Y-118279000D01*
X159095061Y-118279000D01*
X158895102Y-118318774D01*
X158706744Y-118396795D01*
X158537226Y-118510063D01*
X158393063Y-118654226D01*
X158279795Y-118823744D01*
X158201774Y-119012102D01*
X158162000Y-119212061D01*
X158162000Y-119415939D01*
X158201774Y-119615898D01*
X158279795Y-119804256D01*
X158393063Y-119973774D01*
X158537226Y-120117937D01*
X158706744Y-120231205D01*
X158895102Y-120309226D01*
X159095061Y-120349000D01*
X159298939Y-120349000D01*
X159498898Y-120309226D01*
X159687256Y-120231205D01*
X159856774Y-120117937D01*
X159924111Y-120050600D01*
X161102147Y-120050600D01*
X161138330Y-120054164D01*
X161174513Y-120050600D01*
X161174516Y-120050600D01*
X161282729Y-120039942D01*
X161421579Y-119997822D01*
X161549543Y-119929424D01*
X161661705Y-119837375D01*
X161684775Y-119809264D01*
X163657041Y-117836999D01*
X170008290Y-117836999D01*
X171983210Y-119811920D01*
X171977024Y-129748436D01*
X171973437Y-129784852D01*
X171980530Y-129856864D01*
X171987570Y-129928798D01*
X171987637Y-129929021D01*
X171987660Y-129929250D01*
X172008526Y-129998038D01*
X172029603Y-130067675D01*
X172029713Y-130067881D01*
X172029779Y-130068099D01*
X172063880Y-130131897D01*
X172097922Y-130195681D01*
X172098067Y-130195857D01*
X172098177Y-130196064D01*
X172104002Y-130203162D01*
X172104001Y-132063719D01*
X172090075Y-132057951D01*
X171890116Y-132018177D01*
X171686238Y-132018177D01*
X171486279Y-132057951D01*
X171297921Y-132135972D01*
X171128403Y-132249240D01*
X170984240Y-132393403D01*
X170870972Y-132562921D01*
X170792951Y-132751279D01*
X170753177Y-132951238D01*
X170753177Y-133046467D01*
X170430644Y-133369001D01*
X129303795Y-133369001D01*
X129265226Y-133175102D01*
X129187205Y-132986744D01*
X129073937Y-132817226D01*
X128929774Y-132673063D01*
X128760256Y-132559795D01*
X128571898Y-132481774D01*
X128371939Y-132442000D01*
X128276710Y-132442000D01*
X126657100Y-130822391D01*
X126657100Y-129328061D01*
X128675000Y-129328061D01*
X128675000Y-129531939D01*
X128714774Y-129731898D01*
X128792795Y-129920256D01*
X128906063Y-130089774D01*
X129050226Y-130233937D01*
X129219744Y-130347205D01*
X129408102Y-130425226D01*
X129608061Y-130465000D01*
X129811939Y-130465000D01*
X130011898Y-130425226D01*
X130200256Y-130347205D01*
X130369774Y-130233937D01*
X130399511Y-130204200D01*
X139326928Y-130204200D01*
X139339188Y-130328682D01*
X139375498Y-130448380D01*
X139434463Y-130558694D01*
X139513815Y-130655385D01*
X139610506Y-130734737D01*
X139720820Y-130793702D01*
X139840518Y-130830012D01*
X139965000Y-130842272D01*
X140049250Y-130839200D01*
X140208000Y-130680450D01*
X140208000Y-128871200D01*
X139488750Y-128871200D01*
X139330000Y-129029950D01*
X139326928Y-130204200D01*
X130399511Y-130204200D01*
X130513937Y-130089774D01*
X130627205Y-129920256D01*
X130705226Y-129731898D01*
X130745000Y-129531939D01*
X130745000Y-129328061D01*
X130705226Y-129128102D01*
X130627205Y-128939744D01*
X130513937Y-128770226D01*
X130369774Y-128626063D01*
X130200256Y-128512795D01*
X130011898Y-128434774D01*
X129811939Y-128395000D01*
X129608061Y-128395000D01*
X129408102Y-128434774D01*
X129219744Y-128512795D01*
X129050226Y-128626063D01*
X128906063Y-128770226D01*
X128792795Y-128939744D01*
X128714774Y-129128102D01*
X128675000Y-129328061D01*
X126657100Y-129328061D01*
X126657100Y-125177500D01*
X126784439Y-125177500D01*
X126984398Y-125137726D01*
X127172756Y-125059705D01*
X127190500Y-125047849D01*
X127208244Y-125059705D01*
X127396602Y-125137726D01*
X127596561Y-125177500D01*
X127800439Y-125177500D01*
X128000398Y-125137726D01*
X128188756Y-125059705D01*
X128333500Y-124962990D01*
X128478244Y-125059705D01*
X128666602Y-125137726D01*
X128866561Y-125177500D01*
X129070439Y-125177500D01*
X129270398Y-125137726D01*
X129458756Y-125059705D01*
X129628274Y-124946437D01*
X129772437Y-124802274D01*
X129885705Y-124632756D01*
X129963726Y-124444398D01*
X130003500Y-124244439D01*
X130003500Y-124040561D01*
X129963726Y-123840602D01*
X129885705Y-123652244D01*
X129772437Y-123482726D01*
X129705100Y-123415389D01*
X129705100Y-123263279D01*
X133182318Y-119786061D01*
X135998000Y-119786061D01*
X135998000Y-119989939D01*
X136037774Y-120189898D01*
X136115795Y-120378256D01*
X136229063Y-120547774D01*
X136296401Y-120615112D01*
X136296401Y-120992337D01*
X136292836Y-121028530D01*
X136301341Y-121114877D01*
X136307059Y-121172929D01*
X136349179Y-121311779D01*
X136417577Y-121439743D01*
X136509626Y-121551905D01*
X136537732Y-121574971D01*
X138768628Y-123805868D01*
X138791696Y-123833976D01*
X138819802Y-123857042D01*
X138819803Y-123857043D01*
X138822495Y-123859252D01*
X138903858Y-123926025D01*
X139031822Y-123994423D01*
X139170672Y-124036543D01*
X139315071Y-124050765D01*
X139326928Y-124049597D01*
X139326928Y-125771130D01*
X139148989Y-125697425D01*
X138881411Y-125644200D01*
X138608589Y-125644200D01*
X138341011Y-125697425D01*
X138088957Y-125801829D01*
X137862114Y-125953401D01*
X137669201Y-126146314D01*
X137517629Y-126373157D01*
X137413225Y-126625211D01*
X137360000Y-126892789D01*
X137360000Y-127165611D01*
X137413225Y-127433189D01*
X137517629Y-127685243D01*
X137669201Y-127912086D01*
X137862114Y-128104999D01*
X138088957Y-128256571D01*
X138341011Y-128360975D01*
X138608589Y-128414200D01*
X138881411Y-128414200D01*
X139148989Y-128360975D01*
X139329549Y-128286185D01*
X139330000Y-128458450D01*
X139488750Y-128617200D01*
X140208000Y-128617200D01*
X140208000Y-128597200D01*
X140462000Y-128597200D01*
X140462000Y-128617200D01*
X140482000Y-128617200D01*
X140482000Y-128871200D01*
X140462000Y-128871200D01*
X140462000Y-130680450D01*
X140620750Y-130839200D01*
X140705000Y-130842272D01*
X140829482Y-130830012D01*
X140949180Y-130793702D01*
X140970000Y-130782573D01*
X140990820Y-130793702D01*
X141110518Y-130830012D01*
X141235000Y-130842272D01*
X141975000Y-130842272D01*
X142099482Y-130830012D01*
X142219180Y-130793702D01*
X142240000Y-130782573D01*
X142260820Y-130793702D01*
X142380518Y-130830012D01*
X142505000Y-130842272D01*
X142589250Y-130839200D01*
X142748000Y-130680450D01*
X142748000Y-128871200D01*
X142728000Y-128871200D01*
X142728000Y-128617200D01*
X142748000Y-128617200D01*
X142748000Y-128597200D01*
X143002000Y-128597200D01*
X143002000Y-128617200D01*
X143022000Y-128617200D01*
X143022000Y-128871200D01*
X143002000Y-128871200D01*
X143002000Y-130680450D01*
X143160750Y-130839200D01*
X143245000Y-130842272D01*
X143369482Y-130830012D01*
X143489180Y-130793702D01*
X143510000Y-130782573D01*
X143530820Y-130793702D01*
X143650518Y-130830012D01*
X143775000Y-130842272D01*
X144515000Y-130842272D01*
X144639482Y-130830012D01*
X144759180Y-130793702D01*
X144780000Y-130782573D01*
X144800820Y-130793702D01*
X144920518Y-130830012D01*
X145045000Y-130842272D01*
X145785000Y-130842272D01*
X145909482Y-130830012D01*
X146029180Y-130793702D01*
X146050000Y-130782573D01*
X146070820Y-130793702D01*
X146190518Y-130830012D01*
X146315000Y-130842272D01*
X147055000Y-130842272D01*
X147179482Y-130830012D01*
X147299180Y-130793702D01*
X147320000Y-130782573D01*
X147340820Y-130793702D01*
X147460518Y-130830012D01*
X147585000Y-130842272D01*
X148325000Y-130842272D01*
X148449482Y-130830012D01*
X148569180Y-130793702D01*
X148590000Y-130782573D01*
X148610820Y-130793702D01*
X148730518Y-130830012D01*
X148855000Y-130842272D01*
X149595000Y-130842272D01*
X149719482Y-130830012D01*
X149839180Y-130793702D01*
X149860000Y-130782573D01*
X149880820Y-130793702D01*
X150000518Y-130830012D01*
X150125000Y-130842272D01*
X150865000Y-130842272D01*
X150989482Y-130830012D01*
X151109180Y-130793702D01*
X151130000Y-130782573D01*
X151150820Y-130793702D01*
X151270518Y-130830012D01*
X151395000Y-130842272D01*
X151479250Y-130839200D01*
X151638000Y-130680450D01*
X151638000Y-128871200D01*
X151618000Y-128871200D01*
X151618000Y-128617200D01*
X151638000Y-128617200D01*
X151638000Y-125441200D01*
X151618000Y-125441200D01*
X151618000Y-125187200D01*
X151638000Y-125187200D01*
X151638000Y-125167200D01*
X151892000Y-125167200D01*
X151892000Y-125187200D01*
X151912000Y-125187200D01*
X151912000Y-125441200D01*
X151892000Y-125441200D01*
X151892000Y-128617200D01*
X151912000Y-128617200D01*
X151912000Y-128871200D01*
X151892000Y-128871200D01*
X151892000Y-130680450D01*
X152050750Y-130839200D01*
X152135000Y-130842272D01*
X152259482Y-130830012D01*
X152379180Y-130793702D01*
X152400000Y-130782573D01*
X152420820Y-130793702D01*
X152540518Y-130830012D01*
X152665000Y-130842272D01*
X153405000Y-130842272D01*
X153529482Y-130830012D01*
X153649180Y-130793702D01*
X153670000Y-130782573D01*
X153690820Y-130793702D01*
X153810518Y-130830012D01*
X153935000Y-130842272D01*
X154675000Y-130842272D01*
X154799482Y-130830012D01*
X154919180Y-130793702D01*
X154940000Y-130782573D01*
X154960820Y-130793702D01*
X155080518Y-130830012D01*
X155205000Y-130842272D01*
X155945000Y-130842272D01*
X156069482Y-130830012D01*
X156189180Y-130793702D01*
X156210000Y-130782573D01*
X156230820Y-130793702D01*
X156350518Y-130830012D01*
X156475000Y-130842272D01*
X157215000Y-130842272D01*
X157339482Y-130830012D01*
X157459180Y-130793702D01*
X157480000Y-130782573D01*
X157500820Y-130793702D01*
X157620518Y-130830012D01*
X157745000Y-130842272D01*
X158485000Y-130842272D01*
X158609482Y-130830012D01*
X158729180Y-130793702D01*
X158750000Y-130782573D01*
X158770820Y-130793702D01*
X158890518Y-130830012D01*
X159015000Y-130842272D01*
X159755000Y-130842272D01*
X159879482Y-130830012D01*
X159999180Y-130793702D01*
X160020000Y-130782573D01*
X160040820Y-130793702D01*
X160160518Y-130830012D01*
X160285000Y-130842272D01*
X161025000Y-130842272D01*
X161149482Y-130830012D01*
X161269180Y-130793702D01*
X161290000Y-130782573D01*
X161310820Y-130793702D01*
X161430518Y-130830012D01*
X161555000Y-130842272D01*
X162295000Y-130842272D01*
X162419482Y-130830012D01*
X162539180Y-130793702D01*
X162560000Y-130782573D01*
X162580820Y-130793702D01*
X162700518Y-130830012D01*
X162825000Y-130842272D01*
X162909250Y-130839200D01*
X163068000Y-130680450D01*
X163068000Y-128871200D01*
X163048000Y-128871200D01*
X163048000Y-128617200D01*
X163068000Y-128617200D01*
X163068000Y-128597200D01*
X163322000Y-128597200D01*
X163322000Y-128617200D01*
X163342000Y-128617200D01*
X163342000Y-128871200D01*
X163322000Y-128871200D01*
X163322000Y-130680450D01*
X163480750Y-130839200D01*
X163565000Y-130842272D01*
X163689482Y-130830012D01*
X163809180Y-130793702D01*
X163830000Y-130782573D01*
X163850820Y-130793702D01*
X163970518Y-130830012D01*
X164095000Y-130842272D01*
X164835000Y-130842272D01*
X164959482Y-130830012D01*
X165079180Y-130793702D01*
X165189494Y-130734737D01*
X165286185Y-130655385D01*
X165365537Y-130558694D01*
X165424502Y-130448380D01*
X165460812Y-130328682D01*
X165473072Y-130204200D01*
X165473072Y-128287270D01*
X165651011Y-128360975D01*
X165918589Y-128414200D01*
X166191411Y-128414200D01*
X166458989Y-128360975D01*
X166711043Y-128256571D01*
X166937886Y-128104999D01*
X167130799Y-127912086D01*
X167282371Y-127685243D01*
X167386775Y-127433189D01*
X167440000Y-127165611D01*
X167440000Y-126892789D01*
X167386775Y-126625211D01*
X167282371Y-126373157D01*
X167130799Y-126146314D01*
X166937886Y-125953401D01*
X166711043Y-125801829D01*
X166458989Y-125697425D01*
X166191411Y-125644200D01*
X165918589Y-125644200D01*
X165651011Y-125697425D01*
X165470451Y-125772215D01*
X165470000Y-125599950D01*
X165311250Y-125441200D01*
X164592000Y-125441200D01*
X164592000Y-125461200D01*
X164338000Y-125461200D01*
X164338000Y-125441200D01*
X164318000Y-125441200D01*
X164318000Y-125187200D01*
X164338000Y-125187200D01*
X164338000Y-123377950D01*
X164592000Y-123377950D01*
X164592000Y-125187200D01*
X165311250Y-125187200D01*
X165470000Y-125028450D01*
X165473072Y-123854200D01*
X165460812Y-123729718D01*
X165424502Y-123610020D01*
X165365537Y-123499706D01*
X165286185Y-123403015D01*
X165189494Y-123323663D01*
X165079180Y-123264698D01*
X164959482Y-123228388D01*
X164835000Y-123216128D01*
X164750750Y-123219200D01*
X164592000Y-123377950D01*
X164338000Y-123377950D01*
X164179250Y-123219200D01*
X164095000Y-123216128D01*
X163970518Y-123228388D01*
X163850820Y-123264698D01*
X163830000Y-123275827D01*
X163809180Y-123264698D01*
X163689482Y-123228388D01*
X163565000Y-123216128D01*
X162825000Y-123216128D01*
X162700518Y-123228388D01*
X162580820Y-123264698D01*
X162560000Y-123275827D01*
X162539180Y-123264698D01*
X162419482Y-123228388D01*
X162295000Y-123216128D01*
X162210750Y-123219200D01*
X162052000Y-123377950D01*
X162052000Y-125187200D01*
X162072000Y-125187200D01*
X162072000Y-125441200D01*
X162052000Y-125441200D01*
X162052000Y-125461200D01*
X161798000Y-125461200D01*
X161798000Y-125441200D01*
X161778000Y-125441200D01*
X161778000Y-125187200D01*
X161798000Y-125187200D01*
X161798000Y-123377950D01*
X161639250Y-123219200D01*
X161555000Y-123216128D01*
X161430518Y-123228388D01*
X161330199Y-123258820D01*
X161270424Y-123146989D01*
X161178374Y-123034827D01*
X161150268Y-123011761D01*
X160953845Y-122815338D01*
X160930774Y-122787226D01*
X160818612Y-122695177D01*
X160690648Y-122626779D01*
X160551798Y-122584659D01*
X160443585Y-122574001D01*
X160443582Y-122574001D01*
X160407399Y-122570437D01*
X160371216Y-122574001D01*
X140629900Y-122574001D01*
X140629900Y-122558161D01*
X140590126Y-122358202D01*
X140512105Y-122169844D01*
X140398837Y-122000326D01*
X140356900Y-121958389D01*
X140356900Y-118863692D01*
X140363205Y-118854256D01*
X140441226Y-118665898D01*
X140481000Y-118465939D01*
X140481000Y-118262061D01*
X140441226Y-118062102D01*
X140363205Y-117873744D01*
X140249937Y-117704226D01*
X140105774Y-117560063D01*
X139936256Y-117446795D01*
X139747898Y-117368774D01*
X139547939Y-117329000D01*
X139344061Y-117329000D01*
X139144102Y-117368774D01*
X138955744Y-117446795D01*
X138786226Y-117560063D01*
X138642063Y-117704226D01*
X138528795Y-117873744D01*
X138450774Y-118062102D01*
X138411000Y-118262061D01*
X138411000Y-118465939D01*
X138450774Y-118665898D01*
X138528795Y-118854256D01*
X138642063Y-119023774D01*
X138786226Y-119167937D01*
X138832901Y-119199124D01*
X138832900Y-121786721D01*
X137769600Y-120723421D01*
X137769600Y-120615111D01*
X137836937Y-120547774D01*
X137950205Y-120378256D01*
X138028226Y-120189898D01*
X138068000Y-119989939D01*
X138068000Y-119786061D01*
X138028226Y-119586102D01*
X137950205Y-119397744D01*
X137836937Y-119228226D01*
X137692774Y-119084063D01*
X137523256Y-118970795D01*
X137334898Y-118892774D01*
X137134939Y-118853000D01*
X136931061Y-118853000D01*
X136731102Y-118892774D01*
X136542744Y-118970795D01*
X136373226Y-119084063D01*
X136229063Y-119228226D01*
X136115795Y-119397744D01*
X136037774Y-119586102D01*
X135998000Y-119786061D01*
X133182318Y-119786061D01*
X134566280Y-118402100D01*
X136806317Y-118402100D01*
X136842500Y-118405664D01*
X136878683Y-118402100D01*
X136878686Y-118402100D01*
X136986899Y-118391442D01*
X137125749Y-118349322D01*
X137253713Y-118280924D01*
X137365875Y-118188875D01*
X137388946Y-118160763D01*
X140278210Y-115271500D01*
X140373439Y-115271500D01*
X140573398Y-115231726D01*
X140761756Y-115153705D01*
X140931274Y-115040437D01*
X141075437Y-114896274D01*
X141188705Y-114726756D01*
X141266726Y-114538398D01*
X141306500Y-114338439D01*
X141306500Y-114134561D01*
X141266726Y-113934602D01*
X141188705Y-113746244D01*
X141075437Y-113576726D01*
X140931274Y-113432563D01*
X140761756Y-113319295D01*
X140573398Y-113241274D01*
X140373439Y-113201500D01*
X140169561Y-113201500D01*
X139969602Y-113241274D01*
X139781244Y-113319295D01*
X139715767Y-113363045D01*
X139555256Y-113255795D01*
X139366898Y-113177774D01*
X139270049Y-113158510D01*
X141328535Y-111100025D01*
X141726598Y-111100025D01*
X141725000Y-111108061D01*
X141725000Y-111108061D01*
G37*
X141725000Y-111108061D02*
X141725000Y-111311939D01*
X141764774Y-111511898D01*
X141842795Y-111700256D01*
X141887760Y-111767551D01*
X141812795Y-111879744D01*
X141734774Y-112068102D01*
X141695000Y-112268061D01*
X141695000Y-112471939D01*
X141734774Y-112671898D01*
X141812795Y-112860256D01*
X141926063Y-113029774D01*
X142070226Y-113173937D01*
X142239744Y-113287205D01*
X142428102Y-113365226D01*
X142628061Y-113405000D01*
X142831939Y-113405000D01*
X143031898Y-113365226D01*
X143220256Y-113287205D01*
X143389774Y-113173937D01*
X143457111Y-113106600D01*
X145584891Y-113106600D01*
X145983400Y-113505110D01*
X145983401Y-116289477D01*
X145979836Y-116325670D01*
X145990981Y-116438821D01*
X145994059Y-116470069D01*
X146008617Y-116518061D01*
X146036178Y-116608917D01*
X146104576Y-116736882D01*
X146166436Y-116812258D01*
X146196626Y-116849045D01*
X146224732Y-116872111D01*
X148557889Y-119205269D01*
X148580955Y-119233375D01*
X148609061Y-119256441D01*
X148609062Y-119256442D01*
X148636045Y-119278586D01*
X148693117Y-119325424D01*
X148712081Y-119335560D01*
X148550866Y-119467866D01*
X148526393Y-119497687D01*
X148505502Y-119428820D01*
X148446537Y-119318506D01*
X148367185Y-119221815D01*
X148270494Y-119142463D01*
X148160180Y-119083498D01*
X148040482Y-119047188D01*
X147916000Y-119034928D01*
X146216000Y-119034928D01*
X146091518Y-119047188D01*
X145971820Y-119083498D01*
X145861506Y-119142463D01*
X145764815Y-119221815D01*
X145685463Y-119318506D01*
X145626498Y-119428820D01*
X145590188Y-119548518D01*
X145577928Y-119673000D01*
X145577928Y-121373000D01*
X145590188Y-121497482D01*
X145626498Y-121617180D01*
X145685463Y-121727494D01*
X145764815Y-121824185D01*
X145861506Y-121903537D01*
X145971820Y-121962502D01*
X146091518Y-121998812D01*
X146216000Y-122011072D01*
X147916000Y-122011072D01*
X148040482Y-121998812D01*
X148160180Y-121962502D01*
X148270494Y-121903537D01*
X148367185Y-121824185D01*
X148446537Y-121727494D01*
X148505502Y-121617180D01*
X148526393Y-121548313D01*
X148550866Y-121578134D01*
X148776986Y-121763706D01*
X149034966Y-121901599D01*
X149314889Y-121986513D01*
X149533050Y-122008000D01*
X149678950Y-122008000D01*
X149897111Y-121986513D01*
X150177034Y-121901599D01*
X150435014Y-121763706D01*
X150661134Y-121578134D01*
X150846706Y-121352014D01*
X150876000Y-121297209D01*
X150905294Y-121352014D01*
X151090866Y-121578134D01*
X151316986Y-121763706D01*
X151574966Y-121901599D01*
X151854889Y-121986513D01*
X152073050Y-122008000D01*
X152218950Y-122008000D01*
X152437111Y-121986513D01*
X152717034Y-121901599D01*
X152975014Y-121763706D01*
X153201134Y-121578134D01*
X153386706Y-121352014D01*
X153524599Y-121094034D01*
X153609513Y-120814111D01*
X153638185Y-120523000D01*
X153609513Y-120231889D01*
X153524599Y-119951966D01*
X153386706Y-119693986D01*
X153201134Y-119467866D01*
X152975014Y-119282294D01*
X152717034Y-119144401D01*
X152437111Y-119059487D01*
X152218950Y-119038000D01*
X152073050Y-119038000D01*
X151854889Y-119059487D01*
X151574966Y-119144401D01*
X151316986Y-119282294D01*
X151090866Y-119467866D01*
X150905294Y-119693986D01*
X150876000Y-119748791D01*
X150846706Y-119693986D01*
X150661134Y-119467866D01*
X150631039Y-119443167D01*
X150704399Y-119435942D01*
X150843249Y-119393822D01*
X150971213Y-119325424D01*
X151083375Y-119233375D01*
X151106445Y-119205264D01*
X151755110Y-118556600D01*
X158200487Y-118556600D01*
X158236670Y-118560164D01*
X158272853Y-118556600D01*
X158272856Y-118556600D01*
X158381069Y-118545942D01*
X158519919Y-118503822D01*
X158647883Y-118435424D01*
X158760045Y-118343375D01*
X158783115Y-118315264D01*
X159811780Y-117286600D01*
X162124020Y-117286600D01*
X160833221Y-118577400D01*
X159924111Y-118577400D01*
X159856774Y-118510063D01*
X159687256Y-118396795D01*
X159498898Y-118318774D01*
X159298939Y-118279000D01*
X159095061Y-118279000D01*
X158895102Y-118318774D01*
X158706744Y-118396795D01*
X158537226Y-118510063D01*
X158393063Y-118654226D01*
X158279795Y-118823744D01*
X158201774Y-119012102D01*
X158162000Y-119212061D01*
X158162000Y-119415939D01*
X158201774Y-119615898D01*
X158279795Y-119804256D01*
X158393063Y-119973774D01*
X158537226Y-120117937D01*
X158706744Y-120231205D01*
X158895102Y-120309226D01*
X159095061Y-120349000D01*
X159298939Y-120349000D01*
X159498898Y-120309226D01*
X159687256Y-120231205D01*
X159856774Y-120117937D01*
X159924111Y-120050600D01*
X161102147Y-120050600D01*
X161138330Y-120054164D01*
X161174513Y-120050600D01*
X161174516Y-120050600D01*
X161282729Y-120039942D01*
X161421579Y-119997822D01*
X161549543Y-119929424D01*
X161661705Y-119837375D01*
X161684775Y-119809264D01*
X163657041Y-117836999D01*
X170008290Y-117836999D01*
X171983210Y-119811920D01*
X171977024Y-129748436D01*
X171973437Y-129784852D01*
X171980530Y-129856864D01*
X171987570Y-129928798D01*
X171987637Y-129929021D01*
X171987660Y-129929250D01*
X172008526Y-129998038D01*
X172029603Y-130067675D01*
X172029713Y-130067881D01*
X172029779Y-130068099D01*
X172063880Y-130131897D01*
X172097922Y-130195681D01*
X172098067Y-130195857D01*
X172098177Y-130196064D01*
X172104002Y-130203162D01*
X172104001Y-132063719D01*
X172090075Y-132057951D01*
X171890116Y-132018177D01*
X171686238Y-132018177D01*
X171486279Y-132057951D01*
X171297921Y-132135972D01*
X171128403Y-132249240D01*
X170984240Y-132393403D01*
X170870972Y-132562921D01*
X170792951Y-132751279D01*
X170753177Y-132951238D01*
X170753177Y-133046467D01*
X170430644Y-133369001D01*
X129303795Y-133369001D01*
X129265226Y-133175102D01*
X129187205Y-132986744D01*
X129073937Y-132817226D01*
X128929774Y-132673063D01*
X128760256Y-132559795D01*
X128571898Y-132481774D01*
X128371939Y-132442000D01*
X128276710Y-132442000D01*
X126657100Y-130822391D01*
X126657100Y-129328061D01*
X128675000Y-129328061D01*
X128675000Y-129531939D01*
X128714774Y-129731898D01*
X128792795Y-129920256D01*
X128906063Y-130089774D01*
X129050226Y-130233937D01*
X129219744Y-130347205D01*
X129408102Y-130425226D01*
X129608061Y-130465000D01*
X129811939Y-130465000D01*
X130011898Y-130425226D01*
X130200256Y-130347205D01*
X130369774Y-130233937D01*
X130399511Y-130204200D01*
X139326928Y-130204200D01*
X139339188Y-130328682D01*
X139375498Y-130448380D01*
X139434463Y-130558694D01*
X139513815Y-130655385D01*
X139610506Y-130734737D01*
X139720820Y-130793702D01*
X139840518Y-130830012D01*
X139965000Y-130842272D01*
X140049250Y-130839200D01*
X140208000Y-130680450D01*
X140208000Y-128871200D01*
X139488750Y-128871200D01*
X139330000Y-129029950D01*
X139326928Y-130204200D01*
X130399511Y-130204200D01*
X130513937Y-130089774D01*
X130627205Y-129920256D01*
X130705226Y-129731898D01*
X130745000Y-129531939D01*
X130745000Y-129328061D01*
X130705226Y-129128102D01*
X130627205Y-128939744D01*
X130513937Y-128770226D01*
X130369774Y-128626063D01*
X130200256Y-128512795D01*
X130011898Y-128434774D01*
X129811939Y-128395000D01*
X129608061Y-128395000D01*
X129408102Y-128434774D01*
X129219744Y-128512795D01*
X129050226Y-128626063D01*
X128906063Y-128770226D01*
X128792795Y-128939744D01*
X128714774Y-129128102D01*
X128675000Y-129328061D01*
X126657100Y-129328061D01*
X126657100Y-125177500D01*
X126784439Y-125177500D01*
X126984398Y-125137726D01*
X127172756Y-125059705D01*
X127190500Y-125047849D01*
X127208244Y-125059705D01*
X127396602Y-125137726D01*
X127596561Y-125177500D01*
X127800439Y-125177500D01*
X128000398Y-125137726D01*
X128188756Y-125059705D01*
X128333500Y-124962990D01*
X128478244Y-125059705D01*
X128666602Y-125137726D01*
X128866561Y-125177500D01*
X129070439Y-125177500D01*
X129270398Y-125137726D01*
X129458756Y-125059705D01*
X129628274Y-124946437D01*
X129772437Y-124802274D01*
X129885705Y-124632756D01*
X129963726Y-124444398D01*
X130003500Y-124244439D01*
X130003500Y-124040561D01*
X129963726Y-123840602D01*
X129885705Y-123652244D01*
X129772437Y-123482726D01*
X129705100Y-123415389D01*
X129705100Y-123263279D01*
X133182318Y-119786061D01*
X135998000Y-119786061D01*
X135998000Y-119989939D01*
X136037774Y-120189898D01*
X136115795Y-120378256D01*
X136229063Y-120547774D01*
X136296401Y-120615112D01*
X136296401Y-120992337D01*
X136292836Y-121028530D01*
X136301341Y-121114877D01*
X136307059Y-121172929D01*
X136349179Y-121311779D01*
X136417577Y-121439743D01*
X136509626Y-121551905D01*
X136537732Y-121574971D01*
X138768628Y-123805868D01*
X138791696Y-123833976D01*
X138819802Y-123857042D01*
X138819803Y-123857043D01*
X138822495Y-123859252D01*
X138903858Y-123926025D01*
X139031822Y-123994423D01*
X139170672Y-124036543D01*
X139315071Y-124050765D01*
X139326928Y-124049597D01*
X139326928Y-125771130D01*
X139148989Y-125697425D01*
X138881411Y-125644200D01*
X138608589Y-125644200D01*
X138341011Y-125697425D01*
X138088957Y-125801829D01*
X137862114Y-125953401D01*
X137669201Y-126146314D01*
X137517629Y-126373157D01*
X137413225Y-126625211D01*
X137360000Y-126892789D01*
X137360000Y-127165611D01*
X137413225Y-127433189D01*
X137517629Y-127685243D01*
X137669201Y-127912086D01*
X137862114Y-128104999D01*
X138088957Y-128256571D01*
X138341011Y-128360975D01*
X138608589Y-128414200D01*
X138881411Y-128414200D01*
X139148989Y-128360975D01*
X139329549Y-128286185D01*
X139330000Y-128458450D01*
X139488750Y-128617200D01*
X140208000Y-128617200D01*
X140208000Y-128597200D01*
X140462000Y-128597200D01*
X140462000Y-128617200D01*
X140482000Y-128617200D01*
X140482000Y-128871200D01*
X140462000Y-128871200D01*
X140462000Y-130680450D01*
X140620750Y-130839200D01*
X140705000Y-130842272D01*
X140829482Y-130830012D01*
X140949180Y-130793702D01*
X140970000Y-130782573D01*
X140990820Y-130793702D01*
X141110518Y-130830012D01*
X141235000Y-130842272D01*
X141975000Y-130842272D01*
X142099482Y-130830012D01*
X142219180Y-130793702D01*
X142240000Y-130782573D01*
X142260820Y-130793702D01*
X142380518Y-130830012D01*
X142505000Y-130842272D01*
X142589250Y-130839200D01*
X142748000Y-130680450D01*
X142748000Y-128871200D01*
X142728000Y-128871200D01*
X142728000Y-128617200D01*
X142748000Y-128617200D01*
X142748000Y-128597200D01*
X143002000Y-128597200D01*
X143002000Y-128617200D01*
X143022000Y-128617200D01*
X143022000Y-128871200D01*
X143002000Y-128871200D01*
X143002000Y-130680450D01*
X143160750Y-130839200D01*
X143245000Y-130842272D01*
X143369482Y-130830012D01*
X143489180Y-130793702D01*
X143510000Y-130782573D01*
X143530820Y-130793702D01*
X143650518Y-130830012D01*
X143775000Y-130842272D01*
X144515000Y-130842272D01*
X144639482Y-130830012D01*
X144759180Y-130793702D01*
X144780000Y-130782573D01*
X144800820Y-130793702D01*
X144920518Y-130830012D01*
X145045000Y-130842272D01*
X145785000Y-130842272D01*
X145909482Y-130830012D01*
X146029180Y-130793702D01*
X146050000Y-130782573D01*
X146070820Y-130793702D01*
X146190518Y-130830012D01*
X146315000Y-130842272D01*
X147055000Y-130842272D01*
X147179482Y-130830012D01*
X147299180Y-130793702D01*
X147320000Y-130782573D01*
X147340820Y-130793702D01*
X147460518Y-130830012D01*
X147585000Y-130842272D01*
X148325000Y-130842272D01*
X148449482Y-130830012D01*
X148569180Y-130793702D01*
X148590000Y-130782573D01*
X148610820Y-130793702D01*
X148730518Y-130830012D01*
X148855000Y-130842272D01*
X149595000Y-130842272D01*
X149719482Y-130830012D01*
X149839180Y-130793702D01*
X149860000Y-130782573D01*
X149880820Y-130793702D01*
X150000518Y-130830012D01*
X150125000Y-130842272D01*
X150865000Y-130842272D01*
X150989482Y-130830012D01*
X151109180Y-130793702D01*
X151130000Y-130782573D01*
X151150820Y-130793702D01*
X151270518Y-130830012D01*
X151395000Y-130842272D01*
X151479250Y-130839200D01*
X151638000Y-130680450D01*
X151638000Y-128871200D01*
X151618000Y-128871200D01*
X151618000Y-128617200D01*
X151638000Y-128617200D01*
X151638000Y-125441200D01*
X151618000Y-125441200D01*
X151618000Y-125187200D01*
X151638000Y-125187200D01*
X151638000Y-125167200D01*
X151892000Y-125167200D01*
X151892000Y-125187200D01*
X151912000Y-125187200D01*
X151912000Y-125441200D01*
X151892000Y-125441200D01*
X151892000Y-128617200D01*
X151912000Y-128617200D01*
X151912000Y-128871200D01*
X151892000Y-128871200D01*
X151892000Y-130680450D01*
X152050750Y-130839200D01*
X152135000Y-130842272D01*
X152259482Y-130830012D01*
X152379180Y-130793702D01*
X152400000Y-130782573D01*
X152420820Y-130793702D01*
X152540518Y-130830012D01*
X152665000Y-130842272D01*
X153405000Y-130842272D01*
X153529482Y-130830012D01*
X153649180Y-130793702D01*
X153670000Y-130782573D01*
X153690820Y-130793702D01*
X153810518Y-130830012D01*
X153935000Y-130842272D01*
X154675000Y-130842272D01*
X154799482Y-130830012D01*
X154919180Y-130793702D01*
X154940000Y-130782573D01*
X154960820Y-130793702D01*
X155080518Y-130830012D01*
X155205000Y-130842272D01*
X155945000Y-130842272D01*
X156069482Y-130830012D01*
X156189180Y-130793702D01*
X156210000Y-130782573D01*
X156230820Y-130793702D01*
X156350518Y-130830012D01*
X156475000Y-130842272D01*
X157215000Y-130842272D01*
X157339482Y-130830012D01*
X157459180Y-130793702D01*
X157480000Y-130782573D01*
X157500820Y-130793702D01*
X157620518Y-130830012D01*
X157745000Y-130842272D01*
X158485000Y-130842272D01*
X158609482Y-130830012D01*
X158729180Y-130793702D01*
X158750000Y-130782573D01*
X158770820Y-130793702D01*
X158890518Y-130830012D01*
X159015000Y-130842272D01*
X159755000Y-130842272D01*
X159879482Y-130830012D01*
X159999180Y-130793702D01*
X160020000Y-130782573D01*
X160040820Y-130793702D01*
X160160518Y-130830012D01*
X160285000Y-130842272D01*
X161025000Y-130842272D01*
X161149482Y-130830012D01*
X161269180Y-130793702D01*
X161290000Y-130782573D01*
X161310820Y-130793702D01*
X161430518Y-130830012D01*
X161555000Y-130842272D01*
X162295000Y-130842272D01*
X162419482Y-130830012D01*
X162539180Y-130793702D01*
X162560000Y-130782573D01*
X162580820Y-130793702D01*
X162700518Y-130830012D01*
X162825000Y-130842272D01*
X162909250Y-130839200D01*
X163068000Y-130680450D01*
X163068000Y-128871200D01*
X163048000Y-128871200D01*
X163048000Y-128617200D01*
X163068000Y-128617200D01*
X163068000Y-128597200D01*
X163322000Y-128597200D01*
X163322000Y-128617200D01*
X163342000Y-128617200D01*
X163342000Y-128871200D01*
X163322000Y-128871200D01*
X163322000Y-130680450D01*
X163480750Y-130839200D01*
X163565000Y-130842272D01*
X163689482Y-130830012D01*
X163809180Y-130793702D01*
X163830000Y-130782573D01*
X163850820Y-130793702D01*
X163970518Y-130830012D01*
X164095000Y-130842272D01*
X164835000Y-130842272D01*
X164959482Y-130830012D01*
X165079180Y-130793702D01*
X165189494Y-130734737D01*
X165286185Y-130655385D01*
X165365537Y-130558694D01*
X165424502Y-130448380D01*
X165460812Y-130328682D01*
X165473072Y-130204200D01*
X165473072Y-128287270D01*
X165651011Y-128360975D01*
X165918589Y-128414200D01*
X166191411Y-128414200D01*
X166458989Y-128360975D01*
X166711043Y-128256571D01*
X166937886Y-128104999D01*
X167130799Y-127912086D01*
X167282371Y-127685243D01*
X167386775Y-127433189D01*
X167440000Y-127165611D01*
X167440000Y-126892789D01*
X167386775Y-126625211D01*
X167282371Y-126373157D01*
X167130799Y-126146314D01*
X166937886Y-125953401D01*
X166711043Y-125801829D01*
X166458989Y-125697425D01*
X166191411Y-125644200D01*
X165918589Y-125644200D01*
X165651011Y-125697425D01*
X165470451Y-125772215D01*
X165470000Y-125599950D01*
X165311250Y-125441200D01*
X164592000Y-125441200D01*
X164592000Y-125461200D01*
X164338000Y-125461200D01*
X164338000Y-125441200D01*
X164318000Y-125441200D01*
X164318000Y-125187200D01*
X164338000Y-125187200D01*
X164338000Y-123377950D01*
X164592000Y-123377950D01*
X164592000Y-125187200D01*
X165311250Y-125187200D01*
X165470000Y-125028450D01*
X165473072Y-123854200D01*
X165460812Y-123729718D01*
X165424502Y-123610020D01*
X165365537Y-123499706D01*
X165286185Y-123403015D01*
X165189494Y-123323663D01*
X165079180Y-123264698D01*
X164959482Y-123228388D01*
X164835000Y-123216128D01*
X164750750Y-123219200D01*
X164592000Y-123377950D01*
X164338000Y-123377950D01*
X164179250Y-123219200D01*
X164095000Y-123216128D01*
X163970518Y-123228388D01*
X163850820Y-123264698D01*
X163830000Y-123275827D01*
X163809180Y-123264698D01*
X163689482Y-123228388D01*
X163565000Y-123216128D01*
X162825000Y-123216128D01*
X162700518Y-123228388D01*
X162580820Y-123264698D01*
X162560000Y-123275827D01*
X162539180Y-123264698D01*
X162419482Y-123228388D01*
X162295000Y-123216128D01*
X162210750Y-123219200D01*
X162052000Y-123377950D01*
X162052000Y-125187200D01*
X162072000Y-125187200D01*
X162072000Y-125441200D01*
X162052000Y-125441200D01*
X162052000Y-125461200D01*
X161798000Y-125461200D01*
X161798000Y-125441200D01*
X161778000Y-125441200D01*
X161778000Y-125187200D01*
X161798000Y-125187200D01*
X161798000Y-123377950D01*
X161639250Y-123219200D01*
X161555000Y-123216128D01*
X161430518Y-123228388D01*
X161330199Y-123258820D01*
X161270424Y-123146989D01*
X161178374Y-123034827D01*
X161150268Y-123011761D01*
X160953845Y-122815338D01*
X160930774Y-122787226D01*
X160818612Y-122695177D01*
X160690648Y-122626779D01*
X160551798Y-122584659D01*
X160443585Y-122574001D01*
X160443582Y-122574001D01*
X160407399Y-122570437D01*
X160371216Y-122574001D01*
X140629900Y-122574001D01*
X140629900Y-122558161D01*
X140590126Y-122358202D01*
X140512105Y-122169844D01*
X140398837Y-122000326D01*
X140356900Y-121958389D01*
X140356900Y-118863692D01*
X140363205Y-118854256D01*
X140441226Y-118665898D01*
X140481000Y-118465939D01*
X140481000Y-118262061D01*
X140441226Y-118062102D01*
X140363205Y-117873744D01*
X140249937Y-117704226D01*
X140105774Y-117560063D01*
X139936256Y-117446795D01*
X139747898Y-117368774D01*
X139547939Y-117329000D01*
X139344061Y-117329000D01*
X139144102Y-117368774D01*
X138955744Y-117446795D01*
X138786226Y-117560063D01*
X138642063Y-117704226D01*
X138528795Y-117873744D01*
X138450774Y-118062102D01*
X138411000Y-118262061D01*
X138411000Y-118465939D01*
X138450774Y-118665898D01*
X138528795Y-118854256D01*
X138642063Y-119023774D01*
X138786226Y-119167937D01*
X138832901Y-119199124D01*
X138832900Y-121786721D01*
X137769600Y-120723421D01*
X137769600Y-120615111D01*
X137836937Y-120547774D01*
X137950205Y-120378256D01*
X138028226Y-120189898D01*
X138068000Y-119989939D01*
X138068000Y-119786061D01*
X138028226Y-119586102D01*
X137950205Y-119397744D01*
X137836937Y-119228226D01*
X137692774Y-119084063D01*
X137523256Y-118970795D01*
X137334898Y-118892774D01*
X137134939Y-118853000D01*
X136931061Y-118853000D01*
X136731102Y-118892774D01*
X136542744Y-118970795D01*
X136373226Y-119084063D01*
X136229063Y-119228226D01*
X136115795Y-119397744D01*
X136037774Y-119586102D01*
X135998000Y-119786061D01*
X133182318Y-119786061D01*
X134566280Y-118402100D01*
X136806317Y-118402100D01*
X136842500Y-118405664D01*
X136878683Y-118402100D01*
X136878686Y-118402100D01*
X136986899Y-118391442D01*
X137125749Y-118349322D01*
X137253713Y-118280924D01*
X137365875Y-118188875D01*
X137388946Y-118160763D01*
X140278210Y-115271500D01*
X140373439Y-115271500D01*
X140573398Y-115231726D01*
X140761756Y-115153705D01*
X140931274Y-115040437D01*
X141075437Y-114896274D01*
X141188705Y-114726756D01*
X141266726Y-114538398D01*
X141306500Y-114338439D01*
X141306500Y-114134561D01*
X141266726Y-113934602D01*
X141188705Y-113746244D01*
X141075437Y-113576726D01*
X140931274Y-113432563D01*
X140761756Y-113319295D01*
X140573398Y-113241274D01*
X140373439Y-113201500D01*
X140169561Y-113201500D01*
X139969602Y-113241274D01*
X139781244Y-113319295D01*
X139715767Y-113363045D01*
X139555256Y-113255795D01*
X139366898Y-113177774D01*
X139270049Y-113158510D01*
X141328535Y-111100025D01*
X141726598Y-111100025D01*
X141725000Y-111108061D01*
G36*
X141732000Y-125187200D02*
G01*
X141752000Y-125187200D01*
X141752000Y-125441200D01*
X141732000Y-125441200D01*
X141732000Y-125461200D01*
X141478000Y-125461200D01*
X141478000Y-125441200D01*
X141458000Y-125441200D01*
X141458000Y-125187200D01*
X141478000Y-125187200D01*
X141478000Y-125167200D01*
X141732000Y-125167200D01*
X141732000Y-125187200D01*
X141732000Y-125187200D01*
G37*
X141732000Y-125187200D02*
X141752000Y-125187200D01*
X141752000Y-125441200D01*
X141732000Y-125441200D01*
X141732000Y-125461200D01*
X141478000Y-125461200D01*
X141478000Y-125441200D01*
X141458000Y-125441200D01*
X141458000Y-125187200D01*
X141478000Y-125187200D01*
X141478000Y-125167200D01*
X141732000Y-125167200D01*
X141732000Y-125187200D01*
G36*
X173468061Y-129035000D02*
G01*
X173563290Y-129035000D01*
X173761401Y-129233111D01*
X173761400Y-131024889D01*
X173706063Y-131080226D01*
X173592795Y-131249744D01*
X173577201Y-131287391D01*
X173577201Y-129948027D01*
X173580764Y-129911851D01*
X173577201Y-129875675D01*
X173577201Y-129875666D01*
X173566543Y-129767453D01*
X173524423Y-129628603D01*
X173456025Y-129500639D01*
X173450382Y-129493763D01*
X173450670Y-129031541D01*
X173468061Y-129035000D01*
X173468061Y-129035000D01*
G37*
X173468061Y-129035000D02*
X173563290Y-129035000D01*
X173761401Y-129233111D01*
X173761400Y-131024889D01*
X173706063Y-131080226D01*
X173592795Y-131249744D01*
X173577201Y-131287391D01*
X173577201Y-129948027D01*
X173580764Y-129911851D01*
X173577201Y-129875675D01*
X173577201Y-129875666D01*
X173566543Y-129767453D01*
X173524423Y-129628603D01*
X173456025Y-129500639D01*
X173450382Y-129493763D01*
X173450670Y-129031541D01*
X173468061Y-129035000D01*
G36*
X150011078Y-115322457D02*
G01*
X149939102Y-115336774D01*
X149750744Y-115414795D01*
X149581226Y-115528063D01*
X149437063Y-115672226D01*
X149323795Y-115841744D01*
X149245774Y-116030102D01*
X149206000Y-116230061D01*
X149206000Y-116433939D01*
X149245774Y-116633898D01*
X149323795Y-116822256D01*
X149437063Y-116991774D01*
X149581226Y-117135937D01*
X149750744Y-117249205D01*
X149939102Y-117327226D01*
X150139061Y-117367000D01*
X150342939Y-117367000D01*
X150542898Y-117327226D01*
X150731256Y-117249205D01*
X150858727Y-117164032D01*
X150936063Y-117279774D01*
X150941064Y-117284775D01*
X150926625Y-117296625D01*
X150903559Y-117324731D01*
X150254891Y-117973400D01*
X149409440Y-117973400D01*
X147456600Y-116020561D01*
X147456600Y-115454878D01*
X147609744Y-115557205D01*
X147798102Y-115635226D01*
X147998061Y-115675000D01*
X148201939Y-115675000D01*
X148401898Y-115635226D01*
X148590256Y-115557205D01*
X148759774Y-115443937D01*
X148903937Y-115299774D01*
X149017205Y-115130256D01*
X149095226Y-114941898D01*
X149130095Y-114766600D01*
X149455221Y-114766600D01*
X150011078Y-115322457D01*
X150011078Y-115322457D01*
G37*
X150011078Y-115322457D02*
X149939102Y-115336774D01*
X149750744Y-115414795D01*
X149581226Y-115528063D01*
X149437063Y-115672226D01*
X149323795Y-115841744D01*
X149245774Y-116030102D01*
X149206000Y-116230061D01*
X149206000Y-116433939D01*
X149245774Y-116633898D01*
X149323795Y-116822256D01*
X149437063Y-116991774D01*
X149581226Y-117135937D01*
X149750744Y-117249205D01*
X149939102Y-117327226D01*
X150139061Y-117367000D01*
X150342939Y-117367000D01*
X150542898Y-117327226D01*
X150731256Y-117249205D01*
X150858727Y-117164032D01*
X150936063Y-117279774D01*
X150941064Y-117284775D01*
X150926625Y-117296625D01*
X150903559Y-117324731D01*
X150254891Y-117973400D01*
X149409440Y-117973400D01*
X147456600Y-116020561D01*
X147456600Y-115454878D01*
X147609744Y-115557205D01*
X147798102Y-115635226D01*
X147998061Y-115675000D01*
X148201939Y-115675000D01*
X148401898Y-115635226D01*
X148590256Y-115557205D01*
X148759774Y-115443937D01*
X148903937Y-115299774D01*
X149017205Y-115130256D01*
X149095226Y-114941898D01*
X149130095Y-114766600D01*
X149455221Y-114766600D01*
X150011078Y-115322457D01*
G36*
X157588000Y-116560939D02*
G01*
X157627774Y-116760898D01*
X157705795Y-116949256D01*
X157795427Y-117083400D01*
X152668329Y-117083400D01*
X152735226Y-116921898D01*
X152775000Y-116721939D01*
X152775000Y-116518061D01*
X152761661Y-116451002D01*
X157588000Y-116451002D01*
X157588000Y-116560939D01*
X157588000Y-116560939D01*
G37*
X157588000Y-116560939D02*
X157627774Y-116760898D01*
X157705795Y-116949256D01*
X157795427Y-117083400D01*
X152668329Y-117083400D01*
X152735226Y-116921898D01*
X152775000Y-116721939D01*
X152775000Y-116518061D01*
X152761661Y-116451002D01*
X157588000Y-116451002D01*
X157588000Y-116560939D01*
G36*
X174826788Y-101830653D02*
G01*
X174881828Y-101897719D01*
X172759676Y-101897719D01*
X172919156Y-101738239D01*
X174777392Y-101738239D01*
X174826788Y-101830653D01*
X174826788Y-101830653D01*
G37*
X174826788Y-101830653D02*
X174881828Y-101897719D01*
X172759676Y-101897719D01*
X172919156Y-101738239D01*
X174777392Y-101738239D01*
X174826788Y-101830653D01*
M02*
